M48
; DRILL file {KiCad 9.0.0} date 2026-04-28T00:09:46+0100
; FORMAT={-:-/ absolute / metric / decimal}
; #@! TF.CreationDate,2026-04-28T00:09:46+01:00
; #@! TF.GenerationSoftware,Kicad,Pcbnew,9.0.0
; #@! TF.FileFunction,Plated,1,2,PTH
FMAT,2
METRIC
; #@! TA.AperFunction,Plated,PTH,ViaDrill
T1C0.300
; #@! TA.AperFunction,Plated,PTH,ComponentDrill
T2C0.600
; #@! TA.AperFunction,Plated,PTH,ComponentDrill
T3C0.750
; #@! TA.AperFunction,Plated,PTH,ComponentDrill
T4C0.800
; #@! TA.AperFunction,Plated,PTH,ComponentDrill
T5C1.020
; #@! TA.AperFunction,Plated,PTH,ComponentDrill
T6C1.100
; #@! TA.AperFunction,Plated,PTH,ComponentDrill
T7C1.300
; #@! TA.AperFunction,Plated,PTH,ComponentDrill
T8C1.500
; #@! TA.AperFunction,Plated,PTH,ComponentDrill
T9C1.800
; #@! TA.AperFunction,Plated,PTH,ComponentDrill
T10C1.900
; #@! TA.AperFunction,Plated,PTH,ComponentDrill
T11C2.200
; #@! TA.AperFunction,Plated,PTH,ComponentDrill
T12C2.400
; #@! TA.AperFunction,Plated,PTH,ComponentDrill
T13C3.000
; #@! TA.AperFunction,Plated,PTH,ComponentDrill
T14C3.200
; #@! TA.AperFunction,Plated,PTH,ComponentDrill
T15C5.000
%
G90
G05
T1
X81.45Y-147.32
X88.9Y-147.512
X92.384Y-145.68
X92.384Y-151.918
X96.266Y-156.718
X98.298Y-150.114
X100.226Y-147.49
X100.371Y-142.529
X101.25Y-153.716
X103.682Y-142.522
X104.919Y-149.15
X106.162Y-147.503
X106.165Y-154.851
X115.955Y-151.903
T2
X96.25Y-135.5
X101.25Y-136.8
T3
X83.034Y-154.849
X85.514Y-154.849
X87.984Y-154.849
T4
X80.01Y-144.78
X80.01Y-154.94
X151.5Y-150.1
X161.5Y-150.1
T5
X80.598Y-136.15
X83.138Y-136.15
X85.678Y-136.15
T6
X112.25Y-145.24
X112.25Y-155.4
X119.39Y-134.76
X119.39Y-137.3
X119.39Y-139.84
T7
X120.7Y-147.3
X120.7Y-154.8
X140.7Y-147.3
X144.2Y-154.8
T8
X149.86Y-21.844
X172.085Y-21.844
X177.165Y-21.844
T9
X209.15Y-33.35
X209.15Y-37.55
X209.15Y-41.75
X209.15Y-45.95
X209.15Y-50.15
X209.15Y-54.35
X209.15Y-58.55
X209.15Y-62.75
X209.15Y-66.95
X209.15Y-71.15
X209.15Y-75.35
X214.65Y-33.35
X214.65Y-37.55
X214.65Y-41.75
X214.65Y-45.95
X214.65Y-50.15
X214.65Y-54.35
X214.65Y-58.55
X214.65Y-62.75
X214.65Y-66.95
X214.65Y-71.15
X214.65Y-75.35
T10
X173.05Y-136.15
X173.05Y-140.15
X173.05Y-144.15
X173.05Y-152.15
X173.05Y-156.15
T11
X148.842Y-135.891
X155.7Y-135.891
T12
X142.875Y-21.844
T13
X82.95Y-27.3
X83.0Y-123.9
X217.791Y-27.285
X217.8Y-123.2
T14
X127.517Y-21.767
X134.62Y-21.767
X157.734Y-21.844
X164.837Y-21.844
T15
X77.538Y-20.2
X224.421Y-157.793
X224.449Y-20.204
T7
X223.071Y-150.048G85X225.771Y-150.048
G05
M30
