%TF.GenerationSoftware,KiCad,Pcbnew,9.0.0*%
%TF.CreationDate,2026-04-28T00:09:44+01:00*%
%TF.ProjectId,Delta,44656c74-612e-46b6-9963-61645f706362,rev?*%
%TF.SameCoordinates,Original*%
%TF.FileFunction,Legend,Bot*%
%TF.FilePolarity,Positive*%
%FSLAX46Y46*%
G04 Gerber Fmt 4.6, Leading zero omitted, Abs format (unit mm)*
G04 Created by KiCad (PCBNEW 9.0.0) date 2026-04-28 00:09:44*
%MOMM*%
%LPD*%
G01*
G04 APERTURE LIST*
%ADD10C,0.150000*%
G04 APERTURE END LIST*
D10*
X215523601Y-157058628D02*
X215523601Y-158130057D01*
X215523601Y-158130057D02*
X215595030Y-158344342D01*
X215595030Y-158344342D02*
X215737887Y-158487200D01*
X215737887Y-158487200D02*
X215952173Y-158558628D01*
X215952173Y-158558628D02*
X216095030Y-158558628D01*
X214095030Y-158558628D02*
X214809316Y-158558628D01*
X214809316Y-158558628D02*
X214809316Y-157058628D01*
X212737887Y-158415771D02*
X212809315Y-158487200D01*
X212809315Y-158487200D02*
X213023601Y-158558628D01*
X213023601Y-158558628D02*
X213166458Y-158558628D01*
X213166458Y-158558628D02*
X213380744Y-158487200D01*
X213380744Y-158487200D02*
X213523601Y-158344342D01*
X213523601Y-158344342D02*
X213595030Y-158201485D01*
X213595030Y-158201485D02*
X213666458Y-157915771D01*
X213666458Y-157915771D02*
X213666458Y-157701485D01*
X213666458Y-157701485D02*
X213595030Y-157415771D01*
X213595030Y-157415771D02*
X213523601Y-157272914D01*
X213523601Y-157272914D02*
X213380744Y-157130057D01*
X213380744Y-157130057D02*
X213166458Y-157058628D01*
X213166458Y-157058628D02*
X213023601Y-157058628D01*
X213023601Y-157058628D02*
X212809315Y-157130057D01*
X212809315Y-157130057D02*
X212737887Y-157201485D01*
X211666458Y-157058628D02*
X211666458Y-158130057D01*
X211666458Y-158130057D02*
X211737887Y-158344342D01*
X211737887Y-158344342D02*
X211880744Y-158487200D01*
X211880744Y-158487200D02*
X212095030Y-158558628D01*
X212095030Y-158558628D02*
X212237887Y-158558628D01*
X210237887Y-158558628D02*
X210952173Y-158558628D01*
X210952173Y-158558628D02*
X210952173Y-157058628D01*
X208880744Y-158415771D02*
X208952172Y-158487200D01*
X208952172Y-158487200D02*
X209166458Y-158558628D01*
X209166458Y-158558628D02*
X209309315Y-158558628D01*
X209309315Y-158558628D02*
X209523601Y-158487200D01*
X209523601Y-158487200D02*
X209666458Y-158344342D01*
X209666458Y-158344342D02*
X209737887Y-158201485D01*
X209737887Y-158201485D02*
X209809315Y-157915771D01*
X209809315Y-157915771D02*
X209809315Y-157701485D01*
X209809315Y-157701485D02*
X209737887Y-157415771D01*
X209737887Y-157415771D02*
X209666458Y-157272914D01*
X209666458Y-157272914D02*
X209523601Y-157130057D01*
X209523601Y-157130057D02*
X209309315Y-157058628D01*
X209309315Y-157058628D02*
X209166458Y-157058628D01*
X209166458Y-157058628D02*
X208952172Y-157130057D01*
X208952172Y-157130057D02*
X208880744Y-157201485D01*
X207809315Y-157058628D02*
X207809315Y-158130057D01*
X207809315Y-158130057D02*
X207880744Y-158344342D01*
X207880744Y-158344342D02*
X208023601Y-158487200D01*
X208023601Y-158487200D02*
X208237887Y-158558628D01*
X208237887Y-158558628D02*
X208380744Y-158558628D01*
X206380744Y-158558628D02*
X207095030Y-158558628D01*
X207095030Y-158558628D02*
X207095030Y-157058628D01*
X205023601Y-158415771D02*
X205095029Y-158487200D01*
X205095029Y-158487200D02*
X205309315Y-158558628D01*
X205309315Y-158558628D02*
X205452172Y-158558628D01*
X205452172Y-158558628D02*
X205666458Y-158487200D01*
X205666458Y-158487200D02*
X205809315Y-158344342D01*
X205809315Y-158344342D02*
X205880744Y-158201485D01*
X205880744Y-158201485D02*
X205952172Y-157915771D01*
X205952172Y-157915771D02*
X205952172Y-157701485D01*
X205952172Y-157701485D02*
X205880744Y-157415771D01*
X205880744Y-157415771D02*
X205809315Y-157272914D01*
X205809315Y-157272914D02*
X205666458Y-157130057D01*
X205666458Y-157130057D02*
X205452172Y-157058628D01*
X205452172Y-157058628D02*
X205309315Y-157058628D01*
X205309315Y-157058628D02*
X205095029Y-157130057D01*
X205095029Y-157130057D02*
X205023601Y-157201485D01*
X203952172Y-157058628D02*
X203952172Y-158130057D01*
X203952172Y-158130057D02*
X204023601Y-158344342D01*
X204023601Y-158344342D02*
X204166458Y-158487200D01*
X204166458Y-158487200D02*
X204380744Y-158558628D01*
X204380744Y-158558628D02*
X204523601Y-158558628D01*
X202523601Y-158558628D02*
X203237887Y-158558628D01*
X203237887Y-158558628D02*
X203237887Y-157058628D01*
X201166458Y-158415771D02*
X201237886Y-158487200D01*
X201237886Y-158487200D02*
X201452172Y-158558628D01*
X201452172Y-158558628D02*
X201595029Y-158558628D01*
X201595029Y-158558628D02*
X201809315Y-158487200D01*
X201809315Y-158487200D02*
X201952172Y-158344342D01*
X201952172Y-158344342D02*
X202023601Y-158201485D01*
X202023601Y-158201485D02*
X202095029Y-157915771D01*
X202095029Y-157915771D02*
X202095029Y-157701485D01*
X202095029Y-157701485D02*
X202023601Y-157415771D01*
X202023601Y-157415771D02*
X201952172Y-157272914D01*
X201952172Y-157272914D02*
X201809315Y-157130057D01*
X201809315Y-157130057D02*
X201595029Y-157058628D01*
X201595029Y-157058628D02*
X201452172Y-157058628D01*
X201452172Y-157058628D02*
X201237886Y-157130057D01*
X201237886Y-157130057D02*
X201166458Y-157201485D01*
M02*
