%TF.GenerationSoftware,KiCad,Pcbnew,9.0.0*%
%TF.CreationDate,2026-04-28T00:09:44+01:00*%
%TF.ProjectId,Delta,44656c74-612e-46b6-9963-61645f706362,rev?*%
%TF.SameCoordinates,Original*%
%TF.FileFunction,Copper,L2,Bot*%
%TF.FilePolarity,Positive*%
%FSLAX46Y46*%
G04 Gerber Fmt 4.6, Leading zero omitted, Abs format (unit mm)*
G04 Created by KiCad (PCBNEW 9.0.0) date 2026-04-28 00:09:44*
%MOMM*%
%LPD*%
G01*
G04 APERTURE LIST*
G04 Aperture macros list*
%AMRoundRect*
0 Rectangle with rounded corners*
0 $1 Rounding radius*
0 $2 $3 $4 $5 $6 $7 $8 $9 X,Y pos of 4 corners*
0 Add a 4 corners polygon primitive as box body*
4,1,4,$2,$3,$4,$5,$6,$7,$8,$9,$2,$3,0*
0 Add four circle primitives for the rounded corners*
1,1,$1+$1,$2,$3*
1,1,$1+$1,$4,$5*
1,1,$1+$1,$6,$7*
1,1,$1+$1,$8,$9*
0 Add four rect primitives between the rounded corners*
20,1,$1+$1,$2,$3,$4,$5,0*
20,1,$1+$1,$4,$5,$6,$7,0*
20,1,$1+$1,$6,$7,$8,$9,0*
20,1,$1+$1,$8,$9,$2,$3,0*%
G04 Aperture macros list end*
%TA.AperFunction,ComponentPad*%
%ADD10C,1.600000*%
%TD*%
%TA.AperFunction,ComponentPad*%
%ADD11C,6.000000*%
%TD*%
%TA.AperFunction,ComponentPad*%
%ADD12R,1.730000X2.030000*%
%TD*%
%TA.AperFunction,ComponentPad*%
%ADD13O,1.730000X2.030000*%
%TD*%
%TA.AperFunction,ComponentPad*%
%ADD14C,5.200000*%
%TD*%
%TA.AperFunction,ComponentPad*%
%ADD15RoundRect,0.336539X-1.413461X1.413461X-1.413461X-1.413461X1.413461X-1.413461X1.413461X1.413461X0*%
%TD*%
%TA.AperFunction,ComponentPad*%
%ADD16C,3.500000*%
%TD*%
%TA.AperFunction,ComponentPad*%
%ADD17C,2.750000*%
%TD*%
%TA.AperFunction,ComponentPad*%
%ADD18C,8.000000*%
%TD*%
%TA.AperFunction,ComponentPad*%
%ADD19RoundRect,0.250001X-1.599999X1.099999X-1.599999X-1.099999X1.599999X-1.099999X1.599999X1.099999X0*%
%TD*%
%TA.AperFunction,ComponentPad*%
%ADD20O,3.700000X2.700000*%
%TD*%
%TA.AperFunction,ComponentPad*%
%ADD21C,3.900000*%
%TD*%
%TA.AperFunction,ComponentPad*%
%ADD22R,1.050000X1.500000*%
%TD*%
%TA.AperFunction,ComponentPad*%
%ADD23O,1.050000X1.500000*%
%TD*%
%TA.AperFunction,ComponentPad*%
%ADD24C,4.000000*%
%TD*%
%TA.AperFunction,ComponentPad*%
%ADD25R,2.200000X2.200000*%
%TD*%
%TA.AperFunction,ComponentPad*%
%ADD26O,2.200000X2.200000*%
%TD*%
%TA.AperFunction,ComponentPad*%
%ADD27C,2.000000*%
%TD*%
%TA.AperFunction,ComponentPad*%
%ADD28R,2.000000X2.000000*%
%TD*%
%TA.AperFunction,ComponentPad*%
%ADD29O,6.000000X3.300000*%
%TD*%
%TA.AperFunction,ComponentPad*%
%ADD30R,1.600000X1.600000*%
%TD*%
%TA.AperFunction,ComponentPad*%
%ADD31O,1.600000X1.600000*%
%TD*%
%TA.AperFunction,ComponentPad*%
%ADD32R,2.000000X1.905000*%
%TD*%
%TA.AperFunction,ComponentPad*%
%ADD33O,2.000000X1.905000*%
%TD*%
%TA.AperFunction,ViaPad*%
%ADD34C,0.600000*%
%TD*%
%TA.AperFunction,Conductor*%
%ADD35C,2.000000*%
%TD*%
%TA.AperFunction,Conductor*%
%ADD36C,0.500000*%
%TD*%
%TA.AperFunction,Conductor*%
%ADD37C,0.200000*%
%TD*%
%TA.AperFunction,Conductor*%
%ADD38C,5.000000*%
%TD*%
%TA.AperFunction,Conductor*%
%ADD39C,1.500000*%
%TD*%
%TA.AperFunction,Conductor*%
%ADD40C,3.000000*%
%TD*%
%TA.AperFunction,Conductor*%
%ADD41C,8.000000*%
%TD*%
%TA.AperFunction,Conductor*%
%ADD42C,1.000000*%
%TD*%
%TA.AperFunction,Conductor*%
%ADD43C,10.000000*%
%TD*%
G04 APERTURE END LIST*
D10*
%TO.P,R163,1*%
%TO.N,+12V*%
X96250000Y-135500000D03*
%TO.P,R163,2*%
%TO.N,Net-(R163-Pad2)*%
X101250000Y-136800000D03*
%TD*%
D11*
%TO.P,,1*%
%TO.N,GND*%
X83000000Y-123900000D03*
%TD*%
D12*
%TO.P,J1,1,Pin_1*%
%TO.N,Net-(J1-Pin_1)*%
X80598000Y-136150000D03*
D13*
%TO.P,J1,2,Pin_2*%
%TO.N,+12V*%
X83138000Y-136150000D03*
%TO.P,J1,3,Pin_3*%
%TO.N,unconnected-(J1-Pin_3-Pad3)*%
X85678000Y-136150000D03*
%TD*%
D14*
%TO.P,PAD5,1*%
%TO.N,GND*%
X134620000Y-21766573D03*
%TD*%
D15*
%TO.P,J2,1,CRT_L*%
%TO.N,Net-(J2-CRT_L)*%
X173050000Y-136150000D03*
D16*
%TO.P,J2,2,L*%
%TO.N,Net-(J2-L-Pad2)*%
X173050000Y-140150000D03*
%TO.P,J2,3,L*%
X173050000Y-144150000D03*
%TO.P,J2,4,N*%
%TO.N,Net-(J2-N-Pad4)*%
X173050000Y-152150000D03*
%TO.P,J2,5,N*%
X173050000Y-156150000D03*
%TD*%
D14*
%TO.P,PAD4,1*%
%TO.N,+5V*%
X157734000Y-21844000D03*
%TD*%
D17*
%TO.P,PAD12,1*%
%TO.N,+5VSB*%
X177165000Y-21844000D03*
%TD*%
D18*
%TO.P,REF\u002A\u002A,1*%
%TO.N,GND*%
X224449267Y-20204177D03*
%TD*%
D19*
%TO.P,J3,1,+5V*%
%TO.N,+5V*%
X214650000Y-33350000D03*
D20*
%TO.P,J3,2,+5V*%
X214650000Y-37550000D03*
%TO.P,J3,3,+5V*%
X214650000Y-41750000D03*
%TO.P,J3,4,+5V*%
X214650000Y-45950000D03*
%TO.P,J3,5,GND*%
%TO.N,GND*%
X214650000Y-50150000D03*
%TO.P,J3,6,GND*%
X214650000Y-54350000D03*
%TO.P,J3,7,GND*%
X214650000Y-58550000D03*
%TO.P,J3,8,GND*%
X214650000Y-62750000D03*
%TO.P,J3,9,GND*%
X214650000Y-66950000D03*
%TO.P,J3,10,NC*%
%TO.N,unconnected-(J3-NC-Pad10)*%
X214650000Y-71150000D03*
%TO.P,J3,11,-12V*%
%TO.N,-12V*%
X214650000Y-75350000D03*
%TO.P,J3,12,+5V_TRKL*%
%TO.N,+5VSB*%
X209150000Y-33350000D03*
%TO.P,J3,13,+5V*%
%TO.N,+5V*%
X209150000Y-37550000D03*
%TO.P,J3,14,+5V*%
X209150000Y-41750000D03*
%TO.P,J3,15,+5V*%
X209150000Y-45950000D03*
%TO.P,J3,16,+5V*%
X209150000Y-50150000D03*
%TO.P,J3,17,GND*%
%TO.N,GND*%
X209150000Y-54350000D03*
%TO.P,J3,18,GND*%
X209150000Y-58550000D03*
%TO.P,J3,19,GND*%
X209150000Y-62750000D03*
%TO.P,J3,20,GND*%
X209150000Y-66950000D03*
%TO.P,J3,21,PFW*%
%TO.N,Net-(J3-PFW)*%
X209150000Y-71150000D03*
%TO.P,J3,22,+12V*%
%TO.N,+12V*%
X209150000Y-75350000D03*
%TD*%
D10*
%TO.P,L4,1,1*%
%TO.N,Net-(L4-Pad1)*%
X151500000Y-150100000D03*
%TO.P,L4,2,2*%
%TO.N,Net-(J2-CRT_L)*%
X161500000Y-150100000D03*
%TD*%
D21*
%TO.P,PAD10,1*%
%TO.N,+12V*%
X142875000Y-21844000D03*
%TD*%
D14*
%TO.P,PAD3,1*%
%TO.N,+5V*%
X164836763Y-21844000D03*
%TD*%
D22*
%TO.P,Q151,1,E*%
%TO.N,Net-(Q151-E)*%
X87984290Y-154848979D03*
D23*
%TO.P,Q151,2,C*%
%TO.N,Net-(Q151-C)*%
X85514290Y-154848979D03*
%TO.P,Q151,3,B*%
%TO.N,Net-(Q151-B)*%
X83034290Y-154848979D03*
%TD*%
D18*
%TO.P,REF\u002A\u002A,1*%
%TO.N,GND*%
X224421407Y-157793133D03*
%TD*%
D24*
%TO.P,PAD13,1*%
%TO.N,Net-(J2-L-Pad2)*%
X155700000Y-135890750D03*
%TD*%
D14*
%TO.P,PAD7,1*%
%TO.N,GND*%
X127517236Y-21766573D03*
%TD*%
D24*
%TO.P,PAD14,1*%
%TO.N,Net-(J2-N-Pad4)*%
X148842000Y-135890750D03*
%TD*%
D18*
%TO.P,REF\u002A\u002A,1*%
%TO.N,GND*%
X77537652Y-20200000D03*
%TD*%
D25*
%TO.P,D153,1,K*%
%TO.N,+12V*%
X112250000Y-155400000D03*
D26*
%TO.P,D153,2,A*%
%TO.N,GND*%
X112250000Y-145240000D03*
%TD*%
D27*
%TO.P,RL1,13*%
%TO.N,Net-(J2-L-Pad2)*%
X140700000Y-147300000D03*
%TO.P,RL1,14*%
%TO.N,Net-(L4-Pad1)*%
X144200000Y-154800000D03*
D28*
%TO.P,RL1,A1*%
%TO.N,+12V*%
X120700000Y-154800000D03*
D27*
%TO.P,RL1,A2*%
%TO.N,GND*%
X120700000Y-147300000D03*
%TD*%
D29*
%TO.P,REF\u002A\u002A,1*%
%TO.N,GND*%
X224421407Y-150047753D03*
%TD*%
D17*
%TO.P,PS_ON1,1*%
%TO.N,Net-(U1-Y)*%
X172085000Y-21844000D03*
%TD*%
D30*
%TO.P,ZD151,1,K*%
%TO.N,Net-(J1-Pin_1)*%
X80010000Y-154940000D03*
D31*
%TO.P,ZD151,2,A*%
%TO.N,Net-(D151-A)*%
X80010000Y-144780000D03*
%TD*%
D11*
%TO.P,REF\u002A\u002A,1*%
%TO.N,GND*%
X217800000Y-123200000D03*
%TD*%
%TO.P,,1*%
%TO.N,GND*%
X217790966Y-27284963D03*
%TD*%
D17*
%TO.P,PAD11,1*%
%TO.N,-12V*%
X149860000Y-21844000D03*
%TD*%
D11*
%TO.P,,1*%
%TO.N,GND*%
X82950000Y-27300000D03*
%TD*%
D32*
%TO.P,Q152,1,B*%
%TO.N,Net-(Q151-E)*%
X119390000Y-134760000D03*
D33*
%TO.P,Q152,2,C*%
%TO.N,Net-(J1-Pin_1)*%
X119390000Y-137300000D03*
%TO.P,Q152,3,E*%
%TO.N,GND*%
X119390000Y-139840000D03*
%TD*%
D34*
%TO.N,Net-(Q151-E)*%
X88900000Y-147512500D03*
X115954799Y-151902789D03*
%TO.N,GND*%
X92384052Y-151917706D03*
X98298000Y-150114000D03*
X92383597Y-145680156D03*
%TO.N,+12V*%
X96266000Y-156718000D03*
%TO.N,Net-(D151-A)*%
X100225539Y-147490256D03*
X100370711Y-142528949D03*
%TO.N,Net-(J1-Pin_1)*%
X81450000Y-147320000D03*
%TO.N,Net-(R163-Pad2)*%
X101250000Y-153716000D03*
%TO.N,Net-(Q151-B)*%
X106165150Y-154851158D03*
X106161661Y-147502513D03*
%TO.N,Net-(D151-K)*%
X104918778Y-149149918D03*
X103681943Y-142522163D03*
%TD*%
D35*
%TO.N,-12V*%
X184912000Y-78740000D02*
X149860000Y-43688000D01*
X149860000Y-43688000D02*
X149860000Y-21844000D01*
D36*
%TO.N,Net-(Q151-E)*%
X87984290Y-148428210D02*
X88900000Y-147512500D01*
X115950000Y-138200000D02*
X119390000Y-134760000D01*
X115950000Y-151897990D02*
X115950000Y-138200000D01*
X87984290Y-154848979D02*
X87984290Y-148428210D01*
X115954799Y-151902789D02*
X115950000Y-151897990D01*
X88900000Y-147512500D02*
X88878234Y-147534266D01*
D37*
%TO.N,Net-(Q151-C)*%
X85514290Y-154348979D02*
X85514290Y-154848979D01*
X85476860Y-154400000D02*
X85600000Y-154400000D01*
D38*
%TO.N,GND*%
X92710000Y-123900000D02*
X97790000Y-123900000D01*
D39*
X214650000Y-50150000D02*
X221581000Y-50150000D01*
D37*
X92383597Y-124226403D02*
X92710000Y-123900000D01*
D36*
X92383597Y-151917251D02*
X92384052Y-151917706D01*
D38*
X224421407Y-150047753D02*
X224421407Y-157793133D01*
D40*
X217790966Y-27284963D02*
X217790966Y-26862478D01*
D36*
X121920000Y-139700000D02*
X121920000Y-146080000D01*
D39*
X209150000Y-58050000D02*
X209150000Y-53850000D01*
D37*
X221681000Y-62750000D02*
X222201000Y-62230000D01*
D38*
X224421407Y-129221407D02*
X224421407Y-150047753D01*
D36*
X121920000Y-134620000D02*
X121920000Y-139700000D01*
D38*
X83004573Y-27354573D02*
X129032000Y-27354573D01*
D41*
X134620000Y-21766573D02*
X127517236Y-21766573D01*
D38*
X77161987Y-20669144D02*
X82624335Y-26131492D01*
D36*
X92383597Y-145680156D02*
X92383597Y-151917251D01*
D39*
X214650000Y-54350000D02*
X221826000Y-54350000D01*
D36*
X92383597Y-145680156D02*
X92383597Y-124226403D01*
D39*
X209150000Y-62250000D02*
X209150000Y-66450000D01*
D38*
X129032000Y-27354573D02*
X134620000Y-21766573D01*
D37*
X121780000Y-134760000D02*
X121920000Y-134620000D01*
D38*
X222201000Y-62230000D02*
X222201000Y-58420000D01*
D37*
X221581000Y-50150000D02*
X222201000Y-49530000D01*
D39*
X209150000Y-62250000D02*
X209150000Y-58050000D01*
X214650000Y-62750000D02*
X221681000Y-62750000D01*
D37*
X222071000Y-58550000D02*
X222201000Y-58420000D01*
D39*
X214650000Y-58550000D02*
X214650000Y-62750000D01*
D38*
X222201000Y-118199000D02*
X222201000Y-66040000D01*
D37*
X221291000Y-66950000D02*
X222201000Y-66040000D01*
X83000000Y-27350000D02*
X83004573Y-27354573D01*
D40*
X216500000Y-123900000D02*
X217800000Y-122600000D01*
D39*
X214650000Y-58550000D02*
X209150000Y-58550000D01*
X209150000Y-62750000D02*
X214650000Y-62750000D01*
D38*
X217800000Y-122600000D02*
X224421407Y-129221407D01*
X222201000Y-58420000D02*
X222201000Y-53975000D01*
D39*
X221791000Y-66450000D02*
X222201000Y-66040000D01*
D37*
X221826000Y-54350000D02*
X222201000Y-53975000D01*
X121780000Y-139840000D02*
X121920000Y-139700000D01*
D36*
X119390000Y-139840000D02*
X121780000Y-139840000D01*
D39*
X214650000Y-54350000D02*
X214650000Y-58550000D01*
X214650000Y-58550000D02*
X222071000Y-58550000D01*
D38*
X123190000Y-123900000D02*
X216500000Y-123900000D01*
D39*
X222081000Y-49650000D02*
X222201000Y-49530000D01*
X222076000Y-53850000D02*
X222201000Y-53975000D01*
D36*
X123190000Y-123900000D02*
X121920000Y-125170000D01*
D38*
X222201000Y-49530000D02*
X222201000Y-31694997D01*
X83000000Y-123900000D02*
X92710000Y-123900000D01*
D36*
X121920000Y-125170000D02*
X121920000Y-134620000D01*
X121920000Y-146080000D02*
X120700000Y-147300000D01*
D37*
X98298000Y-124408000D02*
X97790000Y-123900000D01*
D38*
X222201000Y-66040000D02*
X222201000Y-62230000D01*
D39*
X214650000Y-53850000D02*
X214650000Y-49650000D01*
D38*
X97790000Y-123900000D02*
X123190000Y-123900000D01*
D39*
X214650000Y-66450000D02*
X214650000Y-62250000D01*
D37*
X83000000Y-27350000D02*
X82950000Y-27300000D01*
D38*
X222201000Y-31694997D02*
X217790966Y-27284963D01*
X217790966Y-26862478D02*
X224449267Y-20204177D01*
D39*
X209150000Y-54350000D02*
X214650000Y-54350000D01*
X209150000Y-66950000D02*
X214650000Y-66950000D01*
X214650000Y-66950000D02*
X221291000Y-66950000D01*
D37*
X82950000Y-25612348D02*
X82950000Y-27300000D01*
D38*
X217800000Y-122600000D02*
X222201000Y-118199000D01*
X222201000Y-53975000D02*
X222201000Y-49530000D01*
D36*
X98298000Y-150114000D02*
X98298000Y-124408000D01*
D38*
X83000000Y-123900000D02*
X83000000Y-27350000D01*
D37*
X209150000Y-58050000D02*
X210450000Y-58050000D01*
D42*
%TO.N,+12V*%
X96250000Y-156702000D02*
X96250000Y-135500000D01*
X110900000Y-156750000D02*
X96298000Y-156750000D01*
D37*
X96298000Y-156750000D02*
X96266000Y-156718000D01*
D42*
X112250000Y-155400000D02*
X110900000Y-156750000D01*
D37*
X96266000Y-156718000D02*
X96250000Y-156702000D01*
D38*
%TO.N,Net-(J2-N-Pad4)*%
X160478208Y-156150000D02*
X156200000Y-151871792D01*
X173050000Y-156150000D02*
X173050000Y-152150000D01*
X156200000Y-146040000D02*
X148842000Y-138682000D01*
X173050000Y-156150000D02*
X160478208Y-156150000D01*
X148842000Y-138682000D02*
X148842000Y-135890750D01*
X156200000Y-151871792D02*
X156200000Y-146040000D01*
D37*
%TO.N,Net-(D151-A)*%
X100370711Y-142528949D02*
X100225539Y-142674121D01*
D36*
X100225539Y-142674121D02*
X100225539Y-147490256D01*
%TO.N,Net-(J1-Pin_1)*%
X81280000Y-154940000D02*
X80010000Y-154940000D01*
X81450000Y-154770000D02*
X81280000Y-154940000D01*
X81450000Y-137002000D02*
X81450000Y-147320000D01*
X80598000Y-136150000D02*
X81450000Y-137002000D01*
X81450000Y-147320000D02*
X81450000Y-154770000D01*
%TO.N,Net-(R163-Pad2)*%
X101250000Y-136800000D02*
X101250000Y-153716000D01*
%TO.N,Net-(Q151-B)*%
X106172000Y-154844308D02*
X106165150Y-154851158D01*
X106161661Y-147502513D02*
X106172000Y-147512852D01*
X106172000Y-147512852D02*
X106172000Y-154844308D01*
%TO.N,Net-(D151-K)*%
X103886000Y-148590000D02*
X104445918Y-149149918D01*
X104445918Y-149149918D02*
X104918778Y-149149918D01*
X103886000Y-142726220D02*
X103681943Y-142522163D01*
X103886000Y-148590000D02*
X103886000Y-142726220D01*
D43*
%TO.N,+5V*%
X161285382Y-25395381D02*
X161285382Y-34793382D01*
D35*
X209150000Y-45950000D02*
X209150000Y-50150000D01*
X210456442Y-41750000D02*
X209150000Y-41750000D01*
X214650000Y-45928397D02*
X210471603Y-41750000D01*
X214650000Y-45950000D02*
X209150000Y-45950000D01*
X214650000Y-37550000D02*
X213350000Y-37550000D01*
D37*
X209150000Y-45950000D02*
X210450000Y-45950000D01*
D41*
X157734000Y-21844000D02*
X164836763Y-21844000D01*
D35*
X209150000Y-37550000D02*
X214650000Y-37550000D01*
D43*
X161285382Y-34793382D02*
X168242000Y-41750000D01*
D35*
X214650000Y-37556442D02*
X210456442Y-41750000D01*
X214650000Y-37550000D02*
X214650000Y-37556442D01*
X214650000Y-45950000D02*
X214650000Y-45928397D01*
X210471603Y-41750000D02*
X209150000Y-41750000D01*
X209150000Y-37550000D02*
X210450000Y-37550000D01*
X214650000Y-45950000D02*
X214650000Y-33350000D01*
D43*
X168242000Y-41750000D02*
X209150000Y-41750000D01*
D35*
%TO.N,-12V*%
X184912000Y-78740000D02*
X211260000Y-78740000D01*
X211260000Y-78740000D02*
X214650000Y-75350000D01*
D40*
%TO.N,Net-(J2-CRT_L)*%
X167100000Y-136150000D02*
X161500000Y-141750000D01*
X173050000Y-136150000D02*
X167100000Y-136150000D01*
X161500000Y-150100000D02*
X161500000Y-141750000D01*
%TD*%
M02*
