%TF.GenerationSoftware,KiCad,Pcbnew,9.0.0*%
%TF.CreationDate,2026-05-15T01:12:05-05:00*%
%TF.ProjectId,Delta,44656c74-612e-46b6-9963-61645f706362,rev?*%
%TF.SameCoordinates,Original*%
%TF.FileFunction,Soldermask,Top*%
%TF.FilePolarity,Negative*%
%FSLAX46Y46*%
G04 Gerber Fmt 4.6, Leading zero omitted, Abs format (unit mm)*
G04 Created by KiCad (PCBNEW 9.0.0) date 2026-05-15 01:12:05*
%MOMM*%
%LPD*%
G01*
G04 APERTURE LIST*
G04 Aperture macros list*
%AMRoundRect*
0 Rectangle with rounded corners*
0 $1 Rounding radius*
0 $2 $3 $4 $5 $6 $7 $8 $9 X,Y pos of 4 corners*
0 Add a 4 corners polygon primitive as box body*
4,1,4,$2,$3,$4,$5,$6,$7,$8,$9,$2,$3,0*
0 Add four circle primitives for the rounded corners*
1,1,$1+$1,$2,$3*
1,1,$1+$1,$4,$5*
1,1,$1+$1,$6,$7*
1,1,$1+$1,$8,$9*
0 Add four rect primitives between the rounded corners*
20,1,$1+$1,$2,$3,$4,$5,0*
20,1,$1+$1,$4,$5,$6,$7,0*
20,1,$1+$1,$6,$7,$8,$9,0*
20,1,$1+$1,$8,$9,$2,$3,0*%
G04 Aperture macros list end*
%ADD10R,1.050000X1.500000*%
%ADD11O,1.050000X1.500000*%
%ADD12C,1.600000*%
%ADD13C,6.000000*%
%ADD14RoundRect,0.250000X0.450000X-0.262500X0.450000X0.262500X-0.450000X0.262500X-0.450000X-0.262500X0*%
%ADD15R,1.730000X2.030000*%
%ADD16O,1.730000X2.030000*%
%ADD17C,5.200000*%
%ADD18RoundRect,0.336539X-1.413461X1.413461X-1.413461X-1.413461X1.413461X-1.413461X1.413461X1.413461X0*%
%ADD19C,3.500000*%
%ADD20C,2.750000*%
%ADD21C,8.000000*%
%ADD22C,3.200000*%
%ADD23RoundRect,0.250001X-1.599999X1.099999X-1.599999X-1.099999X1.599999X-1.099999X1.599999X1.099999X0*%
%ADD24O,3.700000X2.700000*%
%ADD25C,3.900000*%
%ADD26RoundRect,0.150000X0.150000X-0.512500X0.150000X0.512500X-0.150000X0.512500X-0.150000X-0.512500X0*%
%ADD27RoundRect,0.250000X-0.450000X0.262500X-0.450000X-0.262500X0.450000X-0.262500X0.450000X0.262500X0*%
%ADD28C,4.000000*%
%ADD29R,2.200000X2.200000*%
%ADD30O,2.200000X2.200000*%
%ADD31RoundRect,0.225000X0.225000X0.375000X-0.225000X0.375000X-0.225000X-0.375000X0.225000X-0.375000X0*%
%ADD32C,2.000000*%
%ADD33R,2.000000X2.000000*%
%ADD34O,6.000000X3.300000*%
%ADD35R,1.600000X1.600000*%
%ADD36O,1.600000X1.600000*%
%ADD37RoundRect,0.250000X-0.250000X-0.475000X0.250000X-0.475000X0.250000X0.475000X-0.250000X0.475000X0*%
%ADD38R,2.000000X1.905000*%
%ADD39O,2.000000X1.905000*%
G04 APERTURE END LIST*
D10*
%TO.C,Q151*%
X87984290Y-154848979D03*
D11*
X85514290Y-154848979D03*
X83034290Y-154848979D03*
%TD*%
D12*
%TO.C,R163*%
X96250000Y-135500000D03*
X101250000Y-136800000D03*
%TD*%
D13*
%TO.C,*%
X83000000Y-123900000D03*
%TD*%
D14*
%TO.C,R164*%
X93385000Y-156712500D03*
X93385000Y-154887500D03*
%TD*%
D15*
%TO.C,J1*%
X80598000Y-136150000D03*
D16*
X83138000Y-136150000D03*
X85678000Y-136150000D03*
%TD*%
D17*
%TO.C,PAD5*%
X134620000Y-21766573D03*
%TD*%
D18*
%TO.C,J2*%
X173050000Y-136150000D03*
D19*
X173050000Y-140150000D03*
X173050000Y-144150000D03*
X173050000Y-152150000D03*
X173050000Y-156150000D03*
%TD*%
D17*
%TO.C,PAD4*%
X157734000Y-21844000D03*
%TD*%
D14*
%TO.C,R170*%
X93385000Y-147512500D03*
X93385000Y-145687500D03*
%TD*%
%TO.C,R168*%
X99200000Y-151912500D03*
X99200000Y-150087500D03*
%TD*%
D20*
%TO.C,PAD12*%
X177165000Y-21844000D03*
%TD*%
D21*
%TO.C,REF\u002A\u002A*%
X224449267Y-20204177D03*
%TD*%
D22*
%TO.C,J3*%
X218850000Y-79850000D03*
D23*
X214650000Y-33350000D03*
D24*
X214650000Y-37550000D03*
X214650000Y-41750000D03*
X214650000Y-45950000D03*
X214650000Y-50150000D03*
X214650000Y-54350000D03*
X214650000Y-58550000D03*
X214650000Y-62750000D03*
X214650000Y-66950000D03*
X214650000Y-71150000D03*
X214650000Y-75350000D03*
X209150000Y-33350000D03*
X209150000Y-37550000D03*
X209150000Y-41750000D03*
X209150000Y-45950000D03*
X209150000Y-50150000D03*
X209150000Y-54350000D03*
X209150000Y-58550000D03*
X209150000Y-62750000D03*
X209150000Y-66950000D03*
X209150000Y-71150000D03*
X209150000Y-75350000D03*
%TD*%
D14*
%TO.C,R165*%
X99200000Y-156712500D03*
X99200000Y-154887500D03*
%TD*%
D12*
%TO.C,L4*%
X151500000Y-150100000D03*
X161500000Y-150100000D03*
%TD*%
D25*
%TO.C,PAD10*%
X142875000Y-21844000D03*
%TD*%
D14*
%TO.C,R169*%
X104902000Y-151892000D03*
X104902000Y-150067000D03*
%TD*%
D17*
%TO.C,PAD3*%
X164836763Y-21844000D03*
%TD*%
D14*
%TO.C,R172*%
X104902000Y-147492000D03*
X104902000Y-145667000D03*
%TD*%
D26*
%TO.C,U1*%
X201997429Y-53856625D03*
X202947429Y-53856625D03*
X203897429Y-53856625D03*
X203897429Y-51581625D03*
X201997429Y-51581625D03*
%TD*%
D21*
%TO.C,REF\u002A\u002A*%
X224421407Y-157793133D03*
%TD*%
D27*
%TO.C,R171*%
X99190373Y-145676452D03*
X99190373Y-147501452D03*
%TD*%
D28*
%TO.C,PAD13*%
X157226000Y-135890750D03*
%TD*%
D17*
%TO.C,PAD7*%
X127517236Y-21766573D03*
%TD*%
D14*
%TO.C,R167*%
X93385000Y-151912500D03*
X93385000Y-150087500D03*
%TD*%
D28*
%TO.C,PAD14*%
X150368000Y-135890750D03*
%TD*%
D21*
%TO.C,REF\u002A\u002A*%
X77537652Y-20200000D03*
%TD*%
D29*
%TO.C,D153*%
X112250000Y-155400000D03*
D30*
X112250000Y-145240000D03*
%TD*%
D31*
%TO.C,D151*%
X103674411Y-141605000D03*
X100374411Y-141605000D03*
%TD*%
D32*
%TO.C,RL1*%
X140700000Y-147300000D03*
X144200000Y-154800000D03*
D33*
X120700000Y-154800000D03*
D32*
X120700000Y-147300000D03*
%TD*%
D34*
%TO.C,REF\u002A\u002A*%
X224421407Y-150047753D03*
%TD*%
D20*
%TO.C,PS_ON1*%
X172085000Y-21844000D03*
%TD*%
D35*
%TO.C,ZD151*%
X80010000Y-154940000D03*
D36*
X80010000Y-144780000D03*
%TD*%
D13*
%TO.C,REF\u002A\u002A*%
X217800000Y-123200000D03*
%TD*%
%TO.C,*%
X217790966Y-27284963D03*
%TD*%
D37*
%TO.C,C1*%
X201997429Y-48909125D03*
X203897429Y-48909125D03*
%TD*%
D20*
%TO.C,PAD11*%
X149860000Y-21844000D03*
%TD*%
D14*
%TO.C,R166*%
X104902000Y-156692000D03*
X104902000Y-154867000D03*
%TD*%
D13*
%TO.C,*%
X82950000Y-27300000D03*
%TD*%
D19*
%TO.C,Q152*%
X125245000Y-137300000D03*
D38*
X108585000Y-134760000D03*
D39*
X108585000Y-137300000D03*
X108585000Y-139840000D03*
%TD*%
M02*
