%TF.GenerationSoftware,KiCad,Pcbnew,9.0.0*%
%TF.CreationDate,2026-05-15T01:12:05-05:00*%
%TF.ProjectId,Delta,44656c74-612e-46b6-9963-61645f706362,rev?*%
%TF.SameCoordinates,Original*%
%TF.FileFunction,Legend,Bot*%
%TF.FilePolarity,Positive*%
%FSLAX46Y46*%
G04 Gerber Fmt 4.6, Leading zero omitted, Abs format (unit mm)*
G04 Created by KiCad (PCBNEW 9.0.0) date 2026-05-15 01:12:05*
%MOMM*%
%LPD*%
G01*
G04 APERTURE LIST*
%ADD10C,0.200000*%
%ADD11C,0.250000*%
%ADD12C,0.150000*%
%ADD13C,0.400000*%
%ADD14C,0.381000*%
%ADD15C,0.100000*%
%ADD16C,0.221297*%
G04 APERTURE END LIST*
D10*
X131055395Y-150644289D02*
X155185663Y-126492000D01*
X131019079Y-160427158D02*
X154508021Y-137130344D01*
X178899867Y-161193505D02*
X187629775Y-152463597D01*
X164304304Y-161149068D02*
X170872311Y-154581061D01*
X149719245Y-161174127D02*
X159859654Y-151033718D01*
D11*
X129349405Y-161877505D02*
X129349405Y-125000000D01*
D10*
X159996586Y-136389498D02*
X169859100Y-126526984D01*
X154587132Y-161150824D02*
X170873363Y-144864593D01*
X175317525Y-140434310D02*
X189168527Y-126583308D01*
X140045691Y-161153433D02*
X150227935Y-150971189D01*
X159600458Y-141598665D02*
X162180154Y-139018969D01*
X144915691Y-161167681D02*
X170840808Y-135242563D01*
X130886877Y-141068161D02*
X145459580Y-126495458D01*
X175253471Y-135692371D02*
X184405842Y-126540000D01*
X185684760Y-134936469D02*
X189373627Y-131247602D01*
X152424835Y-148778786D02*
X174663621Y-126540000D01*
X187303372Y-138176000D02*
X189438683Y-136040689D01*
X131133177Y-155476505D02*
X138781102Y-147828580D01*
X159386478Y-161206894D02*
X176029963Y-144563409D01*
X152912999Y-133696684D02*
X160105727Y-126503956D01*
X130883277Y-131270095D02*
X135663153Y-126490219D01*
X130895811Y-136157561D02*
X140581157Y-126472215D01*
D11*
X191003372Y-125000000D02*
X191008000Y-161798000D01*
D10*
X172200159Y-133883212D02*
X179543371Y-126540000D01*
X131022195Y-145816242D02*
X150332686Y-126505751D01*
X183749494Y-161213942D02*
X189402197Y-155565480D01*
X169132443Y-161204988D02*
X172069046Y-158268385D01*
X162491377Y-148458255D02*
X170942000Y-139954000D01*
X175358175Y-154979256D02*
X177825294Y-152512137D01*
X135196746Y-161156625D02*
X157614916Y-138738455D01*
X141164799Y-145444884D02*
X148360037Y-138148037D01*
D11*
X129349405Y-125000000D02*
X191003372Y-125000000D01*
D10*
X158488880Y-132984640D02*
X164967656Y-126505864D01*
X174078557Y-161144815D02*
X182702114Y-152521258D01*
D11*
X188749050Y-105632921D02*
X187796669Y-105632921D01*
X188939526Y-106204350D02*
X188272860Y-104204350D01*
X188272860Y-104204350D02*
X187606193Y-106204350D01*
X187225240Y-104204350D02*
X186082383Y-104204350D01*
X186653812Y-106204350D02*
X186653812Y-104204350D01*
X185606192Y-104204350D02*
X184272859Y-106204350D01*
X184272859Y-104204350D02*
X185606192Y-106204350D01*
X180844287Y-106013873D02*
X180939525Y-106109112D01*
X180939525Y-106109112D02*
X181225239Y-106204350D01*
X181225239Y-106204350D02*
X181415715Y-106204350D01*
X181415715Y-106204350D02*
X181701430Y-106109112D01*
X181701430Y-106109112D02*
X181891906Y-105918635D01*
X181891906Y-105918635D02*
X181987144Y-105728159D01*
X181987144Y-105728159D02*
X182082382Y-105347207D01*
X182082382Y-105347207D02*
X182082382Y-105061492D01*
X182082382Y-105061492D02*
X181987144Y-104680540D01*
X181987144Y-104680540D02*
X181891906Y-104490064D01*
X181891906Y-104490064D02*
X181701430Y-104299588D01*
X181701430Y-104299588D02*
X181415715Y-104204350D01*
X181415715Y-104204350D02*
X181225239Y-104204350D01*
X181225239Y-104204350D02*
X180939525Y-104299588D01*
X180939525Y-104299588D02*
X180844287Y-104394826D01*
X179701430Y-106204350D02*
X179891906Y-106109112D01*
X179891906Y-106109112D02*
X179987144Y-106013873D01*
X179987144Y-106013873D02*
X180082382Y-105823397D01*
X180082382Y-105823397D02*
X180082382Y-105251969D01*
X180082382Y-105251969D02*
X179987144Y-105061492D01*
X179987144Y-105061492D02*
X179891906Y-104966254D01*
X179891906Y-104966254D02*
X179701430Y-104871016D01*
X179701430Y-104871016D02*
X179415715Y-104871016D01*
X179415715Y-104871016D02*
X179225239Y-104966254D01*
X179225239Y-104966254D02*
X179130001Y-105061492D01*
X179130001Y-105061492D02*
X179034763Y-105251969D01*
X179034763Y-105251969D02*
X179034763Y-105823397D01*
X179034763Y-105823397D02*
X179130001Y-106013873D01*
X179130001Y-106013873D02*
X179225239Y-106109112D01*
X179225239Y-106109112D02*
X179415715Y-106204350D01*
X179415715Y-106204350D02*
X179701430Y-106204350D01*
X178177620Y-104871016D02*
X178177620Y-106204350D01*
X178177620Y-105061492D02*
X178082382Y-104966254D01*
X178082382Y-104966254D02*
X177891906Y-104871016D01*
X177891906Y-104871016D02*
X177606191Y-104871016D01*
X177606191Y-104871016D02*
X177415715Y-104966254D01*
X177415715Y-104966254D02*
X177320477Y-105156731D01*
X177320477Y-105156731D02*
X177320477Y-106204350D01*
X176558572Y-104871016D02*
X176082382Y-106204350D01*
X176082382Y-106204350D02*
X175606191Y-104871016D01*
X174082381Y-106109112D02*
X174272857Y-106204350D01*
X174272857Y-106204350D02*
X174653810Y-106204350D01*
X174653810Y-106204350D02*
X174844286Y-106109112D01*
X174844286Y-106109112D02*
X174939524Y-105918635D01*
X174939524Y-105918635D02*
X174939524Y-105156731D01*
X174939524Y-105156731D02*
X174844286Y-104966254D01*
X174844286Y-104966254D02*
X174653810Y-104871016D01*
X174653810Y-104871016D02*
X174272857Y-104871016D01*
X174272857Y-104871016D02*
X174082381Y-104966254D01*
X174082381Y-104966254D02*
X173987143Y-105156731D01*
X173987143Y-105156731D02*
X173987143Y-105347207D01*
X173987143Y-105347207D02*
X174939524Y-105537683D01*
X173130000Y-106204350D02*
X173130000Y-104871016D01*
X173130000Y-105251969D02*
X173034762Y-105061492D01*
X173034762Y-105061492D02*
X172939524Y-104966254D01*
X172939524Y-104966254D02*
X172749048Y-104871016D01*
X172749048Y-104871016D02*
X172558571Y-104871016D01*
X171987143Y-106109112D02*
X171796667Y-106204350D01*
X171796667Y-106204350D02*
X171415715Y-106204350D01*
X171415715Y-106204350D02*
X171225238Y-106109112D01*
X171225238Y-106109112D02*
X171130000Y-105918635D01*
X171130000Y-105918635D02*
X171130000Y-105823397D01*
X171130000Y-105823397D02*
X171225238Y-105632921D01*
X171225238Y-105632921D02*
X171415715Y-105537683D01*
X171415715Y-105537683D02*
X171701429Y-105537683D01*
X171701429Y-105537683D02*
X171891905Y-105442445D01*
X171891905Y-105442445D02*
X171987143Y-105251969D01*
X171987143Y-105251969D02*
X171987143Y-105156731D01*
X171987143Y-105156731D02*
X171891905Y-104966254D01*
X171891905Y-104966254D02*
X171701429Y-104871016D01*
X171701429Y-104871016D02*
X171415715Y-104871016D01*
X171415715Y-104871016D02*
X171225238Y-104966254D01*
X170272857Y-106204350D02*
X170272857Y-104871016D01*
X170272857Y-104204350D02*
X170368095Y-104299588D01*
X170368095Y-104299588D02*
X170272857Y-104394826D01*
X170272857Y-104394826D02*
X170177619Y-104299588D01*
X170177619Y-104299588D02*
X170272857Y-104204350D01*
X170272857Y-104204350D02*
X170272857Y-104394826D01*
X169034762Y-106204350D02*
X169225238Y-106109112D01*
X169225238Y-106109112D02*
X169320476Y-106013873D01*
X169320476Y-106013873D02*
X169415714Y-105823397D01*
X169415714Y-105823397D02*
X169415714Y-105251969D01*
X169415714Y-105251969D02*
X169320476Y-105061492D01*
X169320476Y-105061492D02*
X169225238Y-104966254D01*
X169225238Y-104966254D02*
X169034762Y-104871016D01*
X169034762Y-104871016D02*
X168749047Y-104871016D01*
X168749047Y-104871016D02*
X168558571Y-104966254D01*
X168558571Y-104966254D02*
X168463333Y-105061492D01*
X168463333Y-105061492D02*
X168368095Y-105251969D01*
X168368095Y-105251969D02*
X168368095Y-105823397D01*
X168368095Y-105823397D02*
X168463333Y-106013873D01*
X168463333Y-106013873D02*
X168558571Y-106109112D01*
X168558571Y-106109112D02*
X168749047Y-106204350D01*
X168749047Y-106204350D02*
X169034762Y-106204350D01*
X167510952Y-104871016D02*
X167510952Y-106204350D01*
X167510952Y-105061492D02*
X167415714Y-104966254D01*
X167415714Y-104966254D02*
X167225238Y-104871016D01*
X167225238Y-104871016D02*
X166939523Y-104871016D01*
X166939523Y-104871016D02*
X166749047Y-104966254D01*
X166749047Y-104966254D02*
X166653809Y-105156731D01*
X166653809Y-105156731D02*
X166653809Y-106204350D01*
X163510951Y-105156731D02*
X163225237Y-105251969D01*
X163225237Y-105251969D02*
X163129999Y-105347207D01*
X163129999Y-105347207D02*
X163034761Y-105537683D01*
X163034761Y-105537683D02*
X163034761Y-105823397D01*
X163034761Y-105823397D02*
X163129999Y-106013873D01*
X163129999Y-106013873D02*
X163225237Y-106109112D01*
X163225237Y-106109112D02*
X163415713Y-106204350D01*
X163415713Y-106204350D02*
X164177618Y-106204350D01*
X164177618Y-106204350D02*
X164177618Y-104204350D01*
X164177618Y-104204350D02*
X163510951Y-104204350D01*
X163510951Y-104204350D02*
X163320475Y-104299588D01*
X163320475Y-104299588D02*
X163225237Y-104394826D01*
X163225237Y-104394826D02*
X163129999Y-104585302D01*
X163129999Y-104585302D02*
X163129999Y-104775778D01*
X163129999Y-104775778D02*
X163225237Y-104966254D01*
X163225237Y-104966254D02*
X163320475Y-105061492D01*
X163320475Y-105061492D02*
X163510951Y-105156731D01*
X163510951Y-105156731D02*
X164177618Y-105156731D01*
X161891904Y-106204350D02*
X162082380Y-106109112D01*
X162082380Y-106109112D02*
X162177618Y-106013873D01*
X162177618Y-106013873D02*
X162272856Y-105823397D01*
X162272856Y-105823397D02*
X162272856Y-105251969D01*
X162272856Y-105251969D02*
X162177618Y-105061492D01*
X162177618Y-105061492D02*
X162082380Y-104966254D01*
X162082380Y-104966254D02*
X161891904Y-104871016D01*
X161891904Y-104871016D02*
X161606189Y-104871016D01*
X161606189Y-104871016D02*
X161415713Y-104966254D01*
X161415713Y-104966254D02*
X161320475Y-105061492D01*
X161320475Y-105061492D02*
X161225237Y-105251969D01*
X161225237Y-105251969D02*
X161225237Y-105823397D01*
X161225237Y-105823397D02*
X161320475Y-106013873D01*
X161320475Y-106013873D02*
X161415713Y-106109112D01*
X161415713Y-106109112D02*
X161606189Y-106204350D01*
X161606189Y-106204350D02*
X161891904Y-106204350D01*
X159510951Y-106204350D02*
X159510951Y-105156731D01*
X159510951Y-105156731D02*
X159606189Y-104966254D01*
X159606189Y-104966254D02*
X159796665Y-104871016D01*
X159796665Y-104871016D02*
X160177618Y-104871016D01*
X160177618Y-104871016D02*
X160368094Y-104966254D01*
X159510951Y-106109112D02*
X159701427Y-106204350D01*
X159701427Y-106204350D02*
X160177618Y-106204350D01*
X160177618Y-106204350D02*
X160368094Y-106109112D01*
X160368094Y-106109112D02*
X160463332Y-105918635D01*
X160463332Y-105918635D02*
X160463332Y-105728159D01*
X160463332Y-105728159D02*
X160368094Y-105537683D01*
X160368094Y-105537683D02*
X160177618Y-105442445D01*
X160177618Y-105442445D02*
X159701427Y-105442445D01*
X159701427Y-105442445D02*
X159510951Y-105347207D01*
X158558570Y-106204350D02*
X158558570Y-104871016D01*
X158558570Y-105251969D02*
X158463332Y-105061492D01*
X158463332Y-105061492D02*
X158368094Y-104966254D01*
X158368094Y-104966254D02*
X158177618Y-104871016D01*
X158177618Y-104871016D02*
X157987141Y-104871016D01*
X156463332Y-106204350D02*
X156463332Y-104204350D01*
X156463332Y-106109112D02*
X156653808Y-106204350D01*
X156653808Y-106204350D02*
X157034761Y-106204350D01*
X157034761Y-106204350D02*
X157225237Y-106109112D01*
X157225237Y-106109112D02*
X157320475Y-106013873D01*
X157320475Y-106013873D02*
X157415713Y-105823397D01*
X157415713Y-105823397D02*
X157415713Y-105251969D01*
X157415713Y-105251969D02*
X157320475Y-105061492D01*
X157320475Y-105061492D02*
X157225237Y-104966254D01*
X157225237Y-104966254D02*
X157034761Y-104871016D01*
X157034761Y-104871016D02*
X156653808Y-104871016D01*
X156653808Y-104871016D02*
X156463332Y-104966254D01*
X154272855Y-104871016D02*
X153510951Y-104871016D01*
X153987141Y-106204350D02*
X153987141Y-104490064D01*
X153987141Y-104490064D02*
X153891903Y-104299588D01*
X153891903Y-104299588D02*
X153701427Y-104204350D01*
X153701427Y-104204350D02*
X153510951Y-104204350D01*
X152558570Y-106204350D02*
X152749046Y-106109112D01*
X152749046Y-106109112D02*
X152844284Y-106013873D01*
X152844284Y-106013873D02*
X152939522Y-105823397D01*
X152939522Y-105823397D02*
X152939522Y-105251969D01*
X152939522Y-105251969D02*
X152844284Y-105061492D01*
X152844284Y-105061492D02*
X152749046Y-104966254D01*
X152749046Y-104966254D02*
X152558570Y-104871016D01*
X152558570Y-104871016D02*
X152272855Y-104871016D01*
X152272855Y-104871016D02*
X152082379Y-104966254D01*
X152082379Y-104966254D02*
X151987141Y-105061492D01*
X151987141Y-105061492D02*
X151891903Y-105251969D01*
X151891903Y-105251969D02*
X151891903Y-105823397D01*
X151891903Y-105823397D02*
X151987141Y-106013873D01*
X151987141Y-106013873D02*
X152082379Y-106109112D01*
X152082379Y-106109112D02*
X152272855Y-106204350D01*
X152272855Y-106204350D02*
X152558570Y-106204350D01*
X151034760Y-106204350D02*
X151034760Y-104871016D01*
X151034760Y-105251969D02*
X150939522Y-105061492D01*
X150939522Y-105061492D02*
X150844284Y-104966254D01*
X150844284Y-104966254D02*
X150653808Y-104871016D01*
X150653808Y-104871016D02*
X150463331Y-104871016D01*
X148272855Y-106204350D02*
X148272855Y-104204350D01*
X148272855Y-104204350D02*
X147796665Y-104204350D01*
X147796665Y-104204350D02*
X147510950Y-104299588D01*
X147510950Y-104299588D02*
X147320474Y-104490064D01*
X147320474Y-104490064D02*
X147225236Y-104680540D01*
X147225236Y-104680540D02*
X147129998Y-105061492D01*
X147129998Y-105061492D02*
X147129998Y-105347207D01*
X147129998Y-105347207D02*
X147225236Y-105728159D01*
X147225236Y-105728159D02*
X147320474Y-105918635D01*
X147320474Y-105918635D02*
X147510950Y-106109112D01*
X147510950Y-106109112D02*
X147796665Y-106204350D01*
X147796665Y-106204350D02*
X148272855Y-106204350D01*
X145510950Y-106109112D02*
X145701426Y-106204350D01*
X145701426Y-106204350D02*
X146082379Y-106204350D01*
X146082379Y-106204350D02*
X146272855Y-106109112D01*
X146272855Y-106109112D02*
X146368093Y-105918635D01*
X146368093Y-105918635D02*
X146368093Y-105156731D01*
X146368093Y-105156731D02*
X146272855Y-104966254D01*
X146272855Y-104966254D02*
X146082379Y-104871016D01*
X146082379Y-104871016D02*
X145701426Y-104871016D01*
X145701426Y-104871016D02*
X145510950Y-104966254D01*
X145510950Y-104966254D02*
X145415712Y-105156731D01*
X145415712Y-105156731D02*
X145415712Y-105347207D01*
X145415712Y-105347207D02*
X146368093Y-105537683D01*
X144272855Y-106204350D02*
X144463331Y-106109112D01*
X144463331Y-106109112D02*
X144558569Y-105918635D01*
X144558569Y-105918635D02*
X144558569Y-104204350D01*
X143796664Y-104871016D02*
X143034760Y-104871016D01*
X143510950Y-104204350D02*
X143510950Y-105918635D01*
X143510950Y-105918635D02*
X143415712Y-106109112D01*
X143415712Y-106109112D02*
X143225236Y-106204350D01*
X143225236Y-106204350D02*
X143034760Y-106204350D01*
X141510950Y-106204350D02*
X141510950Y-105156731D01*
X141510950Y-105156731D02*
X141606188Y-104966254D01*
X141606188Y-104966254D02*
X141796664Y-104871016D01*
X141796664Y-104871016D02*
X142177617Y-104871016D01*
X142177617Y-104871016D02*
X142368093Y-104966254D01*
X141510950Y-106109112D02*
X141701426Y-106204350D01*
X141701426Y-106204350D02*
X142177617Y-106204350D01*
X142177617Y-106204350D02*
X142368093Y-106109112D01*
X142368093Y-106109112D02*
X142463331Y-105918635D01*
X142463331Y-105918635D02*
X142463331Y-105728159D01*
X142463331Y-105728159D02*
X142368093Y-105537683D01*
X142368093Y-105537683D02*
X142177617Y-105442445D01*
X142177617Y-105442445D02*
X141701426Y-105442445D01*
X141701426Y-105442445D02*
X141510950Y-105347207D01*
X139129997Y-106109112D02*
X138844283Y-106204350D01*
X138844283Y-106204350D02*
X138368092Y-106204350D01*
X138368092Y-106204350D02*
X138177616Y-106109112D01*
X138177616Y-106109112D02*
X138082378Y-106013873D01*
X138082378Y-106013873D02*
X137987140Y-105823397D01*
X137987140Y-105823397D02*
X137987140Y-105632921D01*
X137987140Y-105632921D02*
X138082378Y-105442445D01*
X138082378Y-105442445D02*
X138177616Y-105347207D01*
X138177616Y-105347207D02*
X138368092Y-105251969D01*
X138368092Y-105251969D02*
X138749045Y-105156731D01*
X138749045Y-105156731D02*
X138939521Y-105061492D01*
X138939521Y-105061492D02*
X139034759Y-104966254D01*
X139034759Y-104966254D02*
X139129997Y-104775778D01*
X139129997Y-104775778D02*
X139129997Y-104585302D01*
X139129997Y-104585302D02*
X139034759Y-104394826D01*
X139034759Y-104394826D02*
X138939521Y-104299588D01*
X138939521Y-104299588D02*
X138749045Y-104204350D01*
X138749045Y-104204350D02*
X138272854Y-104204350D01*
X138272854Y-104204350D02*
X137987140Y-104299588D01*
X137129997Y-106204350D02*
X137129997Y-104204350D01*
X137129997Y-104204350D02*
X136463330Y-105632921D01*
X136463330Y-105632921D02*
X135796664Y-104204350D01*
X135796664Y-104204350D02*
X135796664Y-106204350D01*
X134844283Y-106204350D02*
X134844283Y-104204350D01*
X134844283Y-104204350D02*
X134082378Y-104204350D01*
X134082378Y-104204350D02*
X133891902Y-104299588D01*
X133891902Y-104299588D02*
X133796664Y-104394826D01*
X133796664Y-104394826D02*
X133701426Y-104585302D01*
X133701426Y-104585302D02*
X133701426Y-104871016D01*
X133701426Y-104871016D02*
X133796664Y-105061492D01*
X133796664Y-105061492D02*
X133891902Y-105156731D01*
X133891902Y-105156731D02*
X134082378Y-105251969D01*
X134082378Y-105251969D02*
X134844283Y-105251969D01*
X132844283Y-105442445D02*
X131320474Y-105442445D01*
X130463331Y-104394826D02*
X130368093Y-104299588D01*
X130368093Y-104299588D02*
X130177617Y-104204350D01*
X130177617Y-104204350D02*
X129701426Y-104204350D01*
X129701426Y-104204350D02*
X129510950Y-104299588D01*
X129510950Y-104299588D02*
X129415712Y-104394826D01*
X129415712Y-104394826D02*
X129320474Y-104585302D01*
X129320474Y-104585302D02*
X129320474Y-104775778D01*
X129320474Y-104775778D02*
X129415712Y-105061492D01*
X129415712Y-105061492D02*
X130558569Y-106204350D01*
X130558569Y-106204350D02*
X129320474Y-106204350D01*
X128558569Y-104394826D02*
X128463331Y-104299588D01*
X128463331Y-104299588D02*
X128272855Y-104204350D01*
X128272855Y-104204350D02*
X127796664Y-104204350D01*
X127796664Y-104204350D02*
X127606188Y-104299588D01*
X127606188Y-104299588D02*
X127510950Y-104394826D01*
X127510950Y-104394826D02*
X127415712Y-104585302D01*
X127415712Y-104585302D02*
X127415712Y-104775778D01*
X127415712Y-104775778D02*
X127510950Y-105061492D01*
X127510950Y-105061492D02*
X128653807Y-106204350D01*
X128653807Y-106204350D02*
X127415712Y-106204350D01*
X126177617Y-104204350D02*
X125987140Y-104204350D01*
X125987140Y-104204350D02*
X125796664Y-104299588D01*
X125796664Y-104299588D02*
X125701426Y-104394826D01*
X125701426Y-104394826D02*
X125606188Y-104585302D01*
X125606188Y-104585302D02*
X125510950Y-104966254D01*
X125510950Y-104966254D02*
X125510950Y-105442445D01*
X125510950Y-105442445D02*
X125606188Y-105823397D01*
X125606188Y-105823397D02*
X125701426Y-106013873D01*
X125701426Y-106013873D02*
X125796664Y-106109112D01*
X125796664Y-106109112D02*
X125987140Y-106204350D01*
X125987140Y-106204350D02*
X126177617Y-106204350D01*
X126177617Y-106204350D02*
X126368093Y-106109112D01*
X126368093Y-106109112D02*
X126463331Y-106013873D01*
X126463331Y-106013873D02*
X126558569Y-105823397D01*
X126558569Y-105823397D02*
X126653807Y-105442445D01*
X126653807Y-105442445D02*
X126653807Y-104966254D01*
X126653807Y-104966254D02*
X126558569Y-104585302D01*
X126558569Y-104585302D02*
X126463331Y-104394826D01*
X126463331Y-104394826D02*
X126368093Y-104299588D01*
X126368093Y-104299588D02*
X126177617Y-104204350D01*
X124653807Y-106204350D02*
X124653807Y-104204350D01*
X124653807Y-104204350D02*
X124177617Y-104204350D01*
X124177617Y-104204350D02*
X123891902Y-104299588D01*
X123891902Y-104299588D02*
X123701426Y-104490064D01*
X123701426Y-104490064D02*
X123606188Y-104680540D01*
X123606188Y-104680540D02*
X123510950Y-105061492D01*
X123510950Y-105061492D02*
X123510950Y-105347207D01*
X123510950Y-105347207D02*
X123606188Y-105728159D01*
X123606188Y-105728159D02*
X123701426Y-105918635D01*
X123701426Y-105918635D02*
X123891902Y-106109112D01*
X123891902Y-106109112D02*
X124177617Y-106204350D01*
X124177617Y-106204350D02*
X124653807Y-106204350D01*
X121987140Y-105156731D02*
X121701426Y-105251969D01*
X121701426Y-105251969D02*
X121606188Y-105347207D01*
X121606188Y-105347207D02*
X121510950Y-105537683D01*
X121510950Y-105537683D02*
X121510950Y-105823397D01*
X121510950Y-105823397D02*
X121606188Y-106013873D01*
X121606188Y-106013873D02*
X121701426Y-106109112D01*
X121701426Y-106109112D02*
X121891902Y-106204350D01*
X121891902Y-106204350D02*
X122653807Y-106204350D01*
X122653807Y-106204350D02*
X122653807Y-104204350D01*
X122653807Y-104204350D02*
X121987140Y-104204350D01*
X121987140Y-104204350D02*
X121796664Y-104299588D01*
X121796664Y-104299588D02*
X121701426Y-104394826D01*
X121701426Y-104394826D02*
X121606188Y-104585302D01*
X121606188Y-104585302D02*
X121606188Y-104775778D01*
X121606188Y-104775778D02*
X121701426Y-104966254D01*
X121701426Y-104966254D02*
X121796664Y-105061492D01*
X121796664Y-105061492D02*
X121987140Y-105156731D01*
X121987140Y-105156731D02*
X122653807Y-105156731D01*
X119415711Y-104204350D02*
X118749045Y-106204350D01*
X118749045Y-106204350D02*
X118082378Y-104204350D01*
X116368092Y-106204350D02*
X117510949Y-106204350D01*
X116939521Y-106204350D02*
X116939521Y-104204350D01*
X116939521Y-104204350D02*
X117129997Y-104490064D01*
X117129997Y-104490064D02*
X117320473Y-104680540D01*
X117320473Y-104680540D02*
X117510949Y-104775778D01*
X115510949Y-106013873D02*
X115415711Y-106109112D01*
X115415711Y-106109112D02*
X115510949Y-106204350D01*
X115510949Y-106204350D02*
X115606187Y-106109112D01*
X115606187Y-106109112D02*
X115510949Y-106013873D01*
X115510949Y-106013873D02*
X115510949Y-106204350D01*
X114653806Y-104394826D02*
X114558568Y-104299588D01*
X114558568Y-104299588D02*
X114368092Y-104204350D01*
X114368092Y-104204350D02*
X113891901Y-104204350D01*
X113891901Y-104204350D02*
X113701425Y-104299588D01*
X113701425Y-104299588D02*
X113606187Y-104394826D01*
X113606187Y-104394826D02*
X113510949Y-104585302D01*
X113510949Y-104585302D02*
X113510949Y-104775778D01*
X113510949Y-104775778D02*
X113606187Y-105061492D01*
X113606187Y-105061492D02*
X114749044Y-106204350D01*
X114749044Y-106204350D02*
X113510949Y-106204350D01*
X184987144Y-108090904D02*
X184987144Y-109709952D01*
X184987144Y-109709952D02*
X185082382Y-109900428D01*
X185082382Y-109900428D02*
X185177620Y-109995666D01*
X185177620Y-109995666D02*
X185368097Y-110090904D01*
X185368097Y-110090904D02*
X185653811Y-110090904D01*
X185653811Y-110090904D02*
X185844287Y-109995666D01*
X184987144Y-109329000D02*
X185177620Y-109424238D01*
X185177620Y-109424238D02*
X185558573Y-109424238D01*
X185558573Y-109424238D02*
X185749049Y-109329000D01*
X185749049Y-109329000D02*
X185844287Y-109233761D01*
X185844287Y-109233761D02*
X185939525Y-109043285D01*
X185939525Y-109043285D02*
X185939525Y-108471857D01*
X185939525Y-108471857D02*
X185844287Y-108281380D01*
X185844287Y-108281380D02*
X185749049Y-108186142D01*
X185749049Y-108186142D02*
X185558573Y-108090904D01*
X185558573Y-108090904D02*
X185177620Y-108090904D01*
X185177620Y-108090904D02*
X184987144Y-108186142D01*
X184034763Y-109424238D02*
X184034763Y-108090904D01*
X184034763Y-107424238D02*
X184130001Y-107519476D01*
X184130001Y-107519476D02*
X184034763Y-107614714D01*
X184034763Y-107614714D02*
X183939525Y-107519476D01*
X183939525Y-107519476D02*
X184034763Y-107424238D01*
X184034763Y-107424238D02*
X184034763Y-107614714D01*
X183368096Y-108090904D02*
X182606192Y-108090904D01*
X183082382Y-107424238D02*
X183082382Y-109138523D01*
X183082382Y-109138523D02*
X182987144Y-109329000D01*
X182987144Y-109329000D02*
X182796668Y-109424238D01*
X182796668Y-109424238D02*
X182606192Y-109424238D01*
X181939525Y-109424238D02*
X181939525Y-107424238D01*
X181082382Y-109424238D02*
X181082382Y-108376619D01*
X181082382Y-108376619D02*
X181177620Y-108186142D01*
X181177620Y-108186142D02*
X181368096Y-108090904D01*
X181368096Y-108090904D02*
X181653811Y-108090904D01*
X181653811Y-108090904D02*
X181844287Y-108186142D01*
X181844287Y-108186142D02*
X181939525Y-108281380D01*
X179272858Y-108090904D02*
X179272858Y-109424238D01*
X180130001Y-108090904D02*
X180130001Y-109138523D01*
X180130001Y-109138523D02*
X180034763Y-109329000D01*
X180034763Y-109329000D02*
X179844287Y-109424238D01*
X179844287Y-109424238D02*
X179558572Y-109424238D01*
X179558572Y-109424238D02*
X179368096Y-109329000D01*
X179368096Y-109329000D02*
X179272858Y-109233761D01*
X178320477Y-109424238D02*
X178320477Y-107424238D01*
X178320477Y-108186142D02*
X178130001Y-108090904D01*
X178130001Y-108090904D02*
X177749048Y-108090904D01*
X177749048Y-108090904D02*
X177558572Y-108186142D01*
X177558572Y-108186142D02*
X177463334Y-108281380D01*
X177463334Y-108281380D02*
X177368096Y-108471857D01*
X177368096Y-108471857D02*
X177368096Y-109043285D01*
X177368096Y-109043285D02*
X177463334Y-109233761D01*
X177463334Y-109233761D02*
X177558572Y-109329000D01*
X177558572Y-109329000D02*
X177749048Y-109424238D01*
X177749048Y-109424238D02*
X178130001Y-109424238D01*
X178130001Y-109424238D02*
X178320477Y-109329000D01*
X176510953Y-109233761D02*
X176415715Y-109329000D01*
X176415715Y-109329000D02*
X176510953Y-109424238D01*
X176510953Y-109424238D02*
X176606191Y-109329000D01*
X176606191Y-109329000D02*
X176510953Y-109233761D01*
X176510953Y-109233761D02*
X176510953Y-109424238D01*
X174701429Y-109329000D02*
X174891905Y-109424238D01*
X174891905Y-109424238D02*
X175272858Y-109424238D01*
X175272858Y-109424238D02*
X175463334Y-109329000D01*
X175463334Y-109329000D02*
X175558572Y-109233761D01*
X175558572Y-109233761D02*
X175653810Y-109043285D01*
X175653810Y-109043285D02*
X175653810Y-108471857D01*
X175653810Y-108471857D02*
X175558572Y-108281380D01*
X175558572Y-108281380D02*
X175463334Y-108186142D01*
X175463334Y-108186142D02*
X175272858Y-108090904D01*
X175272858Y-108090904D02*
X174891905Y-108090904D01*
X174891905Y-108090904D02*
X174701429Y-108186142D01*
X173558572Y-109424238D02*
X173749048Y-109329000D01*
X173749048Y-109329000D02*
X173844286Y-109233761D01*
X173844286Y-109233761D02*
X173939524Y-109043285D01*
X173939524Y-109043285D02*
X173939524Y-108471857D01*
X173939524Y-108471857D02*
X173844286Y-108281380D01*
X173844286Y-108281380D02*
X173749048Y-108186142D01*
X173749048Y-108186142D02*
X173558572Y-108090904D01*
X173558572Y-108090904D02*
X173272857Y-108090904D01*
X173272857Y-108090904D02*
X173082381Y-108186142D01*
X173082381Y-108186142D02*
X172987143Y-108281380D01*
X172987143Y-108281380D02*
X172891905Y-108471857D01*
X172891905Y-108471857D02*
X172891905Y-109043285D01*
X172891905Y-109043285D02*
X172987143Y-109233761D01*
X172987143Y-109233761D02*
X173082381Y-109329000D01*
X173082381Y-109329000D02*
X173272857Y-109424238D01*
X173272857Y-109424238D02*
X173558572Y-109424238D01*
X172034762Y-109424238D02*
X172034762Y-108090904D01*
X172034762Y-108281380D02*
X171939524Y-108186142D01*
X171939524Y-108186142D02*
X171749048Y-108090904D01*
X171749048Y-108090904D02*
X171463333Y-108090904D01*
X171463333Y-108090904D02*
X171272857Y-108186142D01*
X171272857Y-108186142D02*
X171177619Y-108376619D01*
X171177619Y-108376619D02*
X171177619Y-109424238D01*
X171177619Y-108376619D02*
X171082381Y-108186142D01*
X171082381Y-108186142D02*
X170891905Y-108090904D01*
X170891905Y-108090904D02*
X170606191Y-108090904D01*
X170606191Y-108090904D02*
X170415714Y-108186142D01*
X170415714Y-108186142D02*
X170320476Y-108376619D01*
X170320476Y-108376619D02*
X170320476Y-109424238D01*
X167939524Y-107329000D02*
X169653809Y-109900428D01*
X166415714Y-109329000D02*
X166606190Y-109424238D01*
X166606190Y-109424238D02*
X166987143Y-109424238D01*
X166987143Y-109424238D02*
X167177619Y-109329000D01*
X167177619Y-109329000D02*
X167272857Y-109233761D01*
X167272857Y-109233761D02*
X167368095Y-109043285D01*
X167368095Y-109043285D02*
X167368095Y-108471857D01*
X167368095Y-108471857D02*
X167272857Y-108281380D01*
X167272857Y-108281380D02*
X167177619Y-108186142D01*
X167177619Y-108186142D02*
X166987143Y-108090904D01*
X166987143Y-108090904D02*
X166606190Y-108090904D01*
X166606190Y-108090904D02*
X166415714Y-108186142D01*
X165558571Y-109424238D02*
X165558571Y-108090904D01*
X165558571Y-108471857D02*
X165463333Y-108281380D01*
X165463333Y-108281380D02*
X165368095Y-108186142D01*
X165368095Y-108186142D02*
X165177619Y-108090904D01*
X165177619Y-108090904D02*
X164987142Y-108090904D01*
X164034762Y-109424238D02*
X164225238Y-109329000D01*
X164225238Y-109329000D02*
X164320476Y-109233761D01*
X164320476Y-109233761D02*
X164415714Y-109043285D01*
X164415714Y-109043285D02*
X164415714Y-108471857D01*
X164415714Y-108471857D02*
X164320476Y-108281380D01*
X164320476Y-108281380D02*
X164225238Y-108186142D01*
X164225238Y-108186142D02*
X164034762Y-108090904D01*
X164034762Y-108090904D02*
X163749047Y-108090904D01*
X163749047Y-108090904D02*
X163558571Y-108186142D01*
X163558571Y-108186142D02*
X163463333Y-108281380D01*
X163463333Y-108281380D02*
X163368095Y-108471857D01*
X163368095Y-108471857D02*
X163368095Y-109043285D01*
X163368095Y-109043285D02*
X163463333Y-109233761D01*
X163463333Y-109233761D02*
X163558571Y-109329000D01*
X163558571Y-109329000D02*
X163749047Y-109424238D01*
X163749047Y-109424238D02*
X164034762Y-109424238D01*
X162510952Y-109424238D02*
X162510952Y-108090904D01*
X162510952Y-107424238D02*
X162606190Y-107519476D01*
X162606190Y-107519476D02*
X162510952Y-107614714D01*
X162510952Y-107614714D02*
X162415714Y-107519476D01*
X162415714Y-107519476D02*
X162510952Y-107424238D01*
X162510952Y-107424238D02*
X162510952Y-107614714D01*
X161653809Y-109329000D02*
X161463333Y-109424238D01*
X161463333Y-109424238D02*
X161082381Y-109424238D01*
X161082381Y-109424238D02*
X160891904Y-109329000D01*
X160891904Y-109329000D02*
X160796666Y-109138523D01*
X160796666Y-109138523D02*
X160796666Y-109043285D01*
X160796666Y-109043285D02*
X160891904Y-108852809D01*
X160891904Y-108852809D02*
X161082381Y-108757571D01*
X161082381Y-108757571D02*
X161368095Y-108757571D01*
X161368095Y-108757571D02*
X161558571Y-108662333D01*
X161558571Y-108662333D02*
X161653809Y-108471857D01*
X161653809Y-108471857D02*
X161653809Y-108376619D01*
X161653809Y-108376619D02*
X161558571Y-108186142D01*
X161558571Y-108186142D02*
X161368095Y-108090904D01*
X161368095Y-108090904D02*
X161082381Y-108090904D01*
X161082381Y-108090904D02*
X160891904Y-108186142D01*
X160034761Y-109329000D02*
X159844285Y-109424238D01*
X159844285Y-109424238D02*
X159463333Y-109424238D01*
X159463333Y-109424238D02*
X159272856Y-109329000D01*
X159272856Y-109329000D02*
X159177618Y-109138523D01*
X159177618Y-109138523D02*
X159177618Y-109043285D01*
X159177618Y-109043285D02*
X159272856Y-108852809D01*
X159272856Y-108852809D02*
X159463333Y-108757571D01*
X159463333Y-108757571D02*
X159749047Y-108757571D01*
X159749047Y-108757571D02*
X159939523Y-108662333D01*
X159939523Y-108662333D02*
X160034761Y-108471857D01*
X160034761Y-108471857D02*
X160034761Y-108376619D01*
X160034761Y-108376619D02*
X159939523Y-108186142D01*
X159939523Y-108186142D02*
X159749047Y-108090904D01*
X159749047Y-108090904D02*
X159463333Y-108090904D01*
X159463333Y-108090904D02*
X159272856Y-108186142D01*
X157463332Y-109424238D02*
X157463332Y-108376619D01*
X157463332Y-108376619D02*
X157558570Y-108186142D01*
X157558570Y-108186142D02*
X157749046Y-108090904D01*
X157749046Y-108090904D02*
X158129999Y-108090904D01*
X158129999Y-108090904D02*
X158320475Y-108186142D01*
X157463332Y-109329000D02*
X157653808Y-109424238D01*
X157653808Y-109424238D02*
X158129999Y-109424238D01*
X158129999Y-109424238D02*
X158320475Y-109329000D01*
X158320475Y-109329000D02*
X158415713Y-109138523D01*
X158415713Y-109138523D02*
X158415713Y-108948047D01*
X158415713Y-108948047D02*
X158320475Y-108757571D01*
X158320475Y-108757571D02*
X158129999Y-108662333D01*
X158129999Y-108662333D02*
X157653808Y-108662333D01*
X157653808Y-108662333D02*
X157463332Y-108567095D01*
X156510951Y-108090904D02*
X156510951Y-109424238D01*
X156510951Y-108281380D02*
X156415713Y-108186142D01*
X156415713Y-108186142D02*
X156225237Y-108090904D01*
X156225237Y-108090904D02*
X155939522Y-108090904D01*
X155939522Y-108090904D02*
X155749046Y-108186142D01*
X155749046Y-108186142D02*
X155653808Y-108376619D01*
X155653808Y-108376619D02*
X155653808Y-109424238D01*
X154987141Y-108090904D02*
X154225237Y-108090904D01*
X154701427Y-107424238D02*
X154701427Y-109138523D01*
X154701427Y-109138523D02*
X154606189Y-109329000D01*
X154606189Y-109329000D02*
X154415713Y-109424238D01*
X154415713Y-109424238D02*
X154225237Y-109424238D01*
X153558570Y-109424238D02*
X153558570Y-107424238D01*
X153368094Y-108662333D02*
X152796665Y-109424238D01*
X152796665Y-108090904D02*
X153558570Y-108852809D01*
X151939522Y-109424238D02*
X151939522Y-108090904D01*
X151939522Y-107424238D02*
X152034760Y-107519476D01*
X152034760Y-107519476D02*
X151939522Y-107614714D01*
X151939522Y-107614714D02*
X151844284Y-107519476D01*
X151844284Y-107519476D02*
X151939522Y-107424238D01*
X151939522Y-107424238D02*
X151939522Y-107614714D01*
X150987141Y-108090904D02*
X150987141Y-109424238D01*
X150987141Y-108281380D02*
X150891903Y-108186142D01*
X150891903Y-108186142D02*
X150701427Y-108090904D01*
X150701427Y-108090904D02*
X150415712Y-108090904D01*
X150415712Y-108090904D02*
X150225236Y-108186142D01*
X150225236Y-108186142D02*
X150129998Y-108376619D01*
X150129998Y-108376619D02*
X150129998Y-109424238D01*
X148320474Y-108090904D02*
X148320474Y-109709952D01*
X148320474Y-109709952D02*
X148415712Y-109900428D01*
X148415712Y-109900428D02*
X148510950Y-109995666D01*
X148510950Y-109995666D02*
X148701427Y-110090904D01*
X148701427Y-110090904D02*
X148987141Y-110090904D01*
X148987141Y-110090904D02*
X149177617Y-109995666D01*
X148320474Y-109329000D02*
X148510950Y-109424238D01*
X148510950Y-109424238D02*
X148891903Y-109424238D01*
X148891903Y-109424238D02*
X149082379Y-109329000D01*
X149082379Y-109329000D02*
X149177617Y-109233761D01*
X149177617Y-109233761D02*
X149272855Y-109043285D01*
X149272855Y-109043285D02*
X149272855Y-108471857D01*
X149272855Y-108471857D02*
X149177617Y-108281380D01*
X149177617Y-108281380D02*
X149082379Y-108186142D01*
X149082379Y-108186142D02*
X148891903Y-108090904D01*
X148891903Y-108090904D02*
X148510950Y-108090904D01*
X148510950Y-108090904D02*
X148320474Y-108186142D01*
X145939522Y-107329000D02*
X147653807Y-109900428D01*
X144987141Y-108281380D02*
X145177617Y-108186142D01*
X145177617Y-108186142D02*
X145272855Y-108090904D01*
X145272855Y-108090904D02*
X145368093Y-107900428D01*
X145368093Y-107900428D02*
X145368093Y-107805190D01*
X145368093Y-107805190D02*
X145272855Y-107614714D01*
X145272855Y-107614714D02*
X145177617Y-107519476D01*
X145177617Y-107519476D02*
X144987141Y-107424238D01*
X144987141Y-107424238D02*
X144606188Y-107424238D01*
X144606188Y-107424238D02*
X144415712Y-107519476D01*
X144415712Y-107519476D02*
X144320474Y-107614714D01*
X144320474Y-107614714D02*
X144225236Y-107805190D01*
X144225236Y-107805190D02*
X144225236Y-107900428D01*
X144225236Y-107900428D02*
X144320474Y-108090904D01*
X144320474Y-108090904D02*
X144415712Y-108186142D01*
X144415712Y-108186142D02*
X144606188Y-108281380D01*
X144606188Y-108281380D02*
X144987141Y-108281380D01*
X144987141Y-108281380D02*
X145177617Y-108376619D01*
X145177617Y-108376619D02*
X145272855Y-108471857D01*
X145272855Y-108471857D02*
X145368093Y-108662333D01*
X145368093Y-108662333D02*
X145368093Y-109043285D01*
X145368093Y-109043285D02*
X145272855Y-109233761D01*
X145272855Y-109233761D02*
X145177617Y-109329000D01*
X145177617Y-109329000D02*
X144987141Y-109424238D01*
X144987141Y-109424238D02*
X144606188Y-109424238D01*
X144606188Y-109424238D02*
X144415712Y-109329000D01*
X144415712Y-109329000D02*
X144320474Y-109233761D01*
X144320474Y-109233761D02*
X144225236Y-109043285D01*
X144225236Y-109043285D02*
X144225236Y-108662333D01*
X144225236Y-108662333D02*
X144320474Y-108471857D01*
X144320474Y-108471857D02*
X144415712Y-108376619D01*
X144415712Y-108376619D02*
X144606188Y-108281380D01*
X142510950Y-108090904D02*
X142510950Y-109424238D01*
X142987141Y-107329000D02*
X143463331Y-108757571D01*
X143463331Y-108757571D02*
X142225236Y-108757571D01*
X141082379Y-107424238D02*
X140891902Y-107424238D01*
X140891902Y-107424238D02*
X140701426Y-107519476D01*
X140701426Y-107519476D02*
X140606188Y-107614714D01*
X140606188Y-107614714D02*
X140510950Y-107805190D01*
X140510950Y-107805190D02*
X140415712Y-108186142D01*
X140415712Y-108186142D02*
X140415712Y-108662333D01*
X140415712Y-108662333D02*
X140510950Y-109043285D01*
X140510950Y-109043285D02*
X140606188Y-109233761D01*
X140606188Y-109233761D02*
X140701426Y-109329000D01*
X140701426Y-109329000D02*
X140891902Y-109424238D01*
X140891902Y-109424238D02*
X141082379Y-109424238D01*
X141082379Y-109424238D02*
X141272855Y-109329000D01*
X141272855Y-109329000D02*
X141368093Y-109233761D01*
X141368093Y-109233761D02*
X141463331Y-109043285D01*
X141463331Y-109043285D02*
X141558569Y-108662333D01*
X141558569Y-108662333D02*
X141558569Y-108186142D01*
X141558569Y-108186142D02*
X141463331Y-107805190D01*
X141463331Y-107805190D02*
X141368093Y-107614714D01*
X141368093Y-107614714D02*
X141272855Y-107519476D01*
X141272855Y-107519476D02*
X141082379Y-107424238D01*
X139653807Y-108852809D02*
X138701426Y-108852809D01*
X139844283Y-109424238D02*
X139177617Y-107424238D01*
X139177617Y-107424238D02*
X138510950Y-109424238D01*
X138129997Y-107424238D02*
X137463331Y-109424238D01*
X137463331Y-109424238D02*
X136796664Y-107424238D01*
X136129997Y-108662333D02*
X134606188Y-108662333D01*
X133749045Y-109329000D02*
X133463331Y-109424238D01*
X133463331Y-109424238D02*
X132987140Y-109424238D01*
X132987140Y-109424238D02*
X132796664Y-109329000D01*
X132796664Y-109329000D02*
X132701426Y-109233761D01*
X132701426Y-109233761D02*
X132606188Y-109043285D01*
X132606188Y-109043285D02*
X132606188Y-108852809D01*
X132606188Y-108852809D02*
X132701426Y-108662333D01*
X132701426Y-108662333D02*
X132796664Y-108567095D01*
X132796664Y-108567095D02*
X132987140Y-108471857D01*
X132987140Y-108471857D02*
X133368093Y-108376619D01*
X133368093Y-108376619D02*
X133558569Y-108281380D01*
X133558569Y-108281380D02*
X133653807Y-108186142D01*
X133653807Y-108186142D02*
X133749045Y-107995666D01*
X133749045Y-107995666D02*
X133749045Y-107805190D01*
X133749045Y-107805190D02*
X133653807Y-107614714D01*
X133653807Y-107614714D02*
X133558569Y-107519476D01*
X133558569Y-107519476D02*
X133368093Y-107424238D01*
X133368093Y-107424238D02*
X132891902Y-107424238D01*
X132891902Y-107424238D02*
X132606188Y-107519476D01*
X132034759Y-108090904D02*
X131272855Y-108090904D01*
X131749045Y-107424238D02*
X131749045Y-109138523D01*
X131749045Y-109138523D02*
X131653807Y-109329000D01*
X131653807Y-109329000D02*
X131463331Y-109424238D01*
X131463331Y-109424238D02*
X131272855Y-109424238D01*
X129844283Y-109329000D02*
X130034759Y-109424238D01*
X130034759Y-109424238D02*
X130415712Y-109424238D01*
X130415712Y-109424238D02*
X130606188Y-109329000D01*
X130606188Y-109329000D02*
X130701426Y-109138523D01*
X130701426Y-109138523D02*
X130701426Y-108376619D01*
X130701426Y-108376619D02*
X130606188Y-108186142D01*
X130606188Y-108186142D02*
X130415712Y-108090904D01*
X130415712Y-108090904D02*
X130034759Y-108090904D01*
X130034759Y-108090904D02*
X129844283Y-108186142D01*
X129844283Y-108186142D02*
X129749045Y-108376619D01*
X129749045Y-108376619D02*
X129749045Y-108567095D01*
X129749045Y-108567095D02*
X130701426Y-108757571D01*
X128034759Y-109424238D02*
X128034759Y-108376619D01*
X128034759Y-108376619D02*
X128129997Y-108186142D01*
X128129997Y-108186142D02*
X128320473Y-108090904D01*
X128320473Y-108090904D02*
X128701426Y-108090904D01*
X128701426Y-108090904D02*
X128891902Y-108186142D01*
X128034759Y-109329000D02*
X128225235Y-109424238D01*
X128225235Y-109424238D02*
X128701426Y-109424238D01*
X128701426Y-109424238D02*
X128891902Y-109329000D01*
X128891902Y-109329000D02*
X128987140Y-109138523D01*
X128987140Y-109138523D02*
X128987140Y-108948047D01*
X128987140Y-108948047D02*
X128891902Y-108757571D01*
X128891902Y-108757571D02*
X128701426Y-108662333D01*
X128701426Y-108662333D02*
X128225235Y-108662333D01*
X128225235Y-108662333D02*
X128034759Y-108567095D01*
X126796664Y-109424238D02*
X126987140Y-109329000D01*
X126987140Y-109329000D02*
X127082378Y-109138523D01*
X127082378Y-109138523D02*
X127082378Y-107424238D01*
X126320473Y-108090904D02*
X125558569Y-108090904D01*
X126034759Y-107424238D02*
X126034759Y-109138523D01*
X126034759Y-109138523D02*
X125939521Y-109329000D01*
X125939521Y-109329000D02*
X125749045Y-109424238D01*
X125749045Y-109424238D02*
X125558569Y-109424238D01*
X124891902Y-109424238D02*
X124891902Y-107424238D01*
X124034759Y-109424238D02*
X124034759Y-108376619D01*
X124034759Y-108376619D02*
X124129997Y-108186142D01*
X124129997Y-108186142D02*
X124320473Y-108090904D01*
X124320473Y-108090904D02*
X124606188Y-108090904D01*
X124606188Y-108090904D02*
X124796664Y-108186142D01*
X124796664Y-108186142D02*
X124891902Y-108281380D01*
X123082378Y-108662333D02*
X121558569Y-108662333D01*
X120701426Y-108852809D02*
X119749045Y-108852809D01*
X120891902Y-109424238D02*
X120225236Y-107424238D01*
X120225236Y-107424238D02*
X119558569Y-109424238D01*
X119177616Y-107424238D02*
X118034759Y-107424238D01*
X118606188Y-109424238D02*
X118606188Y-107424238D01*
X117558568Y-107424238D02*
X116225235Y-109424238D01*
X116225235Y-107424238D02*
X117558568Y-109424238D01*
X187653047Y-144356142D02*
X187748285Y-144451381D01*
X187748285Y-144451381D02*
X188033999Y-144546619D01*
X188033999Y-144546619D02*
X188224475Y-144546619D01*
X188224475Y-144546619D02*
X188510190Y-144451381D01*
X188510190Y-144451381D02*
X188700666Y-144260904D01*
X188700666Y-144260904D02*
X188795904Y-144070428D01*
X188795904Y-144070428D02*
X188891142Y-143689476D01*
X188891142Y-143689476D02*
X188891142Y-143403761D01*
X188891142Y-143403761D02*
X188795904Y-143022809D01*
X188795904Y-143022809D02*
X188700666Y-142832333D01*
X188700666Y-142832333D02*
X188510190Y-142641857D01*
X188510190Y-142641857D02*
X188224475Y-142546619D01*
X188224475Y-142546619D02*
X188033999Y-142546619D01*
X188033999Y-142546619D02*
X187748285Y-142641857D01*
X187748285Y-142641857D02*
X187653047Y-142737095D01*
X186891142Y-143975190D02*
X185938761Y-143975190D01*
X187081618Y-144546619D02*
X186414952Y-142546619D01*
X186414952Y-142546619D02*
X185748285Y-144546619D01*
X185081618Y-142546619D02*
X185081618Y-144165666D01*
X185081618Y-144165666D02*
X184986380Y-144356142D01*
X184986380Y-144356142D02*
X184891142Y-144451381D01*
X184891142Y-144451381D02*
X184700666Y-144546619D01*
X184700666Y-144546619D02*
X184319713Y-144546619D01*
X184319713Y-144546619D02*
X184129237Y-144451381D01*
X184129237Y-144451381D02*
X184033999Y-144356142D01*
X184033999Y-144356142D02*
X183938761Y-144165666D01*
X183938761Y-144165666D02*
X183938761Y-142546619D01*
X183272094Y-142546619D02*
X182129237Y-142546619D01*
X182700666Y-144546619D02*
X182700666Y-142546619D01*
X181462570Y-144546619D02*
X181462570Y-142546619D01*
X180129237Y-142546619D02*
X179748284Y-142546619D01*
X179748284Y-142546619D02*
X179557808Y-142641857D01*
X179557808Y-142641857D02*
X179367332Y-142832333D01*
X179367332Y-142832333D02*
X179272094Y-143213285D01*
X179272094Y-143213285D02*
X179272094Y-143879952D01*
X179272094Y-143879952D02*
X179367332Y-144260904D01*
X179367332Y-144260904D02*
X179557808Y-144451381D01*
X179557808Y-144451381D02*
X179748284Y-144546619D01*
X179748284Y-144546619D02*
X180129237Y-144546619D01*
X180129237Y-144546619D02*
X180319713Y-144451381D01*
X180319713Y-144451381D02*
X180510189Y-144260904D01*
X180510189Y-144260904D02*
X180605427Y-143879952D01*
X180605427Y-143879952D02*
X180605427Y-143213285D01*
X180605427Y-143213285D02*
X180510189Y-142832333D01*
X180510189Y-142832333D02*
X180319713Y-142641857D01*
X180319713Y-142641857D02*
X180129237Y-142546619D01*
X178414951Y-144546619D02*
X178414951Y-142546619D01*
X178414951Y-142546619D02*
X177272094Y-144546619D01*
X177272094Y-144546619D02*
X177272094Y-142546619D01*
X186129237Y-147766507D02*
X186129237Y-145766507D01*
X186129237Y-146718888D02*
X184986380Y-146718888D01*
X184986380Y-147766507D02*
X184986380Y-145766507D01*
X184033999Y-147766507D02*
X184033999Y-145766507D01*
X182033999Y-145861745D02*
X182224475Y-145766507D01*
X182224475Y-145766507D02*
X182510189Y-145766507D01*
X182510189Y-145766507D02*
X182795904Y-145861745D01*
X182795904Y-145861745D02*
X182986380Y-146052221D01*
X182986380Y-146052221D02*
X183081618Y-146242697D01*
X183081618Y-146242697D02*
X183176856Y-146623649D01*
X183176856Y-146623649D02*
X183176856Y-146909364D01*
X183176856Y-146909364D02*
X183081618Y-147290316D01*
X183081618Y-147290316D02*
X182986380Y-147480792D01*
X182986380Y-147480792D02*
X182795904Y-147671269D01*
X182795904Y-147671269D02*
X182510189Y-147766507D01*
X182510189Y-147766507D02*
X182319713Y-147766507D01*
X182319713Y-147766507D02*
X182033999Y-147671269D01*
X182033999Y-147671269D02*
X181938761Y-147576030D01*
X181938761Y-147576030D02*
X181938761Y-146909364D01*
X181938761Y-146909364D02*
X182319713Y-146909364D01*
X181081618Y-147766507D02*
X181081618Y-145766507D01*
X181081618Y-146718888D02*
X179938761Y-146718888D01*
X179938761Y-147766507D02*
X179938761Y-145766507D01*
X189081619Y-148986395D02*
X188414953Y-150986395D01*
X188414953Y-150986395D02*
X187748286Y-148986395D01*
X186700667Y-148986395D02*
X186319714Y-148986395D01*
X186319714Y-148986395D02*
X186129238Y-149081633D01*
X186129238Y-149081633D02*
X185938762Y-149272109D01*
X185938762Y-149272109D02*
X185843524Y-149653061D01*
X185843524Y-149653061D02*
X185843524Y-150319728D01*
X185843524Y-150319728D02*
X185938762Y-150700680D01*
X185938762Y-150700680D02*
X186129238Y-150891157D01*
X186129238Y-150891157D02*
X186319714Y-150986395D01*
X186319714Y-150986395D02*
X186700667Y-150986395D01*
X186700667Y-150986395D02*
X186891143Y-150891157D01*
X186891143Y-150891157D02*
X187081619Y-150700680D01*
X187081619Y-150700680D02*
X187176857Y-150319728D01*
X187176857Y-150319728D02*
X187176857Y-149653061D01*
X187176857Y-149653061D02*
X187081619Y-149272109D01*
X187081619Y-149272109D02*
X186891143Y-149081633D01*
X186891143Y-149081633D02*
X186700667Y-148986395D01*
X184034000Y-150986395D02*
X184986381Y-150986395D01*
X184986381Y-150986395D02*
X184986381Y-148986395D01*
X183653047Y-148986395D02*
X182510190Y-148986395D01*
X183081619Y-150986395D02*
X183081619Y-148986395D01*
X181938761Y-150414966D02*
X180986380Y-150414966D01*
X182129237Y-150986395D02*
X181462571Y-148986395D01*
X181462571Y-148986395D02*
X180795904Y-150986395D01*
X179081618Y-149081633D02*
X179272094Y-148986395D01*
X179272094Y-148986395D02*
X179557808Y-148986395D01*
X179557808Y-148986395D02*
X179843523Y-149081633D01*
X179843523Y-149081633D02*
X180033999Y-149272109D01*
X180033999Y-149272109D02*
X180129237Y-149462585D01*
X180129237Y-149462585D02*
X180224475Y-149843537D01*
X180224475Y-149843537D02*
X180224475Y-150129252D01*
X180224475Y-150129252D02*
X180129237Y-150510204D01*
X180129237Y-150510204D02*
X180033999Y-150700680D01*
X180033999Y-150700680D02*
X179843523Y-150891157D01*
X179843523Y-150891157D02*
X179557808Y-150986395D01*
X179557808Y-150986395D02*
X179367332Y-150986395D01*
X179367332Y-150986395D02*
X179081618Y-150891157D01*
X179081618Y-150891157D02*
X178986380Y-150795918D01*
X178986380Y-150795918D02*
X178986380Y-150129252D01*
X178986380Y-150129252D02*
X179367332Y-150129252D01*
X178129237Y-149938776D02*
X177462570Y-149938776D01*
X177176856Y-150986395D02*
X178129237Y-150986395D01*
X178129237Y-150986395D02*
X178129237Y-148986395D01*
X178129237Y-148986395D02*
X177176856Y-148986395D01*
D12*
X215523601Y-157058628D02*
X215523601Y-158130057D01*
X215523601Y-158130057D02*
X215595030Y-158344342D01*
X215595030Y-158344342D02*
X215737887Y-158487200D01*
X215737887Y-158487200D02*
X215952173Y-158558628D01*
X215952173Y-158558628D02*
X216095030Y-158558628D01*
X214095030Y-158558628D02*
X214809316Y-158558628D01*
X214809316Y-158558628D02*
X214809316Y-157058628D01*
X212737887Y-158415771D02*
X212809315Y-158487200D01*
X212809315Y-158487200D02*
X213023601Y-158558628D01*
X213023601Y-158558628D02*
X213166458Y-158558628D01*
X213166458Y-158558628D02*
X213380744Y-158487200D01*
X213380744Y-158487200D02*
X213523601Y-158344342D01*
X213523601Y-158344342D02*
X213595030Y-158201485D01*
X213595030Y-158201485D02*
X213666458Y-157915771D01*
X213666458Y-157915771D02*
X213666458Y-157701485D01*
X213666458Y-157701485D02*
X213595030Y-157415771D01*
X213595030Y-157415771D02*
X213523601Y-157272914D01*
X213523601Y-157272914D02*
X213380744Y-157130057D01*
X213380744Y-157130057D02*
X213166458Y-157058628D01*
X213166458Y-157058628D02*
X213023601Y-157058628D01*
X213023601Y-157058628D02*
X212809315Y-157130057D01*
X212809315Y-157130057D02*
X212737887Y-157201485D01*
X211666458Y-157058628D02*
X211666458Y-158130057D01*
X211666458Y-158130057D02*
X211737887Y-158344342D01*
X211737887Y-158344342D02*
X211880744Y-158487200D01*
X211880744Y-158487200D02*
X212095030Y-158558628D01*
X212095030Y-158558628D02*
X212237887Y-158558628D01*
X210237887Y-158558628D02*
X210952173Y-158558628D01*
X210952173Y-158558628D02*
X210952173Y-157058628D01*
X208880744Y-158415771D02*
X208952172Y-158487200D01*
X208952172Y-158487200D02*
X209166458Y-158558628D01*
X209166458Y-158558628D02*
X209309315Y-158558628D01*
X209309315Y-158558628D02*
X209523601Y-158487200D01*
X209523601Y-158487200D02*
X209666458Y-158344342D01*
X209666458Y-158344342D02*
X209737887Y-158201485D01*
X209737887Y-158201485D02*
X209809315Y-157915771D01*
X209809315Y-157915771D02*
X209809315Y-157701485D01*
X209809315Y-157701485D02*
X209737887Y-157415771D01*
X209737887Y-157415771D02*
X209666458Y-157272914D01*
X209666458Y-157272914D02*
X209523601Y-157130057D01*
X209523601Y-157130057D02*
X209309315Y-157058628D01*
X209309315Y-157058628D02*
X209166458Y-157058628D01*
X209166458Y-157058628D02*
X208952172Y-157130057D01*
X208952172Y-157130057D02*
X208880744Y-157201485D01*
X207809315Y-157058628D02*
X207809315Y-158130057D01*
X207809315Y-158130057D02*
X207880744Y-158344342D01*
X207880744Y-158344342D02*
X208023601Y-158487200D01*
X208023601Y-158487200D02*
X208237887Y-158558628D01*
X208237887Y-158558628D02*
X208380744Y-158558628D01*
X206380744Y-158558628D02*
X207095030Y-158558628D01*
X207095030Y-158558628D02*
X207095030Y-157058628D01*
X205023601Y-158415771D02*
X205095029Y-158487200D01*
X205095029Y-158487200D02*
X205309315Y-158558628D01*
X205309315Y-158558628D02*
X205452172Y-158558628D01*
X205452172Y-158558628D02*
X205666458Y-158487200D01*
X205666458Y-158487200D02*
X205809315Y-158344342D01*
X205809315Y-158344342D02*
X205880744Y-158201485D01*
X205880744Y-158201485D02*
X205952172Y-157915771D01*
X205952172Y-157915771D02*
X205952172Y-157701485D01*
X205952172Y-157701485D02*
X205880744Y-157415771D01*
X205880744Y-157415771D02*
X205809315Y-157272914D01*
X205809315Y-157272914D02*
X205666458Y-157130057D01*
X205666458Y-157130057D02*
X205452172Y-157058628D01*
X205452172Y-157058628D02*
X205309315Y-157058628D01*
X205309315Y-157058628D02*
X205095029Y-157130057D01*
X205095029Y-157130057D02*
X205023601Y-157201485D01*
X203952172Y-157058628D02*
X203952172Y-158130057D01*
X203952172Y-158130057D02*
X204023601Y-158344342D01*
X204023601Y-158344342D02*
X204166458Y-158487200D01*
X204166458Y-158487200D02*
X204380744Y-158558628D01*
X204380744Y-158558628D02*
X204523601Y-158558628D01*
X202523601Y-158558628D02*
X203237887Y-158558628D01*
X203237887Y-158558628D02*
X203237887Y-157058628D01*
X201166458Y-158415771D02*
X201237886Y-158487200D01*
X201237886Y-158487200D02*
X201452172Y-158558628D01*
X201452172Y-158558628D02*
X201595029Y-158558628D01*
X201595029Y-158558628D02*
X201809315Y-158487200D01*
X201809315Y-158487200D02*
X201952172Y-158344342D01*
X201952172Y-158344342D02*
X202023601Y-158201485D01*
X202023601Y-158201485D02*
X202095029Y-157915771D01*
X202095029Y-157915771D02*
X202095029Y-157701485D01*
X202095029Y-157701485D02*
X202023601Y-157415771D01*
X202023601Y-157415771D02*
X201952172Y-157272914D01*
X201952172Y-157272914D02*
X201809315Y-157130057D01*
X201809315Y-157130057D02*
X201595029Y-157058628D01*
X201595029Y-157058628D02*
X201452172Y-157058628D01*
X201452172Y-157058628D02*
X201237886Y-157130057D01*
X201237886Y-157130057D02*
X201166458Y-157201485D01*
D13*
%TO.C,REF\u002A\u002A*%
X179134000Y-141054157D02*
X187134000Y-141054157D01*
D14*
X183134000Y-134134157D02*
X179134000Y-141054157D01*
X187134000Y-141054157D02*
X183134000Y-134134157D01*
D15*
X184216083Y-138676240D02*
X183095573Y-138079605D01*
X183372062Y-139811303D01*
X183604896Y-139491157D01*
X183386615Y-140538907D01*
X182789979Y-139651230D01*
X183124677Y-139854959D01*
X182469833Y-137468417D01*
X183634000Y-138094157D01*
X182775427Y-136100521D01*
X183488479Y-136100521D01*
X184216083Y-138676240D01*
G36*
X184216083Y-138676240D02*
G01*
X183095573Y-138079605D01*
X183372062Y-139811303D01*
X183604896Y-139491157D01*
X183386615Y-140538907D01*
X182789979Y-139651230D01*
X183124677Y-139854959D01*
X182469833Y-137468417D01*
X183634000Y-138094157D01*
X182775427Y-136100521D01*
X183488479Y-136100521D01*
X184216083Y-138676240D01*
G37*
D16*
%TO.C,G\u002A\u002A\u002A*%
X147510591Y-96619751D02*
X147453758Y-96866766D01*
X150214104Y-95602799D02*
X149501951Y-95948557D01*
X153222257Y-100836786D02*
X152422316Y-100499283D01*
X153848844Y-100944736D02*
X153849320Y-100956960D01*
X154683392Y-97021071D02*
X155284579Y-97974047D01*
X155809406Y-99561388D02*
X156097220Y-100109552D01*
X155816867Y-99540434D02*
X155804961Y-99539958D01*
X156447740Y-100840437D02*
X156447581Y-100884252D01*
X150647508Y-95204710D02*
X150734189Y-95214253D01*
X150946854Y-95250533D01*
X151220464Y-95310834D01*
X151565270Y-95396469D01*
X152509470Y-95648995D01*
X152647677Y-95686967D01*
X152778808Y-95723560D01*
X153020550Y-95792654D01*
X153236106Y-95856368D01*
X153426886Y-95914792D01*
X153594300Y-95968019D01*
X153739757Y-96016139D01*
X153864670Y-96059244D01*
X153970446Y-96097424D01*
X154058497Y-96130771D01*
X154130233Y-96159377D01*
X154187064Y-96183331D01*
X154230399Y-96202725D01*
X154261650Y-96217651D01*
X154282226Y-96228200D01*
X154296995Y-96236529D01*
X154296836Y-96236370D01*
X154297312Y-96235894D01*
X154333992Y-96253040D01*
X154368359Y-96272989D01*
X154400488Y-96295521D01*
X154430454Y-96320416D01*
X154458333Y-96347456D01*
X154484199Y-96376420D01*
X154508130Y-96407090D01*
X154530198Y-96439245D01*
X154550481Y-96472667D01*
X154569054Y-96507135D01*
X154585991Y-96542430D01*
X154601368Y-96578333D01*
X154615261Y-96614625D01*
X154627744Y-96651085D01*
X154648785Y-96723633D01*
X154665092Y-96794223D01*
X154677270Y-96861098D01*
X154685921Y-96922501D01*
X154691647Y-96976678D01*
X154696737Y-97056328D01*
X154697362Y-97086000D01*
X154695214Y-97069190D01*
X154690112Y-97045105D01*
X154680177Y-97007836D01*
X154663798Y-96955334D01*
X154639364Y-96885551D01*
X154605263Y-96796439D01*
X154559885Y-96685950D01*
X154545972Y-96657428D01*
X154530042Y-96632760D01*
X154512138Y-96611903D01*
X154492308Y-96594811D01*
X154470595Y-96581439D01*
X154447044Y-96571743D01*
X154421702Y-96565676D01*
X154394613Y-96563194D01*
X154365823Y-96564253D01*
X154335376Y-96568806D01*
X154303319Y-96576809D01*
X154269695Y-96588218D01*
X154234550Y-96602986D01*
X154197930Y-96621069D01*
X154120445Y-96666999D01*
X154037599Y-96725649D01*
X153949756Y-96796658D01*
X153857276Y-96879666D01*
X153760521Y-96974312D01*
X153659853Y-97080237D01*
X153555634Y-97197080D01*
X153448224Y-97324481D01*
X153337986Y-97462079D01*
X153221289Y-97613532D01*
X153112583Y-97759306D01*
X153011395Y-97900151D01*
X152917256Y-98036816D01*
X152829694Y-98170051D01*
X152748239Y-98300607D01*
X152672418Y-98429233D01*
X152601763Y-98556680D01*
X152535801Y-98683697D01*
X152474062Y-98811034D01*
X152416075Y-98939441D01*
X152361368Y-99069668D01*
X152309472Y-99202465D01*
X152259915Y-99338583D01*
X152212226Y-99478770D01*
X152165935Y-99623777D01*
X152144489Y-99695224D01*
X152125814Y-99762016D01*
X152109822Y-99824335D01*
X152096427Y-99882361D01*
X152085541Y-99936276D01*
X152077078Y-99986260D01*
X152070950Y-100032495D01*
X152067070Y-100075161D01*
X152065353Y-100114438D01*
X152065709Y-100150509D01*
X152068054Y-100183554D01*
X152072298Y-100213753D01*
X152078357Y-100241288D01*
X152086141Y-100266340D01*
X152095565Y-100289089D01*
X152106542Y-100309716D01*
X152118984Y-100328403D01*
X152132805Y-100345329D01*
X152147917Y-100360677D01*
X152164234Y-100374626D01*
X152181668Y-100387358D01*
X152200133Y-100399054D01*
X152239805Y-100420060D01*
X152422316Y-100498807D01*
X152406987Y-100505414D01*
X152391481Y-100511182D01*
X152375840Y-100516152D01*
X152360109Y-100520366D01*
X152344331Y-100523865D01*
X152328549Y-100526691D01*
X152312807Y-100528884D01*
X152297149Y-100530486D01*
X152281618Y-100531537D01*
X152266258Y-100532080D01*
X152251112Y-100532156D01*
X152236224Y-100531806D01*
X152207396Y-100529991D01*
X152180123Y-100526966D01*
X152154753Y-100523061D01*
X152131634Y-100518606D01*
X152111116Y-100513931D01*
X152093547Y-100509367D01*
X152068650Y-100501887D01*
X152059731Y-100498807D01*
X151930412Y-100474561D01*
X151576317Y-100397704D01*
X151330853Y-100337616D01*
X151048243Y-100262059D01*
X150734837Y-100170262D01*
X150396984Y-100061452D01*
X150356045Y-100047282D01*
X150318854Y-100033517D01*
X150285176Y-100019871D01*
X150254773Y-100006060D01*
X150227411Y-99991800D01*
X150214796Y-99984413D01*
X150202852Y-99976806D01*
X150191550Y-99968945D01*
X150180861Y-99960795D01*
X150170754Y-99952318D01*
X150161200Y-99943480D01*
X150152170Y-99934246D01*
X150143634Y-99924579D01*
X150135563Y-99914445D01*
X150127927Y-99903807D01*
X150120696Y-99892630D01*
X150113842Y-99880879D01*
X150107334Y-99868517D01*
X150101143Y-99855510D01*
X150089594Y-99827418D01*
X150078958Y-99796316D01*
X150068999Y-99761921D01*
X150059481Y-99723949D01*
X150051104Y-99672329D01*
X150044616Y-99598756D01*
X150036643Y-99395200D01*
X150034241Y-99132175D01*
X150036085Y-98828579D01*
X150059481Y-97586380D01*
X150067203Y-97295752D01*
X150081669Y-96948560D01*
X150103759Y-96572640D01*
X150134352Y-96195829D01*
X150153112Y-96015789D01*
X150174328Y-95845964D01*
X150198111Y-95689835D01*
X150224569Y-95550880D01*
X150253813Y-95432581D01*
X150285952Y-95338415D01*
X150303143Y-95301470D01*
X150321098Y-95271863D01*
X150339833Y-95250029D01*
X150359360Y-95236404D01*
X150401893Y-95220025D01*
X150450693Y-95208502D01*
X150507041Y-95201999D01*
X150572219Y-95200680D01*
X150647508Y-95204710D01*
X145914203Y-99108157D02*
X145918564Y-99113463D01*
X145922980Y-99118711D01*
X145927452Y-99123901D01*
X145931979Y-99129034D01*
X145936562Y-99134109D01*
X145941201Y-99139126D01*
X145945897Y-99144088D01*
X145950648Y-99148992D01*
X145955456Y-99153841D01*
X145960321Y-99158634D01*
X145965244Y-99163371D01*
X145970223Y-99168052D01*
X145975261Y-99172679D01*
X145980356Y-99177250D01*
X145985510Y-99181767D01*
X145990722Y-99186229D01*
X145995993Y-99190636D01*
X146001324Y-99194989D01*
X146006714Y-99199288D01*
X146012165Y-99203533D01*
X146017675Y-99207724D01*
X146023247Y-99211860D01*
X146028880Y-99215943D01*
X146034574Y-99219972D01*
X146040331Y-99223947D01*
X146046149Y-99227869D01*
X146052031Y-99231737D01*
X146057976Y-99235550D01*
X146063985Y-99239310D01*
X146070058Y-99243016D01*
X146076196Y-99246669D01*
X146082398Y-99250267D01*
X146088667Y-99253811D01*
X146095001Y-99257300D01*
X146101402Y-99260735D01*
X146107870Y-99264116D01*
X146114405Y-99267442D01*
X146121009Y-99270713D01*
X146127681Y-99273929D01*
X146134421Y-99277090D01*
X146141232Y-99280196D01*
X146148112Y-99283245D01*
X146155062Y-99286239D01*
X146162084Y-99289176D01*
X146169177Y-99292057D01*
X146176342Y-99294881D01*
X146183579Y-99297648D01*
X146190889Y-99300357D01*
X146198273Y-99303009D01*
X146205730Y-99305602D01*
X146213262Y-99308137D01*
X146220868Y-99310613D01*
X146228550Y-99313030D01*
X146236308Y-99315387D01*
X146244141Y-99317684D01*
X146252052Y-99319920D01*
X146260039Y-99322096D01*
X146268103Y-99324210D01*
X146276246Y-99326261D01*
X146284466Y-99328251D01*
X146292765Y-99330177D01*
X146301144Y-99332040D01*
X146309601Y-99333840D01*
X146318138Y-99335574D01*
X146326754Y-99337244D01*
X146335451Y-99338848D01*
X146344228Y-99340386D01*
X146353086Y-99341857D01*
X146362025Y-99343262D01*
X146371044Y-99344598D01*
X146380145Y-99345866D01*
X146389326Y-99347065D01*
X146398589Y-99348194D01*
X146407933Y-99349253D01*
X146417358Y-99350241D01*
X146426865Y-99351158D01*
X146436452Y-99352003D01*
X146446120Y-99352775D01*
X146455868Y-99353474D01*
X146465697Y-99354099D01*
X146475606Y-99354649D01*
X146485594Y-99355125D01*
X146495661Y-99355524D01*
X146505806Y-99355848D01*
X146516028Y-99356094D01*
X146526328Y-99356263D01*
X146536703Y-99356354D01*
X146547153Y-99356366D01*
X146557677Y-99356299D01*
X146568273Y-99356153D01*
X146578940Y-99355926D01*
X146589676Y-99355619D01*
X146600480Y-99355230D01*
X146611350Y-99354760D01*
X146622283Y-99354208D01*
X146633277Y-99353574D01*
X146644330Y-99352858D01*
X146655438Y-99352058D01*
X146666598Y-99351176D01*
X146677807Y-99350211D01*
X146689060Y-99349163D01*
X146700354Y-99348033D01*
X146711683Y-99346819D01*
X146723042Y-99345524D01*
X146734425Y-99344146D01*
X146745825Y-99342688D01*
X146757235Y-99341149D01*
X146768646Y-99339532D01*
X146780048Y-99337836D01*
X146791432Y-99336065D01*
X146802784Y-99334220D01*
X146814091Y-99332303D01*
X146825336Y-99330318D01*
X146836502Y-99328269D01*
X146847566Y-99326160D01*
X146858503Y-99323998D01*
X146869282Y-99321789D01*
X146879866Y-99319542D01*
X146890209Y-99317269D01*
X146900252Y-99314986D01*
X146909920Y-99312713D01*
X146919108Y-99310479D01*
X146927666Y-99308326D01*
X146935354Y-99306322D01*
X146941733Y-99304598D01*
X146945690Y-99303486D01*
X146945919Y-99303420D01*
X146142166Y-98058979D02*
X146144249Y-98055433D01*
X146146895Y-98051067D01*
X146148631Y-98048256D01*
X146150647Y-98045033D01*
X146152947Y-98041403D01*
X146155534Y-98037373D01*
X146158411Y-98032948D01*
X146161582Y-98028134D01*
X146165050Y-98022936D01*
X146168820Y-98017359D01*
X146172893Y-98011410D01*
X146177275Y-98005093D01*
X146181967Y-97998415D01*
X146186975Y-97991381D01*
X146192300Y-97983996D01*
X146197947Y-97976267D01*
X146203920Y-97968198D01*
X146210221Y-97959795D01*
X146216854Y-97951065D01*
X146223822Y-97942011D01*
X146231130Y-97932641D01*
X146238780Y-97922958D01*
X146242734Y-97918002D01*
X146246776Y-97912971D01*
X146250905Y-97907864D01*
X146255121Y-97902682D01*
X146259426Y-97897427D01*
X146263819Y-97892099D01*
X146268302Y-97886699D01*
X146272874Y-97881227D01*
X146277536Y-97875684D01*
X146282288Y-97870070D01*
X146287131Y-97864388D01*
X146292066Y-97858636D01*
X146297092Y-97852817D01*
X146302210Y-97846930D01*
X146307421Y-97840976D01*
X146312724Y-97834956D01*
X146318121Y-97828871D01*
X146323612Y-97822721D01*
X146329198Y-97816507D01*
X146334878Y-97810230D01*
X146340653Y-97803890D01*
X146346523Y-97797488D01*
X146352490Y-97791026D01*
X146358553Y-97784503D01*
X146364713Y-97777920D01*
X146370971Y-97771277D01*
X146377326Y-97764577D01*
X146383779Y-97757819D01*
X146390331Y-97751004D01*
X146396982Y-97744132D01*
X146403732Y-97737205D01*
X146410583Y-97730223D01*
X146417533Y-97723187D01*
X146424585Y-97716097D01*
X146431737Y-97708954D01*
X146438992Y-97701760D01*
X146446348Y-97694513D01*
X146453807Y-97687217D01*
X146461369Y-97679870D01*
X146469034Y-97672473D01*
X146476803Y-97665028D01*
X146484676Y-97657536D01*
X146492654Y-97649995D01*
X146500737Y-97642409D01*
X146508926Y-97634776D01*
X146517221Y-97627098D01*
X146525622Y-97619376D01*
X146534129Y-97611610D01*
X146542745Y-97603801D01*
X146551467Y-97595949D01*
X146560298Y-97588056D01*
X146569238Y-97580122D01*
X146578287Y-97572148D01*
X146587445Y-97564133D01*
X146596713Y-97556080D01*
X146606091Y-97547989D01*
X146615580Y-97539860D01*
X146625180Y-97531695D01*
X146634892Y-97523493D01*
X146644715Y-97515256D01*
X146654652Y-97506984D01*
X146664701Y-97498678D01*
X146674863Y-97490339D01*
X146685140Y-97481967D01*
X146695530Y-97473563D01*
X146706035Y-97465128D01*
X146716656Y-97456662D01*
X146727391Y-97448167D01*
X146738243Y-97439642D01*
X146749211Y-97431089D01*
X146760296Y-97422508D01*
X146771498Y-97413900D01*
X146782818Y-97405266D01*
X146794256Y-97396606D01*
X146805813Y-97387920D01*
X146817488Y-97379211D01*
X146142167Y-98058503D02*
X146140588Y-98060375D01*
X146138663Y-98062683D01*
X146136025Y-98065880D01*
X146132706Y-98069945D01*
X146128740Y-98074856D01*
X146124160Y-98080594D01*
X146118998Y-98087138D01*
X146113286Y-98094468D01*
X146107059Y-98102563D01*
X146100348Y-98111403D01*
X146096822Y-98116095D01*
X146093187Y-98120966D01*
X146089448Y-98126014D01*
X146085608Y-98131234D01*
X146081672Y-98136625D01*
X146077644Y-98142185D01*
X146073528Y-98147910D01*
X146069328Y-98153798D01*
X146065049Y-98159847D01*
X146060693Y-98166054D01*
X146056267Y-98172416D01*
X146051772Y-98178931D01*
X146047214Y-98185596D01*
X146042597Y-98192410D01*
X146037925Y-98199368D01*
X146033202Y-98206469D01*
X146028431Y-98213710D01*
X146023618Y-98221089D01*
X146018766Y-98228603D01*
X146013879Y-98236249D01*
X146008962Y-98244024D01*
X146004018Y-98251928D01*
X145999052Y-98259955D01*
X145994068Y-98268105D01*
X145989070Y-98276375D01*
X145984061Y-98284762D01*
X145979047Y-98293263D01*
X145974031Y-98301876D01*
X145969017Y-98310598D01*
X145964009Y-98319427D01*
X145959012Y-98328361D01*
X145954029Y-98337396D01*
X145949065Y-98346530D01*
X145944124Y-98355761D01*
X145939210Y-98365086D01*
X145934327Y-98374502D01*
X145929478Y-98384007D01*
X145924669Y-98393598D01*
X145919904Y-98403273D01*
X145915185Y-98413030D01*
X145912845Y-98417938D01*
X145910518Y-98422865D01*
X145908206Y-98427811D01*
X145905907Y-98432776D01*
X145903624Y-98437759D01*
X145901356Y-98442760D01*
X145899104Y-98447779D01*
X145896868Y-98452816D01*
X145894649Y-98457869D01*
X145892448Y-98462940D01*
X145890265Y-98468027D01*
X145888100Y-98473129D01*
X145885955Y-98478248D01*
X145883829Y-98483382D01*
X145881723Y-98488532D01*
X145879637Y-98493696D01*
X145877573Y-98498875D01*
X145875530Y-98504068D01*
X145873510Y-98509275D01*
X145871512Y-98514495D01*
X145869537Y-98519729D01*
X145867585Y-98524976D01*
X145865658Y-98530235D01*
X145863756Y-98535507D01*
X145861879Y-98540791D01*
X145860027Y-98546086D01*
X145858202Y-98551392D01*
X145856403Y-98556710D01*
X145854632Y-98562038D01*
X145852888Y-98567377D01*
X145851173Y-98572726D01*
X145849486Y-98578084D01*
X145847829Y-98583452D01*
X145846202Y-98588829D01*
X145844604Y-98594215D01*
X145843038Y-98599609D01*
X145841503Y-98605012D01*
X145840000Y-98610422D01*
X145838529Y-98615839D01*
X145837091Y-98621264D01*
X145835687Y-98626696D01*
X145834316Y-98632134D01*
X145832980Y-98637579D01*
X145831678Y-98643029D01*
X145830413Y-98648485D01*
X145829183Y-98653946D01*
X145827989Y-98659412D01*
X145826833Y-98664883D01*
X145825714Y-98670358D01*
X145824633Y-98675837D01*
X145823591Y-98681320D01*
X145822587Y-98686806D01*
X145821623Y-98692295D01*
X145820700Y-98697787D01*
X145819816Y-98703281D01*
X145818974Y-98708777D01*
X145818174Y-98714275D01*
X145817415Y-98719774D01*
X145816699Y-98725275D01*
X145816027Y-98730776D01*
X145815398Y-98736278D01*
X145814813Y-98741779D01*
X145814273Y-98747281D01*
X145813778Y-98752782D01*
X145813328Y-98758282D01*
X145812925Y-98763781D01*
X145812569Y-98769279D01*
X145812260Y-98774775D01*
X145811999Y-98780269D01*
X145811785Y-98785760D01*
X145811621Y-98791249D01*
X145811506Y-98796734D01*
X145811441Y-98802217D01*
X145811426Y-98807695D01*
X145811462Y-98813169D01*
X145811549Y-98818640D01*
X145811688Y-98824105D01*
X145811880Y-98829565D01*
X145812124Y-98835021D01*
X145812422Y-98840470D01*
X145812774Y-98845914D01*
X145813180Y-98851351D01*
X145813641Y-98856782D01*
X145814157Y-98862206D01*
X145814729Y-98867622D01*
X145815358Y-98873031D01*
X145816044Y-98878432D01*
X145816788Y-98883825D01*
X145817589Y-98889210D01*
X145818449Y-98894586D01*
X145819368Y-98899952D01*
X145820346Y-98905309D01*
X145821385Y-98910656D01*
X145822484Y-98915994D01*
X145823644Y-98921320D01*
X145824866Y-98926636D01*
X145826150Y-98931941D01*
X145827496Y-98937235D01*
X145828906Y-98942517D01*
X145830379Y-98947787D01*
X145831917Y-98953044D01*
X145833519Y-98958289D01*
X145835186Y-98963521D01*
X145836920Y-98968739D01*
X145838719Y-98973944D01*
X145840585Y-98979135D01*
X145842518Y-98984312D01*
X145844519Y-98989474D01*
X145846588Y-98994621D01*
X145848726Y-98999753D01*
X145850934Y-99004870D01*
X145853211Y-99009970D01*
X145855558Y-99015055D01*
X145857977Y-99020122D01*
X145860466Y-99025173D01*
X145863028Y-99030207D01*
X145865662Y-99035224D01*
X145868368Y-99040222D01*
X145871149Y-99045203D01*
X145874003Y-99050165D01*
X145876931Y-99055109D01*
X145879935Y-99060033D01*
X145883013Y-99064938D01*
X145886168Y-99069823D01*
X145889400Y-99074688D01*
X145892708Y-99079533D01*
X145896094Y-99084357D01*
X145899557Y-99089160D01*
X145903100Y-99093942D01*
X145906721Y-99098703D01*
X145910422Y-99103441D01*
X145914203Y-99108157D01*
X146720969Y-98495224D02*
X146716599Y-98489750D01*
X146712240Y-98484322D01*
X146707882Y-98478926D01*
X146703535Y-98473576D01*
X146699189Y-98468258D01*
X146694854Y-98462986D01*
X146690520Y-98457746D01*
X146686197Y-98452552D01*
X146681876Y-98447389D01*
X146677566Y-98442272D01*
X146673257Y-98437186D01*
X146668959Y-98432145D01*
X146664663Y-98427136D01*
X146660379Y-98422171D01*
X146656095Y-98417238D01*
X146651824Y-98412349D01*
X146647553Y-98407491D01*
X146643295Y-98402678D01*
X146639038Y-98397895D01*
X146634794Y-98393157D01*
X146630550Y-98388449D01*
X146626319Y-98383786D01*
X146622089Y-98379153D01*
X146617872Y-98374563D01*
X146613655Y-98370004D01*
X146609452Y-98365489D01*
X146605250Y-98361003D01*
X146601061Y-98356561D01*
X146596873Y-98352148D01*
X146592699Y-98347780D01*
X146584366Y-98339144D01*
X146576062Y-98330653D01*
X146567788Y-98322306D01*
X146559544Y-98314102D01*
X146551332Y-98306041D01*
X146543150Y-98298122D01*
X146535000Y-98290343D01*
X146526883Y-98282705D01*
X146518798Y-98275207D01*
X146510746Y-98267847D01*
X146502728Y-98260625D01*
X146494744Y-98253541D01*
X146486795Y-98246593D01*
X146478881Y-98239781D01*
X146471003Y-98233105D01*
X146463161Y-98226563D01*
X146455356Y-98220156D01*
X146447589Y-98213881D01*
X146439860Y-98207739D01*
X146432170Y-98201729D01*
X146424520Y-98195851D01*
X146416910Y-98190103D01*
X146409341Y-98184485D01*
X146401814Y-98178996D01*
X146394329Y-98173637D01*
X146386888Y-98168405D01*
X146379491Y-98163302D01*
X146372139Y-98158325D01*
X146364834Y-98153475D01*
X146357575Y-98148751D01*
X146350365Y-98144152D01*
X146343204Y-98139679D01*
X146336093Y-98135329D01*
X146329033Y-98131104D01*
X146322027Y-98127002D01*
X146315075Y-98123023D01*
X146308178Y-98119166D01*
X146301338Y-98115432D01*
X146294557Y-98111819D01*
X146287837Y-98108327D01*
X146281178Y-98104956D01*
X146274584Y-98101706D01*
X146268056Y-98098575D01*
X146261597Y-98095565D01*
X146255209Y-98092674D01*
X146248894Y-98089902D01*
X146242656Y-98087249D01*
X146236498Y-98084715D01*
X146230422Y-98082299D01*
X146224433Y-98080001D01*
X146218536Y-98077822D01*
X146212734Y-98075761D01*
X146207032Y-98073817D01*
X146201437Y-98071992D01*
X146195955Y-98070285D01*
X146190594Y-98068696D01*
X146185361Y-98067225D01*
X146180268Y-98065872D01*
X146175325Y-98064638D01*
X146170547Y-98063523D01*
X146165951Y-98062527D01*
X146161558Y-98061652D01*
X146157397Y-98060898D01*
X146153504Y-98060265D01*
X146149931Y-98059755D01*
X146146761Y-98059371D01*
X146144138Y-98059114D01*
X146142166Y-98058979D01*
X146817488Y-97379211D02*
X146832760Y-97367849D01*
X146847804Y-97356632D01*
X146862715Y-97345489D01*
X146877398Y-97334492D01*
X146891950Y-97323568D01*
X146906274Y-97312791D01*
X146920467Y-97302088D01*
X146934432Y-97291531D01*
X146948268Y-97281048D01*
X146961876Y-97270713D01*
X146975356Y-97260450D01*
X146988608Y-97250336D01*
X147001733Y-97240294D01*
X147014629Y-97230403D01*
X147027399Y-97220583D01*
X147039941Y-97210914D01*
X147064546Y-97191870D01*
X147088445Y-97173274D01*
X147111640Y-97155127D01*
X147134131Y-97137431D01*
X147155920Y-97120189D01*
X147177007Y-97103402D01*
X147197393Y-97087075D01*
X147217077Y-97071209D01*
X147236060Y-97055810D01*
X147254340Y-97040881D01*
X147271916Y-97026426D01*
X147288786Y-97012452D01*
X147304947Y-96998965D01*
X147320397Y-96985972D01*
X147335130Y-96973481D01*
X147349141Y-96961502D01*
X147362423Y-96950046D01*
X147374967Y-96939126D01*
X147386762Y-96928759D01*
X147397792Y-96918963D01*
X147408040Y-96909762D01*
X147417481Y-96901187D01*
X147426082Y-96893277D01*
X147433796Y-96886085D01*
X147440558Y-96879686D01*
X147446261Y-96874198D01*
X147450710Y-96869833D01*
X147453446Y-96867086D01*
X147453758Y-96866766D01*
X146946076Y-99303579D02*
X146946959Y-99303181D01*
X146948024Y-99302670D01*
X146949467Y-99301938D01*
X146951264Y-99300975D01*
X146953386Y-99299772D01*
X146955808Y-99298320D01*
X146957123Y-99297497D01*
X146958503Y-99296609D01*
X146959944Y-99295653D01*
X146961443Y-99294630D01*
X146962997Y-99293536D01*
X146964603Y-99292372D01*
X146966256Y-99291137D01*
X146967955Y-99289828D01*
X146969695Y-99288445D01*
X146971473Y-99286987D01*
X146973286Y-99285452D01*
X146975131Y-99283839D01*
X146977003Y-99282147D01*
X146978901Y-99280376D01*
X146980820Y-99278523D01*
X146982756Y-99276587D01*
X146984708Y-99274568D01*
X146986671Y-99272464D01*
X146988643Y-99270274D01*
X146990619Y-99267997D01*
X146992596Y-99265631D01*
X146994572Y-99263176D01*
X146996542Y-99260630D01*
X146998504Y-99257992D01*
X147000454Y-99255260D01*
X147002388Y-99252435D01*
X147004305Y-99249514D01*
X147006199Y-99246496D01*
X147008068Y-99243380D01*
X147009908Y-99240166D01*
X147011716Y-99236851D01*
X147012607Y-99235155D01*
X147013489Y-99233434D01*
X147014362Y-99231688D01*
X147015224Y-99229915D01*
X147016076Y-99228117D01*
X147016916Y-99226293D01*
X147017746Y-99224442D01*
X147018564Y-99222565D01*
X147019369Y-99220661D01*
X147020162Y-99218731D01*
X147020942Y-99216774D01*
X147021709Y-99214789D01*
X147022462Y-99212778D01*
X147023201Y-99210739D01*
X147023924Y-99208673D01*
X147024633Y-99206580D01*
X147025327Y-99204458D01*
X147026004Y-99202309D01*
X147026665Y-99200132D01*
X147027310Y-99197927D01*
X147027937Y-99195693D01*
X147028547Y-99193431D01*
X147029138Y-99191140D01*
X147029712Y-99188820D01*
X147030266Y-99186472D01*
X147030801Y-99184094D01*
X147031317Y-99181687D01*
X147031812Y-99179251D01*
X147032287Y-99176786D01*
X147032742Y-99174290D01*
X147033174Y-99171765D01*
X147033585Y-99169210D01*
X147033974Y-99166625D01*
X147034340Y-99164010D01*
X147034684Y-99161364D01*
X147035004Y-99158688D01*
X147035300Y-99155981D01*
X147035571Y-99153243D01*
X147035818Y-99150474D01*
X147036041Y-99147674D01*
X147036237Y-99144843D01*
X147036408Y-99141980D01*
X147036552Y-99139086D01*
X147036670Y-99136160D01*
X147036760Y-99133202D01*
X147036823Y-99130212D01*
X147036857Y-99127190D01*
X147036864Y-99124136D01*
X147036841Y-99121049D01*
X147036790Y-99117929D01*
X147036708Y-99114777D01*
X147036597Y-99111592D01*
X147036455Y-99108374D01*
X147036282Y-99105122D01*
X147036078Y-99101838D01*
X147035842Y-99098519D01*
X147035574Y-99095167D01*
X147035273Y-99091782D01*
X147034939Y-99088362D01*
X147034572Y-99084908D01*
X147034171Y-99081420D01*
X147033736Y-99077898D01*
X147033266Y-99074341D01*
X147032761Y-99070749D01*
X147032220Y-99067123D01*
X147031644Y-99063461D01*
X147031031Y-99059765D01*
X147030381Y-99056033D01*
X147029695Y-99052266D01*
X147028970Y-99048463D01*
X147028208Y-99044624D01*
X147027407Y-99040750D01*
X147026568Y-99036839D01*
X147025689Y-99032893D01*
X147024770Y-99028910D01*
X147023811Y-99024890D01*
X147022812Y-99020834D01*
X147021772Y-99016741D01*
X147020691Y-99012612D01*
X147019568Y-99008445D01*
X147018402Y-99004241D01*
X147017194Y-99000000D01*
X147015943Y-98995721D01*
X147014649Y-98991404D01*
X147013311Y-98987050D01*
X147011928Y-98982658D01*
X147010501Y-98978227D01*
X147009028Y-98973759D01*
X147007511Y-98969252D01*
X147005947Y-98964707D01*
X147004337Y-98960122D01*
X147002680Y-98955499D01*
X147000976Y-98950837D01*
X146999224Y-98946136D01*
X146997424Y-98941396D01*
X146995576Y-98936616D01*
X146993679Y-98931797D01*
X146991733Y-98926938D01*
X146989737Y-98922039D01*
X146987691Y-98917100D01*
X146985594Y-98912120D01*
X146983447Y-98907101D01*
X146981248Y-98902041D01*
X146978997Y-98896940D01*
X146976695Y-98891799D01*
X146974339Y-98886617D01*
X146971931Y-98881394D01*
X146969469Y-98876129D01*
X146966953Y-98870823D01*
X146964383Y-98865476D01*
X146961758Y-98860087D01*
X146959078Y-98854656D01*
X146956343Y-98849183D01*
X146953552Y-98843669D01*
X146950704Y-98838112D01*
X146947800Y-98832512D01*
X146944838Y-98826870D01*
X146941819Y-98821185D01*
X146938741Y-98815458D01*
X146935606Y-98809688D01*
X146932411Y-98803874D01*
X146929157Y-98798017D01*
X146925844Y-98792117D01*
X146922470Y-98786173D01*
X146919036Y-98780185D01*
X146915541Y-98774154D01*
X146911984Y-98768078D01*
X146908366Y-98761959D01*
X146904685Y-98755795D01*
X146900942Y-98749586D01*
X146897136Y-98743333D01*
X146893266Y-98737036D01*
X146889333Y-98730693D01*
X146885335Y-98724305D01*
X146881273Y-98717872D01*
X146877145Y-98711394D01*
X146872952Y-98704870D01*
X146868693Y-98698301D01*
X146864368Y-98691686D01*
X146859975Y-98685024D01*
X146855516Y-98678317D01*
X146850989Y-98671564D01*
X146846394Y-98664764D01*
X146841730Y-98657917D01*
X146836998Y-98651024D01*
X146832196Y-98644084D01*
X146827325Y-98637098D01*
X146822383Y-98630064D01*
X146817371Y-98622982D01*
X146812288Y-98615854D01*
X146807134Y-98608677D01*
X146801907Y-98601453D01*
X146796609Y-98594181D01*
X146791238Y-98586862D01*
X146785794Y-98579493D01*
X146780276Y-98572077D01*
X146774685Y-98564612D01*
X146769019Y-98557099D01*
X146763279Y-98549537D01*
X146757463Y-98541926D01*
X146751572Y-98534266D01*
X146745605Y-98526556D01*
X146739562Y-98518798D01*
X146733442Y-98510989D01*
X146727244Y-98503132D01*
X146720969Y-98495224D01*
X147453758Y-96866290D02*
X147457874Y-96870328D01*
X147462921Y-96875365D01*
X147469875Y-96882406D01*
X147474047Y-96886675D01*
X147478671Y-96891443D01*
X147483739Y-96896709D01*
X147489243Y-96902472D01*
X147495175Y-96908731D01*
X147501527Y-96915484D01*
X147508290Y-96922733D01*
X147515457Y-96930475D01*
X147523020Y-96938709D01*
X147530969Y-96947436D01*
X147539298Y-96956653D01*
X147547999Y-96966361D01*
X147557062Y-96976559D01*
X147566479Y-96987245D01*
X147576244Y-96998419D01*
X147586347Y-97010080D01*
X147596781Y-97022228D01*
X147607537Y-97034860D01*
X147618608Y-97047978D01*
X147629984Y-97061579D01*
X147635785Y-97068561D01*
X147641659Y-97075663D01*
X147647605Y-97082886D01*
X147653623Y-97090230D01*
X147659712Y-97097694D01*
X147665870Y-97105278D01*
X147672096Y-97112982D01*
X147678390Y-97120806D01*
X147684750Y-97128750D01*
X147691175Y-97136814D01*
X147697665Y-97144998D01*
X147704218Y-97153301D01*
X147710834Y-97161724D01*
X147717510Y-97170266D01*
X147724247Y-97178928D01*
X147731044Y-97187708D01*
X147737899Y-97196608D01*
X147744811Y-97205627D01*
X147751779Y-97214765D01*
X147758802Y-97224022D01*
X147765880Y-97233397D01*
X147773011Y-97242891D01*
X147780194Y-97252504D01*
X147787428Y-97262235D01*
X147794712Y-97272084D01*
X147802046Y-97282051D01*
X147809427Y-97292137D01*
X147816856Y-97302341D01*
X147824331Y-97312662D01*
X147831851Y-97323101D01*
X147839415Y-97333658D01*
X147847022Y-97344333D01*
X147854671Y-97355125D01*
X147862361Y-97366034D01*
X147870091Y-97377061D01*
X147877860Y-97388205D01*
X147885667Y-97399466D01*
X147893511Y-97410844D01*
X147901391Y-97422339D01*
X147909306Y-97433950D01*
X147917255Y-97445679D01*
X147925237Y-97457523D01*
X147933251Y-97469485D01*
X147941295Y-97481563D01*
X147949369Y-97493757D01*
X147957473Y-97506067D01*
X147965604Y-97518493D01*
X147973762Y-97531035D01*
X147981945Y-97543693D01*
X147990154Y-97556467D01*
X147998386Y-97569357D01*
X148006641Y-97582362D01*
X148014918Y-97595482D01*
X148023215Y-97608718D01*
X148031533Y-97622069D01*
X148039869Y-97635536D01*
X148048222Y-97649117D01*
X148056593Y-97662813D01*
X148064978Y-97676624D01*
X148073379Y-97690550D01*
X148081793Y-97704591D01*
X148090220Y-97718746D01*
X148098659Y-97733015D01*
X148107108Y-97747399D01*
X148115566Y-97761897D01*
X148124033Y-97776509D01*
X148132508Y-97791236D01*
X148140989Y-97806076D01*
X148149476Y-97821030D01*
X148157967Y-97836098D01*
X148166462Y-97851279D01*
X148174959Y-97866574D01*
X147510591Y-96619751D02*
X147508753Y-96622505D01*
X147506947Y-96625246D01*
X147505166Y-96627985D01*
X147503417Y-96630711D01*
X147501694Y-96633434D01*
X147500002Y-96636145D01*
X147498335Y-96638853D01*
X147496700Y-96641549D01*
X147495089Y-96644242D01*
X147493509Y-96646921D01*
X147490428Y-96652263D01*
X147487457Y-96657574D01*
X147484593Y-96662854D01*
X147481837Y-96668103D01*
X147479186Y-96673320D01*
X147476640Y-96678506D01*
X147474197Y-96683660D01*
X147471857Y-96688783D01*
X147469619Y-96693873D01*
X147467481Y-96698932D01*
X147465442Y-96703958D01*
X147463501Y-96708952D01*
X147461659Y-96713913D01*
X147459912Y-96718841D01*
X147458261Y-96723735D01*
X147456705Y-96728596D01*
X147455242Y-96733423D01*
X147453873Y-96738215D01*
X147452595Y-96742972D01*
X147451408Y-96747694D01*
X147450311Y-96752380D01*
X147449304Y-96757029D01*
X147448386Y-96761641D01*
X147447555Y-96766216D01*
X147446811Y-96770751D01*
X147446153Y-96775246D01*
X147445581Y-96779701D01*
X147445092Y-96784113D01*
X147444688Y-96788483D01*
X147444366Y-96792807D01*
X147444127Y-96797086D01*
X147443968Y-96801316D01*
X147443889Y-96805496D01*
X147443889Y-96809623D01*
X147443967Y-96813695D01*
X147444122Y-96817709D01*
X147444352Y-96821662D01*
X147444655Y-96825548D01*
X147445031Y-96829365D01*
X147445476Y-96833106D01*
X147445989Y-96836766D01*
X147446567Y-96840336D01*
X147447206Y-96843808D01*
X147447901Y-96847171D01*
X147448648Y-96850411D01*
X147449438Y-96853510D01*
X147450262Y-96856446D01*
X147451105Y-96859185D01*
X147451946Y-96861680D01*
X147452746Y-96863851D01*
X147453429Y-96865543D01*
X147453758Y-96866290D01*
X147873970Y-99436770D02*
X147853435Y-99435040D01*
X147832512Y-99433198D01*
X147811199Y-99431242D01*
X147789496Y-99429171D01*
X147767402Y-99426982D01*
X147744918Y-99424676D01*
X147722044Y-99422249D01*
X147698782Y-99419702D01*
X147675133Y-99417033D01*
X147651101Y-99414241D01*
X147626689Y-99411325D01*
X147601902Y-99408285D01*
X147576746Y-99405120D01*
X147551227Y-99401830D01*
X147525354Y-99398415D01*
X147499138Y-99394875D01*
X147472590Y-99391211D01*
X147445724Y-99387423D01*
X147418557Y-99383514D01*
X147391108Y-99379486D01*
X147363400Y-99375340D01*
X147335460Y-99371081D01*
X147307319Y-99366713D01*
X147279016Y-99362240D01*
X147250595Y-99357670D01*
X147222108Y-99353012D01*
X147193620Y-99348276D01*
X147165208Y-99343474D01*
X147136971Y-99338625D01*
X147109027Y-99333749D01*
X147081533Y-99328876D01*
X147054693Y-99324044D01*
X147028786Y-99319305D01*
X147004218Y-99314740D01*
X146981621Y-99310472D01*
X146962128Y-99306726D01*
X146946076Y-99303579D01*
X148174959Y-97866574D02*
X148188390Y-97890915D01*
X148201684Y-97915173D01*
X148214841Y-97939346D01*
X148227861Y-97963432D01*
X148240743Y-97987430D01*
X148253486Y-98011339D01*
X148266091Y-98035157D01*
X148278558Y-98058882D01*
X148290885Y-98082513D01*
X148303073Y-98106049D01*
X148315121Y-98129487D01*
X148327029Y-98152825D01*
X148338796Y-98176063D01*
X148350422Y-98199198D01*
X148361906Y-98222227D01*
X148373249Y-98245150D01*
X148384449Y-98267964D01*
X148395507Y-98290667D01*
X148406421Y-98313256D01*
X148417191Y-98335730D01*
X148427816Y-98358085D01*
X148438297Y-98380320D01*
X148448632Y-98402432D01*
X148458821Y-98424419D01*
X148468863Y-98446277D01*
X148478758Y-98468003D01*
X148488505Y-98489595D01*
X148498102Y-98511050D01*
X148507551Y-98532364D01*
X148516848Y-98553534D01*
X148525995Y-98574556D01*
X148534989Y-98595427D01*
X148543831Y-98616142D01*
X148552519Y-98636698D01*
X148561051Y-98657091D01*
X148569428Y-98677316D01*
X148577648Y-98697367D01*
X148585710Y-98717242D01*
X148593613Y-98736933D01*
X148601355Y-98756435D01*
X148608935Y-98775744D01*
X148616352Y-98794852D01*
X148623604Y-98813753D01*
X148630690Y-98832439D01*
X148637607Y-98850905D01*
X148644355Y-98869141D01*
X148650931Y-98887139D01*
X148657334Y-98904891D01*
X148663560Y-98922385D01*
X148669608Y-98939613D01*
X148675476Y-98956562D01*
X148681160Y-98973221D01*
X148686658Y-98989575D01*
X148691966Y-99005611D01*
X148697082Y-99021313D01*
X148702001Y-99036664D01*
X148706720Y-99051644D01*
X148711234Y-99066233D01*
X148715539Y-99080407D01*
X148719629Y-99094141D01*
X148723499Y-99107406D01*
X148727143Y-99120171D01*
X148730553Y-99132399D01*
X148732175Y-99138323D01*
X148733723Y-99144051D01*
X148735222Y-99149668D01*
X148736646Y-99155083D01*
X148738016Y-99160369D01*
X148739311Y-99165445D01*
X148740549Y-99170372D01*
X148741713Y-99175083D01*
X148742814Y-99179622D01*
X148743841Y-99183938D01*
X148744237Y-99185628D01*
X148593741Y-99446136D02*
X148597942Y-99446864D01*
X148610250Y-99448943D01*
X148619306Y-99450438D01*
X148630222Y-99452210D01*
X148642944Y-99454239D01*
X148657415Y-99456504D01*
X148673580Y-99458987D01*
X148691384Y-99461666D01*
X148710772Y-99464522D01*
X148731688Y-99467534D01*
X148754077Y-99470682D01*
X148765806Y-99472301D01*
X148777883Y-99473947D01*
X148790300Y-99475616D01*
X148803050Y-99477307D01*
X148816128Y-99479017D01*
X148829525Y-99480744D01*
X148843235Y-99482484D01*
X148857250Y-99484236D01*
X148871565Y-99485997D01*
X148886171Y-99487764D01*
X148901063Y-99489535D01*
X148916233Y-99491308D01*
X148931674Y-99493079D01*
X148947379Y-99494847D01*
X148963341Y-99496608D01*
X148979554Y-99498361D01*
X148996011Y-99500103D01*
X149012704Y-99501831D01*
X149029627Y-99503542D01*
X149046773Y-99505235D01*
X149064134Y-99506907D01*
X149081704Y-99508555D01*
X149099477Y-99510177D01*
X149117444Y-99511770D01*
X149135599Y-99513331D01*
X149153936Y-99514859D01*
X149172447Y-99516350D01*
X149191125Y-99517803D01*
X149209964Y-99519214D01*
X149228956Y-99520582D01*
X149248094Y-99521903D01*
X149267373Y-99523175D01*
X149286784Y-99524395D01*
X149306321Y-99525562D01*
X149325976Y-99526672D01*
X149345744Y-99527723D01*
X149365616Y-99528713D01*
X149385587Y-99529639D01*
X148651210Y-99446295D02*
X148647377Y-99446593D01*
X148642645Y-99446940D01*
X148636090Y-99447396D01*
X148627751Y-99447946D01*
X148617668Y-99448572D01*
X148605881Y-99449258D01*
X148592430Y-99449986D01*
X148577355Y-99450740D01*
X148560695Y-99451504D01*
X148551783Y-99451884D01*
X148542491Y-99452260D01*
X148532822Y-99452630D01*
X148522781Y-99452992D01*
X148512375Y-99453344D01*
X148501607Y-99453683D01*
X148490483Y-99454008D01*
X148479008Y-99454317D01*
X148467187Y-99454607D01*
X148455024Y-99454876D01*
X148442525Y-99455122D01*
X148429694Y-99455344D01*
X148416537Y-99455538D01*
X148403059Y-99455704D01*
X148389264Y-99455838D01*
X148375158Y-99455939D01*
X148360745Y-99456005D01*
X148346031Y-99456033D01*
X148331021Y-99456022D01*
X148315719Y-99455969D01*
X148300130Y-99455872D01*
X148284260Y-99455730D01*
X148268113Y-99455539D01*
X148251695Y-99455299D01*
X148235010Y-99455007D01*
X148218064Y-99454660D01*
X148200861Y-99454257D01*
X148183406Y-99453796D01*
X148165704Y-99453274D01*
X148147761Y-99452690D01*
X148129582Y-99452041D01*
X148111170Y-99451325D01*
X148092532Y-99450541D01*
X148073672Y-99449685D01*
X148054595Y-99448757D01*
X148035306Y-99447754D01*
X148015811Y-99446673D01*
X147996113Y-99445513D01*
X147976219Y-99444271D01*
X147956133Y-99442946D01*
X147935860Y-99441536D01*
X147915405Y-99440038D01*
X147894774Y-99438450D01*
X147873970Y-99436770D01*
X148744237Y-99185628D02*
X148744705Y-99187669D01*
X148745151Y-99189701D01*
X148745575Y-99191731D01*
X148745978Y-99193753D01*
X148746360Y-99195773D01*
X148746720Y-99197784D01*
X148747377Y-99201795D01*
X148747951Y-99205786D01*
X148748442Y-99209758D01*
X148748850Y-99213712D01*
X148749177Y-99217648D01*
X148749422Y-99221567D01*
X148749587Y-99225470D01*
X148749672Y-99229357D01*
X148749677Y-99233229D01*
X148749602Y-99237086D01*
X148749448Y-99240930D01*
X148749216Y-99244760D01*
X148748904Y-99248578D01*
X148748514Y-99252384D01*
X148748045Y-99256178D01*
X148747497Y-99259962D01*
X148746870Y-99263735D01*
X148746165Y-99267498D01*
X148745380Y-99271252D01*
X148744516Y-99274997D01*
X148743573Y-99278734D01*
X148742549Y-99282462D01*
X148741446Y-99286184D01*
X148740261Y-99289898D01*
X148738996Y-99293605D01*
X148737648Y-99297306D01*
X148736219Y-99301000D01*
X148734706Y-99304689D01*
X148733111Y-99308372D01*
X148731431Y-99312049D01*
X148729666Y-99315721D01*
X148727816Y-99319387D01*
X148725880Y-99323048D01*
X148723857Y-99326704D01*
X148721746Y-99330354D01*
X148719547Y-99333998D01*
X148717259Y-99337637D01*
X148714881Y-99341269D01*
X148712413Y-99344896D01*
X148709853Y-99348515D01*
X148707202Y-99352127D01*
X148704459Y-99355731D01*
X148701622Y-99359327D01*
X148698693Y-99362913D01*
X148695669Y-99366489D01*
X148692552Y-99370054D01*
X148689341Y-99373606D01*
X148686036Y-99377145D01*
X148682637Y-99380669D01*
X148679145Y-99384176D01*
X148675560Y-99387665D01*
X148671884Y-99391133D01*
X148668117Y-99394578D01*
X148664262Y-99397999D01*
X148660321Y-99401391D01*
X148656297Y-99404751D01*
X148652193Y-99408077D01*
X148648014Y-99411363D01*
X148643766Y-99414605D01*
X148639456Y-99417798D01*
X148635092Y-99420934D01*
X148630686Y-99424006D01*
X148626252Y-99427005D01*
X148621807Y-99429919D01*
X148617376Y-99432734D01*
X148612990Y-99435433D01*
X148608693Y-99437991D01*
X148604547Y-99440376D01*
X148600653Y-99442537D01*
X148597184Y-99444389D01*
X148594519Y-99445753D01*
X148593741Y-99446136D01*
X149385587Y-99529639D02*
X149393646Y-99529998D01*
X149468132Y-99533335D01*
X149502362Y-99534896D01*
X149534702Y-99536404D01*
X149565242Y-99537876D01*
X149594069Y-99539324D01*
X149607869Y-99540044D01*
X149621274Y-99540764D01*
X149634296Y-99541486D01*
X149646945Y-99542211D01*
X149659233Y-99542942D01*
X149671171Y-99543680D01*
X149682770Y-99544426D01*
X149694041Y-99545184D01*
X149704996Y-99545954D01*
X149715645Y-99546739D01*
X149725999Y-99547540D01*
X149736070Y-99548359D01*
X149745869Y-99549198D01*
X149755406Y-99550059D01*
X149764694Y-99550944D01*
X149773743Y-99551854D01*
X149782564Y-99552792D01*
X149791168Y-99553759D01*
X149799567Y-99554757D01*
X149807771Y-99555788D01*
X149815793Y-99556853D01*
X149823642Y-99557955D01*
X149831330Y-99559095D01*
X149838868Y-99560276D01*
X149846267Y-99561499D01*
X149853539Y-99562765D01*
X149860694Y-99564077D01*
X149867744Y-99565437D01*
X149874700Y-99566846D01*
X149881572Y-99568307D01*
X149888373Y-99569820D01*
X149895112Y-99571388D01*
X149901802Y-99573013D01*
X149908453Y-99574697D01*
X149915076Y-99576441D01*
X149921683Y-99578247D01*
X149928285Y-99580118D01*
X149934893Y-99582054D01*
X149941517Y-99584058D01*
X149948170Y-99586132D01*
X149954862Y-99588277D01*
X149961604Y-99590495D01*
X149968407Y-99592788D01*
X149975284Y-99595159D01*
X149982243Y-99597608D01*
X149989298Y-99600137D01*
X149996459Y-99602750D01*
X150003736Y-99605446D01*
X150011142Y-99608228D01*
X150018687Y-99611099D01*
X150026383Y-99614059D01*
X150034240Y-99617111D01*
X149501951Y-95948557D02*
X149477604Y-95956724D01*
X149452775Y-95964969D01*
X149427447Y-95973296D01*
X149401598Y-95981710D01*
X149375207Y-95990217D01*
X149348249Y-95998824D01*
X149320696Y-96007538D01*
X149292517Y-96016366D01*
X149263677Y-96025319D01*
X149234135Y-96034407D01*
X149203845Y-96043642D01*
X149172752Y-96053039D01*
X149140792Y-96062616D01*
X149107891Y-96072392D01*
X149073957Y-96082394D01*
X149038876Y-96092651D01*
X149002509Y-96103203D01*
X148964675Y-96114099D01*
X148925137Y-96125404D01*
X148883568Y-96137210D01*
X148839501Y-96149644D01*
X148792223Y-96162905D01*
X148740535Y-96177324D01*
X148682116Y-96193545D01*
X148611097Y-96213192D01*
X148569496Y-96224682D01*
X148520072Y-96238335D01*
X148471201Y-96251854D01*
X148422932Y-96265244D01*
X148375315Y-96278510D01*
X148351767Y-96285098D01*
X148328400Y-96291657D01*
X148305222Y-96298188D01*
X148282239Y-96304691D01*
X148259456Y-96311167D01*
X148236880Y-96317616D01*
X148214517Y-96324039D01*
X148192374Y-96330436D01*
X148170456Y-96336809D01*
X148148771Y-96343158D01*
X148127324Y-96349483D01*
X148106122Y-96355785D01*
X148085170Y-96362065D01*
X148064476Y-96368323D01*
X148044045Y-96374560D01*
X148023884Y-96380777D01*
X148003998Y-96386974D01*
X147984395Y-96393151D01*
X147965081Y-96399310D01*
X147946061Y-96405451D01*
X147927343Y-96411575D01*
X147918098Y-96414630D01*
X147908931Y-96417682D01*
X147899843Y-96420729D01*
X147890834Y-96423772D01*
X147881904Y-96426812D01*
X147873056Y-96429848D01*
X147864289Y-96432880D01*
X147855604Y-96435908D01*
X147847003Y-96438933D01*
X147838485Y-96441954D01*
X147830052Y-96444972D01*
X147821704Y-96447986D01*
X147813443Y-96450998D01*
X147805269Y-96454006D01*
X147797182Y-96457011D01*
X147789184Y-96460013D01*
X147781276Y-96463011D01*
X147773457Y-96466008D01*
X147765730Y-96469001D01*
X147758094Y-96471991D01*
X147750551Y-96474979D01*
X147743101Y-96477965D01*
X147735746Y-96480948D01*
X147728485Y-96483928D01*
X147721319Y-96486906D01*
X147714251Y-96489882D01*
X147707279Y-96492856D01*
X147700405Y-96495827D01*
X147693630Y-96498797D01*
X147686955Y-96501764D01*
X147680380Y-96504730D01*
X147673906Y-96507694D01*
X147667535Y-96510656D01*
X147661265Y-96513616D01*
X147655100Y-96516575D01*
X147649038Y-96519533D01*
X147643082Y-96522489D01*
X147637232Y-96525444D01*
X147631488Y-96528397D01*
X147625851Y-96531349D01*
X147620323Y-96534301D01*
X147614904Y-96537251D01*
X147609594Y-96540200D01*
X147604395Y-96543148D01*
X147599307Y-96546096D01*
X147594332Y-96549043D01*
X147589469Y-96551989D01*
X147584720Y-96554934D01*
X147580086Y-96557880D01*
X147575567Y-96560824D01*
X147571163Y-96563769D01*
X147566877Y-96566713D01*
X147562708Y-96569657D01*
X147558658Y-96572601D01*
X147554726Y-96575544D01*
X147550915Y-96578488D01*
X147547225Y-96581432D01*
X147543656Y-96584376D01*
X147541917Y-96585849D01*
X147540209Y-96587321D01*
X147538532Y-96588793D01*
X147536885Y-96590266D01*
X147535270Y-96591738D01*
X147533685Y-96593211D01*
X147532132Y-96594684D01*
X147530610Y-96596157D01*
X147529120Y-96597630D01*
X147527661Y-96599103D01*
X147526233Y-96600577D01*
X147524837Y-96602050D01*
X147523473Y-96603524D01*
X147522141Y-96604998D01*
X147520840Y-96606472D01*
X147519572Y-96607947D01*
X147518336Y-96609421D01*
X147517132Y-96610896D01*
X147515960Y-96612371D01*
X147514821Y-96613847D01*
X147513715Y-96615322D01*
X147512641Y-96616798D01*
X147511599Y-96618275D01*
X147510591Y-96619751D01*
X150214104Y-95602799D02*
X150214457Y-95602983D01*
X150214860Y-95603219D01*
X150215381Y-95603555D01*
X150215994Y-95603996D01*
X150216673Y-95604544D01*
X150217394Y-95605205D01*
X150217762Y-95605578D01*
X150218130Y-95605981D01*
X150218497Y-95606414D01*
X150218857Y-95606877D01*
X150219209Y-95607370D01*
X150219550Y-95607895D01*
X150219875Y-95608451D01*
X150220182Y-95609040D01*
X150220467Y-95609661D01*
X150220728Y-95610316D01*
X150220961Y-95611003D01*
X150221163Y-95611725D01*
X150221332Y-95612482D01*
X150221463Y-95613273D01*
X150221553Y-95614099D01*
X150221600Y-95614962D01*
X150221600Y-95615861D01*
X150221550Y-95616796D01*
X150221447Y-95617769D01*
X150221288Y-95618780D01*
X150221070Y-95619828D01*
X150220788Y-95620916D01*
X150220441Y-95622042D01*
X150220025Y-95623208D01*
X150219537Y-95624414D01*
X150218974Y-95625661D01*
X150218332Y-95626949D01*
X150217608Y-95628278D01*
X150216800Y-95629649D01*
X150215904Y-95631062D01*
X150214916Y-95632518D01*
X150213834Y-95634017D01*
X150212655Y-95635560D01*
X150211375Y-95637148D01*
X150209991Y-95638780D01*
X150208500Y-95640457D01*
X150206899Y-95642180D01*
X150205185Y-95643949D01*
X150203354Y-95645764D01*
X150201403Y-95647626D01*
X150199329Y-95649536D01*
X150197130Y-95651494D01*
X150194801Y-95653500D01*
X150192340Y-95655556D01*
X150189743Y-95657660D01*
X150187007Y-95659814D01*
X150184130Y-95662019D01*
X150181108Y-95664274D01*
X150177937Y-95666580D01*
X150174615Y-95668938D01*
X150171138Y-95671349D01*
X150167504Y-95673811D01*
X150163708Y-95676327D01*
X150159749Y-95678896D01*
X150155622Y-95681520D01*
X150151325Y-95684198D01*
X150146854Y-95686930D01*
X150142207Y-95689718D01*
X150137379Y-95692562D01*
X150132369Y-95695462D01*
X150127172Y-95698419D01*
X150121785Y-95701433D01*
X150116206Y-95704505D01*
X150110431Y-95707635D01*
X150104457Y-95710824D01*
X150098281Y-95714072D01*
X150091900Y-95717379D01*
X150085310Y-95720746D01*
X150078509Y-95724174D01*
X150071493Y-95727663D01*
X150064258Y-95731213D01*
X150056803Y-95734825D01*
X150049123Y-95738499D01*
X150041216Y-95742236D01*
X150033078Y-95746037D01*
X150024706Y-95749901D01*
X150016097Y-95753829D01*
X150007248Y-95757822D01*
X149998155Y-95761880D01*
X149988816Y-95766004D01*
X149979227Y-95770194D01*
X149969386Y-95774450D01*
X149959288Y-95778774D01*
X149948931Y-95783164D01*
X149938312Y-95787623D01*
X149927427Y-95792150D01*
X149916273Y-95796746D01*
X149904847Y-95801411D01*
X149893147Y-95806146D01*
X149881168Y-95810951D01*
X149868907Y-95815827D01*
X149856363Y-95820774D01*
X149843530Y-95825793D01*
X149830406Y-95830884D01*
X149816988Y-95836047D01*
X149803273Y-95841284D01*
X149789258Y-95846594D01*
X149774939Y-95851978D01*
X149760313Y-95857436D01*
X149745377Y-95862969D01*
X149730128Y-95868578D01*
X149714562Y-95874262D01*
X149698677Y-95880023D01*
X149682470Y-95885860D01*
X149665936Y-95891775D01*
X149649074Y-95897767D01*
X149631880Y-95903837D01*
X149614350Y-95909986D01*
X149596481Y-95916214D01*
X149578271Y-95922522D01*
X149559716Y-95928910D01*
X149540814Y-95935378D01*
X149521559Y-95941927D01*
X149501951Y-95948557D01*
X153849320Y-100956960D02*
X153846862Y-100957629D01*
X153844280Y-100958310D01*
X153841721Y-100958962D01*
X153839051Y-100959621D01*
X153836400Y-100960254D01*
X153833648Y-100960889D01*
X153830912Y-100961499D01*
X153828083Y-100962108D01*
X153825269Y-100962693D01*
X153822369Y-100963274D01*
X153819481Y-100963832D01*
X153816514Y-100964384D01*
X153813557Y-100964913D01*
X153810526Y-100965434D01*
X153807504Y-100965933D01*
X153804412Y-100966423D01*
X153801329Y-100966890D01*
X153798178Y-100967346D01*
X153795036Y-100967781D01*
X153791830Y-100968203D01*
X153788632Y-100968604D01*
X153785373Y-100968992D01*
X153782121Y-100969359D01*
X153778810Y-100969711D01*
X153775507Y-100970042D01*
X153772147Y-100970358D01*
X153768793Y-100970654D01*
X153765385Y-100970933D01*
X153761983Y-100971191D01*
X153758529Y-100971433D01*
X153755081Y-100971654D01*
X153751581Y-100971858D01*
X153748088Y-100972041D01*
X153744545Y-100972206D01*
X153741007Y-100972351D01*
X153737422Y-100972477D01*
X153733841Y-100972583D01*
X153730214Y-100972670D01*
X153726592Y-100972736D01*
X153722924Y-100972783D01*
X153719261Y-100972810D01*
X153715554Y-100972816D01*
X153711851Y-100972802D01*
X153708105Y-100972768D01*
X153704363Y-100972713D01*
X153700579Y-100972638D01*
X153696799Y-100972542D01*
X153692978Y-100972425D01*
X153689160Y-100972288D01*
X153685302Y-100972129D01*
X153681447Y-100971950D01*
X153677553Y-100971749D01*
X153673662Y-100971528D01*
X153669733Y-100971284D01*
X153665806Y-100971020D01*
X153661842Y-100970733D01*
X153657880Y-100970427D01*
X153653882Y-100970097D01*
X153649885Y-100969747D01*
X153645853Y-100969373D01*
X153641823Y-100968980D01*
X153637757Y-100968562D01*
X153633692Y-100968124D01*
X153629594Y-100967663D01*
X153625496Y-100967181D01*
X153621365Y-100966675D01*
X153617234Y-100966148D01*
X153613070Y-100965597D01*
X153608907Y-100965026D01*
X153604712Y-100964430D01*
X153600516Y-100963813D01*
X153596289Y-100963172D01*
X153592062Y-100962509D01*
X153587803Y-100961822D01*
X153583544Y-100961114D01*
X153579255Y-100960381D01*
X153574965Y-100959627D01*
X153570644Y-100958847D01*
X153566323Y-100958046D01*
X153561972Y-100957220D01*
X153557620Y-100956372D01*
X153553239Y-100955499D01*
X153548857Y-100954605D01*
X153544445Y-100953684D01*
X153540032Y-100952742D01*
X153535591Y-100951773D01*
X153531148Y-100950784D01*
X153526677Y-100949768D01*
X153522204Y-100948730D01*
X153517704Y-100947666D01*
X153513201Y-100946580D01*
X153508671Y-100945467D01*
X153504139Y-100944333D01*
X153499580Y-100943171D01*
X153495019Y-100941987D01*
X153490431Y-100940776D01*
X153485840Y-100939544D01*
X153481223Y-100938283D01*
X153476603Y-100937001D01*
X153471958Y-100935691D01*
X153467309Y-100934359D01*
X153462634Y-100932999D01*
X153457957Y-100931616D01*
X153453254Y-100930206D01*
X153448548Y-100928773D01*
X153443816Y-100927312D01*
X153439082Y-100925828D01*
X153434322Y-100924316D01*
X153429559Y-100922781D01*
X153424771Y-100921217D01*
X153419979Y-100919631D01*
X153415163Y-100918015D01*
X153410343Y-100916377D01*
X153405499Y-100914710D01*
X153400651Y-100913020D01*
X153395779Y-100911300D01*
X153390903Y-100909557D01*
X153386003Y-100907785D01*
X153381098Y-100905989D01*
X153376171Y-100904164D01*
X153371238Y-100902315D01*
X153366283Y-100900436D01*
X153361323Y-100898534D01*
X153356340Y-100896602D01*
X153351352Y-100894646D01*
X153346341Y-100892659D01*
X153341325Y-100890649D01*
X153336287Y-100888609D01*
X153331243Y-100886544D01*
X153326177Y-100884449D01*
X153321107Y-100882329D01*
X153316013Y-100880179D01*
X153310914Y-100878004D01*
X153305794Y-100875798D01*
X153300667Y-100873568D01*
X153295519Y-100871307D01*
X153290366Y-100869021D01*
X153285190Y-100866703D01*
X153280009Y-100864361D01*
X153274806Y-100861987D01*
X153269597Y-100859588D01*
X153264367Y-100857157D01*
X153259131Y-100854701D01*
X153253874Y-100852213D01*
X153248610Y-100849700D01*
X153243326Y-100847155D01*
X153238035Y-100844584D01*
X153232723Y-100841981D01*
X153222257Y-100836786D01*
X153871862Y-100949181D02*
X153873597Y-100949834D01*
X153875781Y-100950695D01*
X153878856Y-100951954D01*
X153882834Y-100953640D01*
X153887724Y-100955784D01*
X153893537Y-100958417D01*
X153896793Y-100959926D01*
X153900283Y-100961569D01*
X153904010Y-100963348D01*
X153907973Y-100965269D01*
X153912175Y-100967335D01*
X153916617Y-100969550D01*
X153921300Y-100971917D01*
X153926226Y-100974441D01*
X153931395Y-100977124D01*
X153936809Y-100979972D01*
X153942469Y-100982987D01*
X153948377Y-100986174D01*
X153954534Y-100989536D01*
X153960942Y-100993077D01*
X153967600Y-100996801D01*
X153974512Y-101000712D01*
X153981678Y-101004814D01*
X153989099Y-101009109D01*
X153996777Y-101013603D01*
X154004713Y-101018299D01*
X154012908Y-101023200D01*
X154021364Y-101028311D01*
X154030082Y-101033636D01*
X154039063Y-101039177D01*
X154048308Y-101044940D01*
X154057820Y-101050927D01*
X154067598Y-101057143D01*
X154077645Y-101063591D01*
X154087962Y-101070275D01*
X154098550Y-101077199D01*
X154109410Y-101084367D01*
X154120544Y-101091782D01*
X154131952Y-101099449D01*
X154143637Y-101107371D01*
X154155600Y-101115551D01*
X154167841Y-101123995D01*
X154180362Y-101132705D01*
X154193165Y-101141685D01*
X154206251Y-101150940D01*
X154219621Y-101160472D01*
X154233276Y-101170287D01*
X154247217Y-101180386D01*
X154261447Y-101190775D01*
X154275966Y-101201458D01*
X154290775Y-101212437D01*
X154305876Y-101223717D01*
X154321271Y-101235301D01*
X154336960Y-101247194D01*
X154352944Y-101259399D01*
X154369226Y-101271920D01*
X154322077Y-99561706D02*
X154312722Y-99569173D01*
X154303432Y-99576614D01*
X154294221Y-99584016D01*
X154285075Y-99591393D01*
X154276007Y-99598732D01*
X154267002Y-99606045D01*
X154258076Y-99613320D01*
X154249213Y-99620570D01*
X154240427Y-99627782D01*
X154231704Y-99634969D01*
X154223057Y-99642119D01*
X154214472Y-99649243D01*
X154205963Y-99656330D01*
X154197516Y-99663393D01*
X154189143Y-99670418D01*
X154180832Y-99677418D01*
X154172595Y-99684382D01*
X154164418Y-99691321D01*
X154156315Y-99698224D01*
X154148271Y-99705102D01*
X154140301Y-99711943D01*
X154132390Y-99718761D01*
X154124551Y-99725542D01*
X154116771Y-99732299D01*
X154109062Y-99739020D01*
X154101412Y-99745717D01*
X154093832Y-99752379D01*
X154086310Y-99759016D01*
X154078858Y-99765618D01*
X154071463Y-99772197D01*
X154064138Y-99778740D01*
X154056869Y-99785259D01*
X154049669Y-99791744D01*
X154042525Y-99798205D01*
X154035450Y-99804632D01*
X154028429Y-99811035D01*
X154021476Y-99817403D01*
X154014578Y-99823748D01*
X154007747Y-99830059D01*
X154000970Y-99836347D01*
X153994259Y-99842601D01*
X153987602Y-99848832D01*
X153981010Y-99855030D01*
X153974472Y-99861204D01*
X153967998Y-99867345D01*
X153961577Y-99873463D01*
X153955220Y-99879548D01*
X153948916Y-99885610D01*
X153942675Y-99891640D01*
X153936485Y-99897647D01*
X153930358Y-99903621D01*
X153924283Y-99909572D01*
X153918270Y-99915491D01*
X153912307Y-99921389D01*
X153906405Y-99927253D01*
X153900554Y-99933096D01*
X153894764Y-99938906D01*
X153889023Y-99944695D01*
X153883342Y-99950452D01*
X153877711Y-99956187D01*
X153872139Y-99961890D01*
X153866615Y-99967572D01*
X153861150Y-99973222D01*
X153855734Y-99978851D01*
X153850375Y-99984449D01*
X153845065Y-99990025D01*
X153839811Y-99995570D01*
X153834605Y-100001095D01*
X153829456Y-100006588D01*
X153824353Y-100012060D01*
X153819307Y-100017502D01*
X153814306Y-100022923D01*
X153809362Y-100028314D01*
X153804463Y-100033684D01*
X153799618Y-100039024D01*
X153794819Y-100044343D01*
X153790074Y-100049633D01*
X153785375Y-100054902D01*
X153780728Y-100060141D01*
X153776126Y-100065360D01*
X153771577Y-100070550D01*
X153767071Y-100075719D01*
X153762618Y-100080860D01*
X153758209Y-100085980D01*
X153753850Y-100091071D01*
X153749535Y-100096143D01*
X153745271Y-100101185D01*
X153741050Y-100106209D01*
X153736878Y-100111203D01*
X153732749Y-100116178D01*
X153728669Y-100121125D01*
X153724632Y-100126052D01*
X153720643Y-100130951D01*
X153716695Y-100135831D01*
X153712796Y-100140683D01*
X153708937Y-100145516D01*
X153705127Y-100150322D01*
X153701356Y-100155108D01*
X153697633Y-100159867D01*
X153693950Y-100164607D01*
X153690313Y-100169320D01*
X153686716Y-100174014D01*
X153683165Y-100178682D01*
X153679653Y-100183331D01*
X153676186Y-100187953D01*
X153672758Y-100192556D01*
X153669374Y-100197134D01*
X153666029Y-100201693D01*
X153662727Y-100206225D01*
X153659464Y-100210740D01*
X153656244Y-100215228D01*
X153653062Y-100219699D01*
X153649922Y-100224144D01*
X153646820Y-100228571D01*
X153643759Y-100232972D01*
X153640736Y-100237356D01*
X153637754Y-100241714D01*
X153634808Y-100246055D01*
X153631903Y-100250371D01*
X153629035Y-100254669D01*
X153626206Y-100258943D01*
X153623414Y-100263199D01*
X153620661Y-100267431D01*
X153617943Y-100271645D01*
X153615265Y-100275835D01*
X153612621Y-100280008D01*
X153610016Y-100284157D01*
X153607445Y-100288289D01*
X153604913Y-100292397D01*
X153602414Y-100296489D01*
X153599953Y-100300557D01*
X153597526Y-100304608D01*
X153595136Y-100308636D01*
X153592779Y-100312647D01*
X153590458Y-100316635D01*
X153588171Y-100320607D01*
X153585919Y-100324556D01*
X153583700Y-100328489D01*
X153581516Y-100332399D01*
X153579364Y-100336293D01*
X153577248Y-100340164D01*
X153575163Y-100344020D01*
X153573112Y-100347853D01*
X153571093Y-100351671D01*
X153569108Y-100355466D01*
X153567153Y-100359246D01*
X153565233Y-100363005D01*
X153563342Y-100366747D01*
X153561485Y-100370469D01*
X153559658Y-100374175D01*
X153557863Y-100377859D01*
X153556098Y-100381529D01*
X153554366Y-100385178D01*
X153552662Y-100388811D01*
X153550991Y-100392424D01*
X153549348Y-100396021D01*
X153547736Y-100399599D01*
X153546154Y-100403161D01*
X153544602Y-100406703D01*
X153543078Y-100410230D01*
X153541584Y-100413738D01*
X153540119Y-100417231D01*
X153538683Y-100420704D01*
X153537275Y-100424163D01*
X153535896Y-100427602D01*
X153534545Y-100431027D01*
X153533223Y-100434433D01*
X153531927Y-100437824D01*
X153530661Y-100441197D01*
X153529420Y-100444556D01*
X153528208Y-100447896D01*
X153527023Y-100451222D01*
X153525865Y-100454529D01*
X153524733Y-100457823D01*
X153523628Y-100461099D01*
X153522549Y-100464360D01*
X153521497Y-100467604D01*
X153520470Y-100470835D01*
X153519470Y-100474048D01*
X153518495Y-100477247D01*
X153517546Y-100480429D01*
X153516622Y-100483597D01*
X153515723Y-100486749D01*
X153514849Y-100489887D01*
X153514001Y-100493009D01*
X153513177Y-100496117D01*
X153512377Y-100499209D01*
X153511602Y-100502288D01*
X153510852Y-100505351D01*
X153510125Y-100508400D01*
X153509422Y-100511435D01*
X153508743Y-100514455D01*
X153508088Y-100517461D01*
X153507456Y-100520453D01*
X153506848Y-100523431D01*
X153506262Y-100526395D01*
X153505700Y-100529345D01*
X153505161Y-100532282D01*
X153504644Y-100535204D01*
X153504150Y-100538114D01*
X153503679Y-100541010D01*
X153503230Y-100543892D01*
X153502803Y-100546762D01*
X153502399Y-100549618D01*
X153502016Y-100552461D01*
X153501655Y-100555291D01*
X153501316Y-100558108D01*
X153500999Y-100560913D01*
X153500703Y-100563705D01*
X153500428Y-100566484D01*
X153500175Y-100569251D01*
X153499943Y-100572005D01*
X153499732Y-100574748D01*
X153499542Y-100577478D01*
X153499372Y-100580196D01*
X153499224Y-100582901D01*
X153499096Y-100585596D01*
X153498989Y-100588278D01*
X153498902Y-100590949D01*
X153498835Y-100593607D01*
X153498789Y-100596255D01*
X153498762Y-100598890D01*
X153498756Y-100601516D01*
X153498770Y-100604128D01*
X153498803Y-100606731D01*
X153498857Y-100609321D01*
X153498930Y-100611902D01*
X153499023Y-100614471D01*
X153499135Y-100617030D01*
X153499267Y-100619577D01*
X153499418Y-100622115D01*
X153499588Y-100624641D01*
X153499778Y-100627158D01*
X153499987Y-100629663D01*
X153500215Y-100632160D01*
X153500462Y-100634644D01*
X153500729Y-100637120D01*
X153501014Y-100639585D01*
X153501641Y-100644486D01*
X153502343Y-100649348D01*
X153503120Y-100654171D01*
X153503972Y-100658958D01*
X153504898Y-100663707D01*
X153505898Y-100668420D01*
X153506972Y-100673097D01*
X153508120Y-100677739D01*
X153509340Y-100682346D01*
X153510635Y-100686920D01*
X153512002Y-100691460D01*
X153513443Y-100695968D01*
X153514957Y-100700443D01*
X153516544Y-100704886D01*
X153518205Y-100709299D01*
X153519939Y-100713681D01*
X153521747Y-100718032D01*
X153523629Y-100722354D01*
X153525585Y-100726646D01*
X153527615Y-100730909D01*
X153529720Y-100735144D01*
X153531899Y-100739351D01*
X153534154Y-100743530D01*
X153536484Y-100747681D01*
X153538891Y-100751805D01*
X153541374Y-100755903D01*
X153543933Y-100759973D01*
X153546571Y-100764018D01*
X153549286Y-100768036D01*
X153552079Y-100772028D01*
X153554952Y-100775994D01*
X153557904Y-100779934D01*
X153560937Y-100783849D01*
X153564050Y-100787739D01*
X153567245Y-100791602D01*
X153570522Y-100795440D01*
X153573881Y-100799253D01*
X153577324Y-100803040D01*
X153580852Y-100806802D01*
X153584464Y-100810537D01*
X153588162Y-100814247D01*
X153591946Y-100817931D01*
X153595817Y-100821588D01*
X153599775Y-100825219D01*
X153603822Y-100828823D01*
X153607958Y-100832400D01*
X153612184Y-100835949D01*
X153616500Y-100839471D01*
X153620907Y-100842964D01*
X153625405Y-100846428D01*
X153629996Y-100849864D01*
X153634679Y-100853269D01*
X153639456Y-100856644D01*
X153644326Y-100859988D01*
X153649290Y-100863301D01*
X153654348Y-100866581D01*
X153659501Y-100869828D01*
X153664749Y-100873041D01*
X153670091Y-100876219D01*
X153675528Y-100879361D01*
X153681060Y-100882467D01*
X153686686Y-100885535D01*
X153692406Y-100888564D01*
X153698219Y-100891553D01*
X153704125Y-100894501D01*
X153710122Y-100897406D01*
X153716209Y-100900267D01*
X153722384Y-100903083D01*
X153728647Y-100905852D01*
X153734994Y-100908572D01*
X153741422Y-100911242D01*
X153747930Y-100913860D01*
X153754512Y-100916423D01*
X153761165Y-100918929D01*
X153767882Y-100921377D01*
X153774660Y-100923763D01*
X153781489Y-100926085D01*
X153788361Y-100928339D01*
X153795267Y-100930523D01*
X153802195Y-100932633D01*
X153809129Y-100934664D01*
X153816051Y-100936611D01*
X153822941Y-100938471D01*
X153829771Y-100940235D01*
X153836506Y-100941898D01*
X153843100Y-100943449D01*
X153848844Y-100944736D01*
X154369226Y-101271920D02*
X154380389Y-101280485D01*
X154391687Y-101289053D01*
X154403120Y-101297624D01*
X154414688Y-101306197D01*
X154426391Y-101314771D01*
X154438229Y-101323345D01*
X154450201Y-101331919D01*
X154462308Y-101340491D01*
X154474549Y-101349060D01*
X154486923Y-101357626D01*
X154499430Y-101366188D01*
X154512069Y-101374744D01*
X154524840Y-101383293D01*
X154537741Y-101391833D01*
X154550772Y-101400365D01*
X154563931Y-101408885D01*
X154577217Y-101417394D01*
X154590628Y-101425888D01*
X154604163Y-101434367D01*
X154617820Y-101442830D01*
X154631596Y-101451273D01*
X154645490Y-101459695D01*
X154659499Y-101468094D01*
X154673620Y-101476469D01*
X154687849Y-101484816D01*
X154702184Y-101493133D01*
X154716620Y-101501417D01*
X154731153Y-101509666D01*
X154745778Y-101517878D01*
X154760491Y-101526047D01*
X154775284Y-101534172D01*
X154790153Y-101542247D01*
X154805088Y-101550270D01*
X154820084Y-101558236D01*
X154835130Y-101566140D01*
X154850217Y-101573977D01*
X154865333Y-101581741D01*
X154880467Y-101589426D01*
X154895604Y-101597026D01*
X154910728Y-101604531D01*
X154925820Y-101611934D01*
X154940861Y-101619225D01*
X154955826Y-101626394D01*
X154970687Y-101633427D01*
X154985412Y-101640311D01*
X154999961Y-101647027D01*
X155014288Y-101653558D01*
X155028335Y-101659877D01*
X155042031Y-101665957D01*
X155055286Y-101671758D01*
X155056137Y-101672128D01*
X155056137Y-101672128D02*
X155056502Y-101672270D01*
X155056863Y-101672390D01*
X155057223Y-101672488D01*
X155057580Y-101672565D01*
X155058285Y-101672658D01*
X155058978Y-101672670D01*
X155059658Y-101672605D01*
X155060321Y-101672462D01*
X155060965Y-101672243D01*
X155061586Y-101671949D01*
X155062176Y-101671582D01*
X155062730Y-101671144D01*
X155063240Y-101670641D01*
X155063696Y-101670079D01*
X155064091Y-101669467D01*
X155064263Y-101669145D01*
X155064417Y-101668814D01*
X155064551Y-101668477D01*
X155064667Y-101668133D01*
X155064762Y-101667786D01*
X155064838Y-101667435D01*
X155064893Y-101667084D01*
X155064928Y-101666730D01*
X155064942Y-101666381D01*
X155064936Y-101666030D01*
X155064909Y-101665685D01*
X155064862Y-101665340D01*
X155064796Y-101665004D01*
X155064709Y-101664668D01*
X155064604Y-101664342D01*
X155064477Y-101664019D01*
X155064333Y-101663704D01*
X155064168Y-101663394D01*
X155063985Y-101663093D01*
X155063781Y-101662797D01*
X155063559Y-101662510D01*
X155063315Y-101662230D01*
X155063053Y-101661958D01*
X155062769Y-101661694D01*
X155062329Y-101661333D01*
X155062329Y-101661333D02*
X155058766Y-101658696D01*
X155055118Y-101655970D01*
X155051565Y-101653289D01*
X155047942Y-101650528D01*
X155044409Y-101647811D01*
X155040818Y-101645021D01*
X155037313Y-101642273D01*
X155033759Y-101639460D01*
X155030289Y-101636687D01*
X155026777Y-101633854D01*
X155023346Y-101631060D01*
X155019881Y-101628211D01*
X155016494Y-101625400D01*
X155013078Y-101622538D01*
X155009738Y-101619713D01*
X155006374Y-101616841D01*
X155003083Y-101614004D01*
X154999774Y-101611124D01*
X154996536Y-101608279D01*
X154993283Y-101605394D01*
X154990099Y-101602543D01*
X154986904Y-101599653D01*
X154983776Y-101596798D01*
X154980639Y-101593906D01*
X154977569Y-101591048D01*
X154974492Y-101588156D01*
X154971480Y-101585297D01*
X154968464Y-101582406D01*
X154965510Y-101579547D01*
X154962556Y-101576658D01*
X154959662Y-101573801D01*
X154956769Y-101570915D01*
X154953936Y-101568060D01*
X154951105Y-101565179D01*
X154948332Y-101562328D01*
X154945563Y-101559452D01*
X154942851Y-101556606D01*
X154940145Y-101553735D01*
X154937494Y-101550895D01*
X154934850Y-101548031D01*
X154932260Y-101545197D01*
X154929677Y-101542340D01*
X154927148Y-101539513D01*
X154924628Y-101536665D01*
X154922160Y-101533845D01*
X154919701Y-101531005D01*
X154917294Y-101528193D01*
X154914896Y-101525362D01*
X154912549Y-101522559D01*
X154910213Y-101519737D01*
X154907926Y-101516943D01*
X154905650Y-101514131D01*
X154903423Y-101511346D01*
X154901208Y-101508545D01*
X154899039Y-101505770D01*
X154896884Y-101502979D01*
X154894775Y-101500214D01*
X154892679Y-101497433D01*
X154890628Y-101494679D01*
X154888591Y-101491909D01*
X154886598Y-101489165D01*
X154884620Y-101486407D01*
X154882684Y-101483674D01*
X154880764Y-101480927D01*
X154878885Y-101478204D01*
X154877022Y-101475469D01*
X154875200Y-101472757D01*
X154873394Y-101470034D01*
X154871627Y-101467333D01*
X154869877Y-101464621D01*
X154868166Y-101461932D01*
X154866472Y-101459232D01*
X154864816Y-101456554D01*
X154863176Y-101453866D01*
X154861574Y-101451200D01*
X154859990Y-101448523D01*
X154858441Y-101445868D01*
X154856910Y-101443204D01*
X154855415Y-101440560D01*
X154853938Y-101437907D01*
X154852495Y-101435275D01*
X154851070Y-101432634D01*
X154849680Y-101430014D01*
X154848307Y-101427384D01*
X154846968Y-101424775D01*
X154845647Y-101422158D01*
X154844358Y-101419560D01*
X154843088Y-101416954D01*
X154841850Y-101414367D01*
X154840631Y-101411773D01*
X154839443Y-101409197D01*
X154838273Y-101406614D01*
X154837134Y-101404050D01*
X154836014Y-101401478D01*
X154834924Y-101398925D01*
X154833852Y-101396364D01*
X154832810Y-101393822D01*
X154831787Y-101391272D01*
X154830793Y-101388740D01*
X154829817Y-101386201D01*
X154828870Y-101383680D01*
X154827942Y-101381152D01*
X154827042Y-101378641D01*
X154826161Y-101376124D01*
X154825306Y-101373623D01*
X154824471Y-101371116D01*
X154823663Y-101368625D01*
X154822874Y-101366128D01*
X154822111Y-101363647D01*
X154821367Y-101361160D01*
X154820649Y-101358689D01*
X154819950Y-101356212D01*
X154819276Y-101353750D01*
X154818622Y-101351282D01*
X154817992Y-101348830D01*
X154817382Y-101346372D01*
X154816796Y-101343928D01*
X154816230Y-101341479D01*
X154815687Y-101339044D01*
X154815164Y-101336603D01*
X154814664Y-101334177D01*
X154814184Y-101331745D01*
X154813727Y-101329327D01*
X154813290Y-101326904D01*
X154812875Y-101324494D01*
X154812480Y-101322079D01*
X154812107Y-101319676D01*
X154811754Y-101317269D01*
X154811424Y-101314874D01*
X154811112Y-101312475D01*
X154810823Y-101310087D01*
X154810553Y-101307695D01*
X154810305Y-101305314D01*
X154810076Y-101302929D01*
X154809869Y-101300555D01*
X154809682Y-101298177D01*
X154809515Y-101295809D01*
X154809369Y-101293438D01*
X154809243Y-101291076D01*
X154809137Y-101288711D01*
X154809052Y-101286355D01*
X154808987Y-101283996D01*
X154808942Y-101281646D01*
X154808917Y-101279292D01*
X154808912Y-101276947D01*
X154808927Y-101274599D01*
X154808963Y-101272259D01*
X154809018Y-101269916D01*
X154809094Y-101267581D01*
X154809189Y-101265243D01*
X154809305Y-101262912D01*
X154809441Y-101260578D01*
X154809596Y-101258252D01*
X154809772Y-101255923D01*
X154809967Y-101253600D01*
X154810183Y-101251275D01*
X154810418Y-101248956D01*
X154810674Y-101246634D01*
X154810949Y-101244318D01*
X154811245Y-101242000D01*
X154811560Y-101239687D01*
X154811896Y-101237372D01*
X154812252Y-101235062D01*
X154812628Y-101232750D01*
X154813024Y-101230442D01*
X154813440Y-101228132D01*
X154813876Y-101225827D01*
X154814333Y-101223519D01*
X154814810Y-101221216D01*
X154815308Y-101218911D01*
X154815825Y-101216609D01*
X154816363Y-101214305D01*
X154816921Y-101212005D01*
X154817501Y-101209702D01*
X154818100Y-101207403D01*
X154818720Y-101205102D01*
X154819360Y-101202804D01*
X154820022Y-101200503D01*
X154820704Y-101198205D01*
X154821408Y-101195906D01*
X154822131Y-101193608D01*
X154822877Y-101191309D01*
X154823643Y-101189012D01*
X154824430Y-101186712D01*
X154825238Y-101184415D01*
X154826069Y-101182116D01*
X154826920Y-101179818D01*
X154827793Y-101177518D01*
X154828687Y-101175220D01*
X154829603Y-101172919D01*
X154830540Y-101170620D01*
X154831500Y-101168319D01*
X154832481Y-101166018D01*
X154833485Y-101163716D01*
X154834511Y-101161414D01*
X154835559Y-101159111D01*
X154836629Y-101156808D01*
X154837723Y-101154503D01*
X154838838Y-101152198D01*
X154839976Y-101149891D01*
X154841137Y-101147584D01*
X154842321Y-101145276D01*
X154843528Y-101142967D01*
X154844759Y-101140656D01*
X154846012Y-101138345D01*
X154847290Y-101136032D01*
X154848590Y-101133718D01*
X154849915Y-101131402D01*
X154851263Y-101129086D01*
X154852635Y-101126768D01*
X154854032Y-101124448D01*
X154855453Y-101122127D01*
X154856898Y-101119805D01*
X154858367Y-101117481D01*
X154859862Y-101115155D01*
X154861381Y-101112828D01*
X154862926Y-101110499D01*
X154864495Y-101108169D01*
X154866090Y-101105837D01*
X154867710Y-101103503D01*
X154869357Y-101101167D01*
X154871028Y-101098829D01*
X154872726Y-101096490D01*
X154874450Y-101094149D01*
X154876201Y-101091805D01*
X154877977Y-101089460D01*
X154879781Y-101087112D01*
X154881611Y-101084763D01*
X154883469Y-101082411D01*
X154885353Y-101080059D01*
X154887265Y-101077702D01*
X154889204Y-101075345D01*
X154891171Y-101072985D01*
X154893166Y-101070624D01*
X154895190Y-101068259D01*
X154897240Y-101065893D01*
X154899321Y-101063524D01*
X154901429Y-101061153D01*
X154903567Y-101058779D01*
X154905732Y-101056405D01*
X154907929Y-101054026D01*
X154910153Y-101051647D01*
X154912409Y-101049263D01*
X154914692Y-101046879D01*
X154917008Y-101044491D01*
X154919352Y-101042103D01*
X154921728Y-101039710D01*
X154924133Y-101037316D01*
X154926570Y-101034918D01*
X154929037Y-101032520D01*
X154934067Y-101027714D01*
X154939223Y-101022898D01*
X154944508Y-101018072D01*
X154949923Y-101013236D01*
X154955471Y-101008390D01*
X154961152Y-101003534D01*
X154966968Y-100998667D01*
X154972922Y-100993791D01*
X154979016Y-100988905D01*
X154985250Y-100984008D01*
X154991628Y-100979102D01*
X154998150Y-100974185D01*
X155004820Y-100969259D01*
X155011638Y-100964322D01*
X155018607Y-100959376D01*
X155025729Y-100954420D01*
X155033005Y-100949454D01*
X155040438Y-100944479D01*
X155048030Y-100939494D01*
X155055783Y-100934500D01*
X155063699Y-100929496D01*
X155071780Y-100924484D01*
X155080027Y-100919462D01*
X155088444Y-100914432D01*
X155097033Y-100909393D01*
X155105794Y-100904346D01*
X155114732Y-100899290D01*
X155123847Y-100894226D01*
X155133142Y-100889154D01*
X155142619Y-100884074D01*
X155152281Y-100878987D01*
X155162129Y-100873892D01*
X155172166Y-100868790D01*
X155182395Y-100863682D01*
X155192816Y-100858566D01*
X155203433Y-100853444D01*
X155214249Y-100848316D01*
X155225264Y-100843183D01*
X155236482Y-100838043D01*
X155247905Y-100832898D01*
X155259535Y-100827748D01*
X155271375Y-100822593D01*
X155283427Y-100817433D01*
X155295693Y-100812269D01*
X155308176Y-100807101D01*
X155320879Y-100801930D01*
X155333803Y-100796754D01*
X155346951Y-100791576D01*
X155360325Y-100786396D01*
X155373928Y-100781212D01*
X155387763Y-100776027D01*
X155401832Y-100770840D01*
X155416137Y-100765651D01*
X155430681Y-100760461D01*
X155445466Y-100755271D01*
X155460495Y-100750080D01*
X155475771Y-100744889D01*
X155491296Y-100739698D01*
X155500637Y-100736615D01*
X155284579Y-97974047D02*
X155312485Y-98016832D01*
X155343831Y-98064758D01*
X155382048Y-98123065D01*
X155397349Y-98146392D01*
X155424239Y-98187392D01*
X155450570Y-98227579D01*
X155476323Y-98266966D01*
X155488976Y-98286363D01*
X155501477Y-98305564D01*
X155513824Y-98324570D01*
X155526014Y-98343383D01*
X155538045Y-98362004D01*
X155549914Y-98380435D01*
X155561620Y-98398677D01*
X155573159Y-98416731D01*
X155584529Y-98434600D01*
X155595728Y-98452283D01*
X155606753Y-98469784D01*
X155617602Y-98487103D01*
X155628273Y-98504241D01*
X155638763Y-98521200D01*
X155649070Y-98537982D01*
X155659191Y-98554587D01*
X155669124Y-98571018D01*
X155678866Y-98587275D01*
X155688415Y-98603361D01*
X155693117Y-98611339D01*
X155697770Y-98619276D01*
X155702373Y-98627169D01*
X155706926Y-98635021D01*
X155711429Y-98642831D01*
X155715882Y-98650599D01*
X155720284Y-98658326D01*
X155724636Y-98666011D01*
X155728936Y-98673655D01*
X155733184Y-98681258D01*
X155737381Y-98688820D01*
X155741526Y-98696342D01*
X155745618Y-98703822D01*
X155749657Y-98711263D01*
X155753643Y-98718663D01*
X155757576Y-98726024D01*
X155761456Y-98733344D01*
X155765281Y-98740625D01*
X155769052Y-98747867D01*
X155772768Y-98755069D01*
X155776430Y-98762232D01*
X155780036Y-98769357D01*
X155783587Y-98776442D01*
X155787083Y-98783489D01*
X155790522Y-98790497D01*
X155793905Y-98797468D01*
X155797231Y-98804400D01*
X155800500Y-98811295D01*
X155803712Y-98818151D01*
X155806866Y-98824970D01*
X155809963Y-98831752D01*
X155813001Y-98838497D01*
X155815981Y-98845205D01*
X155818901Y-98851876D01*
X155821763Y-98858510D01*
X155824566Y-98865108D01*
X155827309Y-98871670D01*
X155829992Y-98878195D01*
X155832614Y-98884685D01*
X155835176Y-98891139D01*
X155837677Y-98897557D01*
X155840117Y-98903940D01*
X155842495Y-98910288D01*
X155844812Y-98916601D01*
X155847066Y-98922878D01*
X155849258Y-98929122D01*
X155851388Y-98935330D01*
X155853454Y-98941505D01*
X155855457Y-98947645D01*
X155857397Y-98953751D01*
X155859272Y-98959823D01*
X155861084Y-98965862D01*
X155862830Y-98971868D01*
X155864512Y-98977840D01*
X155866129Y-98983779D01*
X155867681Y-98989685D01*
X155869167Y-98995558D01*
X155870586Y-99001399D01*
X155871940Y-99007207D01*
X155873227Y-99012984D01*
X155874447Y-99018728D01*
X155875599Y-99024440D01*
X155876684Y-99030121D01*
X155877702Y-99035770D01*
X155878651Y-99041388D01*
X155879532Y-99046975D01*
X155880344Y-99052530D01*
X155881087Y-99058055D01*
X155881761Y-99063550D01*
X155882365Y-99069013D01*
X155882899Y-99074447D01*
X155883363Y-99079851D01*
X155883756Y-99085224D01*
X155884078Y-99090568D01*
X155884330Y-99095882D01*
X155884510Y-99101167D01*
X155884618Y-99106423D01*
X155884654Y-99111650D01*
X155500637Y-100736615D02*
X155507769Y-100734285D01*
X155514866Y-100731987D01*
X155521925Y-100729723D01*
X155528949Y-100727491D01*
X155535936Y-100725292D01*
X155542887Y-100723124D01*
X155549801Y-100720989D01*
X155556680Y-100718886D01*
X155563522Y-100716815D01*
X155570330Y-100714775D01*
X155577101Y-100712767D01*
X155583837Y-100710791D01*
X155590538Y-100708845D01*
X155597203Y-100706930D01*
X155603833Y-100705047D01*
X155610429Y-100703194D01*
X155616989Y-100701371D01*
X155623515Y-100699579D01*
X155630006Y-100697817D01*
X155636463Y-100696085D01*
X155642885Y-100694383D01*
X155649274Y-100692710D01*
X155655627Y-100691067D01*
X155661948Y-100689454D01*
X155668233Y-100687869D01*
X155674486Y-100686314D01*
X155680704Y-100684788D01*
X155686890Y-100683290D01*
X155693041Y-100681821D01*
X155699160Y-100680381D01*
X155705245Y-100678969D01*
X155711298Y-100677585D01*
X155717317Y-100676229D01*
X155723304Y-100674900D01*
X155729258Y-100673600D01*
X155735179Y-100672327D01*
X155741068Y-100671081D01*
X155746925Y-100669862D01*
X155752749Y-100668671D01*
X155758542Y-100667507D01*
X155764302Y-100666369D01*
X155770031Y-100665258D01*
X155775728Y-100664173D01*
X155781393Y-100663115D01*
X155787027Y-100662082D01*
X155792630Y-100661076D01*
X155798201Y-100660096D01*
X155803742Y-100659141D01*
X155809251Y-100658212D01*
X155814729Y-100657308D01*
X155820177Y-100656430D01*
X155825594Y-100655577D01*
X155830981Y-100654749D01*
X155836337Y-100653945D01*
X155841663Y-100653167D01*
X155846958Y-100652412D01*
X155852224Y-100651683D01*
X155857459Y-100650977D01*
X155862666Y-100650296D01*
X155867842Y-100649639D01*
X155872989Y-100649005D01*
X155878106Y-100648395D01*
X155883194Y-100647809D01*
X155888252Y-100647246D01*
X155893282Y-100646707D01*
X155898282Y-100646190D01*
X155903255Y-100645697D01*
X155908197Y-100645227D01*
X155913112Y-100644779D01*
X155917997Y-100644354D01*
X155922855Y-100643951D01*
X155927684Y-100643571D01*
X155932485Y-100643213D01*
X155937258Y-100642877D01*
X155942003Y-100642563D01*
X155946720Y-100642271D01*
X155951410Y-100642000D01*
X155956071Y-100641751D01*
X155960706Y-100641523D01*
X155965313Y-100641317D01*
X155969893Y-100641132D01*
X155974445Y-100640968D01*
X155978971Y-100640825D01*
X155983469Y-100640702D01*
X155987942Y-100640601D01*
X155992386Y-100640519D01*
X155996806Y-100640459D01*
X156001197Y-100640418D01*
X156005564Y-100640398D01*
X156009902Y-100640398D01*
X156014217Y-100640417D01*
X156018503Y-100640457D01*
X156022766Y-100640516D01*
X156027001Y-100640594D01*
X156031212Y-100640693D01*
X156035395Y-100640810D01*
X156039555Y-100640947D01*
X156043688Y-100641103D01*
X156047797Y-100641277D01*
X156051879Y-100641471D01*
X156055939Y-100641683D01*
X156059971Y-100641914D01*
X156063981Y-100642164D01*
X156067963Y-100642432D01*
X156071924Y-100642718D01*
X156075857Y-100643023D01*
X156079769Y-100643345D01*
X156083653Y-100643686D01*
X156087517Y-100644044D01*
X156091353Y-100644420D01*
X156095168Y-100644814D01*
X156098957Y-100645225D01*
X156102724Y-100645654D01*
X156106465Y-100646100D01*
X156110186Y-100646564D01*
X156113880Y-100647044D01*
X156117554Y-100647542D01*
X156121201Y-100648056D01*
X156124829Y-100648588D01*
X156128430Y-100649136D01*
X156132012Y-100649701D01*
X156135567Y-100650282D01*
X156139103Y-100650880D01*
X156142613Y-100651494D01*
X156146104Y-100652125D01*
X156149569Y-100652771D01*
X156153015Y-100653434D01*
X156156435Y-100654112D01*
X156159837Y-100654807D01*
X156163213Y-100655517D01*
X156166571Y-100656243D01*
X156169903Y-100656985D01*
X156173218Y-100657742D01*
X156176506Y-100658514D01*
X156179778Y-100659303D01*
X156183023Y-100660106D01*
X156186252Y-100660925D01*
X156189454Y-100661758D01*
X156192640Y-100662607D01*
X156195801Y-100663470D01*
X156198945Y-100664349D01*
X156202063Y-100665242D01*
X156205165Y-100666151D01*
X156208242Y-100667073D01*
X156214338Y-100668962D01*
X156220352Y-100670908D01*
X156226285Y-100672912D01*
X156232137Y-100674972D01*
X156237908Y-100677088D01*
X156243601Y-100679259D01*
X156249215Y-100681485D01*
X156254750Y-100683766D01*
X156260208Y-100686100D01*
X156265589Y-100688488D01*
X156270893Y-100690928D01*
X156276121Y-100693421D01*
X156281274Y-100695965D01*
X156286352Y-100698561D01*
X156291355Y-100701208D01*
X156296284Y-100703905D01*
X156301140Y-100706653D01*
X156305922Y-100709449D01*
X156310632Y-100712296D01*
X156315269Y-100715190D01*
X156319834Y-100718134D01*
X156324327Y-100721125D01*
X156328748Y-100724163D01*
X156333098Y-100727249D01*
X156337378Y-100730381D01*
X156341586Y-100733559D01*
X156345723Y-100736783D01*
X156349790Y-100740053D01*
X156353787Y-100743367D01*
X156357713Y-100746725D01*
X156361568Y-100750127D01*
X156365353Y-100753572D01*
X156369068Y-100757060D01*
X156372712Y-100760590D01*
X156376285Y-100764161D01*
X156379787Y-100767773D01*
X156383217Y-100771424D01*
X156386577Y-100775114D01*
X156389864Y-100778843D01*
X156393079Y-100782608D01*
X156396221Y-100786410D01*
X156399290Y-100790246D01*
X156402285Y-100794115D01*
X156405205Y-100798016D01*
X156408049Y-100801947D01*
X156410817Y-100805906D01*
X156413508Y-100809891D01*
X156416120Y-100813900D01*
X156418653Y-100817930D01*
X156421104Y-100821978D01*
X156423474Y-100826039D01*
X156425759Y-100830111D01*
X156427958Y-100834189D01*
X156430069Y-100838266D01*
X156432090Y-100842337D01*
X156434018Y-100846394D01*
X156435850Y-100850427D01*
X156437583Y-100854427D01*
X156439212Y-100858380D01*
X156440734Y-100862269D01*
X156442142Y-100866072D01*
X156443430Y-100869762D01*
X156444588Y-100873301D01*
X156445605Y-100876633D01*
X156446461Y-100879672D01*
X156447127Y-100882260D01*
X156447533Y-100884023D01*
X156447581Y-100884252D01*
X155804961Y-99539958D02*
X155804144Y-99536583D01*
X155803253Y-99532995D01*
X155802368Y-99529523D01*
X155801418Y-99525882D01*
X155800471Y-99522339D01*
X155799465Y-99518658D01*
X155798461Y-99515066D01*
X155797403Y-99511356D01*
X155796346Y-99507729D01*
X155795238Y-99504002D01*
X155794132Y-99500353D01*
X155792977Y-99496617D01*
X155791824Y-99492954D01*
X155790624Y-99489217D01*
X155789426Y-99485550D01*
X155788184Y-99481817D01*
X155786943Y-99478151D01*
X155785660Y-99474428D01*
X155784378Y-99470770D01*
X155783056Y-99467061D01*
X155781735Y-99463415D01*
X155780376Y-99459723D01*
X155779017Y-99456094D01*
X155777622Y-99452424D01*
X155776227Y-99448813D01*
X155774796Y-99445167D01*
X155773367Y-99441580D01*
X155771902Y-99437960D01*
X155770439Y-99434398D01*
X155768941Y-99430807D01*
X155767445Y-99427272D01*
X155765916Y-99423711D01*
X155764388Y-99420206D01*
X155762828Y-99416677D01*
X155761270Y-99413203D01*
X155759680Y-99409708D01*
X155758091Y-99406265D01*
X155756473Y-99402806D01*
X155754855Y-99399397D01*
X155753208Y-99395973D01*
X155751562Y-99392599D01*
X155749887Y-99389212D01*
X155748214Y-99385874D01*
X155746512Y-99382524D01*
X155744812Y-99379223D01*
X155743084Y-99375911D01*
X155741358Y-99372647D01*
X155739604Y-99369375D01*
X155737852Y-99366148D01*
X155736073Y-99362915D01*
X155734296Y-99359727D01*
X155732493Y-99356534D01*
X155730692Y-99353385D01*
X155728864Y-99350232D01*
X155727039Y-99347123D01*
X155725188Y-99344010D01*
X155723339Y-99340940D01*
X155721466Y-99337868D01*
X155719594Y-99334838D01*
X155717697Y-99331807D01*
X155715803Y-99328817D01*
X155713884Y-99325827D01*
X155711967Y-99322877D01*
X155710027Y-99319928D01*
X155708088Y-99317019D01*
X155706127Y-99314111D01*
X155704167Y-99311242D01*
X155702184Y-99308375D01*
X155700203Y-99305547D01*
X155698199Y-99302721D01*
X155696197Y-99299933D01*
X155694173Y-99297149D01*
X155692151Y-99294402D01*
X155690107Y-99291658D01*
X155688064Y-99288951D01*
X155686000Y-99286249D01*
X155683938Y-99283583D01*
X155681854Y-99280922D01*
X155679772Y-99278295D01*
X155677669Y-99275675D01*
X155675568Y-99273089D01*
X155673446Y-99270509D01*
X155671325Y-99267964D01*
X155669184Y-99265425D01*
X155667045Y-99262919D01*
X155664885Y-99260420D01*
X155662727Y-99257954D01*
X155660548Y-99255496D01*
X155658371Y-99253070D01*
X155656174Y-99250652D01*
X155653979Y-99248265D01*
X155651764Y-99245887D01*
X155649550Y-99243540D01*
X155647317Y-99241202D01*
X155645085Y-99238894D01*
X155642834Y-99236595D01*
X155640584Y-99234326D01*
X155638315Y-99232067D01*
X155636048Y-99229837D01*
X155633761Y-99227617D01*
X155631475Y-99225426D01*
X155629171Y-99223245D01*
X155626867Y-99221093D01*
X155624545Y-99218951D01*
X155622224Y-99216837D01*
X155619884Y-99214733D01*
X155617545Y-99212657D01*
X155615188Y-99210592D01*
X155612831Y-99208555D01*
X155610457Y-99206528D01*
X155608083Y-99204528D01*
X155605691Y-99202539D01*
X155603299Y-99200577D01*
X155600889Y-99198627D01*
X155598480Y-99196702D01*
X155596053Y-99194789D01*
X155593626Y-99192902D01*
X155591182Y-99191027D01*
X155588738Y-99189176D01*
X155586276Y-99187339D01*
X155583814Y-99185526D01*
X155581335Y-99183725D01*
X155578855Y-99181949D01*
X155576358Y-99180185D01*
X155573861Y-99178446D01*
X155571347Y-99176719D01*
X155568832Y-99175016D01*
X155566300Y-99173326D01*
X155563767Y-99171660D01*
X155561217Y-99170007D01*
X155558666Y-99168376D01*
X155556099Y-99166760D01*
X155553530Y-99165166D01*
X155550945Y-99163585D01*
X155548359Y-99162027D01*
X155545755Y-99160483D01*
X155543151Y-99158961D01*
X155540529Y-99157453D01*
X155537906Y-99155967D01*
X155535267Y-99154495D01*
X155532626Y-99153045D01*
X155529968Y-99151608D01*
X155527308Y-99150194D01*
X155524632Y-99148793D01*
X155521954Y-99147414D01*
X155519259Y-99146050D01*
X155516562Y-99144706D01*
X155513849Y-99143377D01*
X155511133Y-99142069D01*
X155508401Y-99140776D01*
X155505666Y-99139503D01*
X155502915Y-99138245D01*
X155500161Y-99137008D01*
X155497390Y-99135786D01*
X155494617Y-99134584D01*
X155491827Y-99133397D01*
X155489034Y-99132230D01*
X155486225Y-99131079D01*
X155483412Y-99129947D01*
X155480584Y-99128831D01*
X155477751Y-99127735D01*
X155474902Y-99126654D01*
X155472049Y-99125594D01*
X155469181Y-99124548D01*
X155466308Y-99123523D01*
X155463419Y-99122513D01*
X155460525Y-99121523D01*
X155457616Y-99120548D01*
X155454701Y-99119594D01*
X155451772Y-99118655D01*
X155448836Y-99117735D01*
X155445885Y-99116832D01*
X155442929Y-99115948D01*
X155439957Y-99115080D01*
X155436979Y-99114232D01*
X155433986Y-99113400D01*
X155430986Y-99112587D01*
X155427971Y-99111791D01*
X155424950Y-99111014D01*
X155421913Y-99110253D01*
X155418869Y-99109512D01*
X155415811Y-99108787D01*
X155412745Y-99108082D01*
X155409664Y-99107393D01*
X155406575Y-99106724D01*
X155403471Y-99106072D01*
X155400360Y-99105438D01*
X155397234Y-99104822D01*
X155394099Y-99104225D01*
X155390949Y-99103646D01*
X155387792Y-99103085D01*
X155384619Y-99102542D01*
X155381437Y-99102018D01*
X155378241Y-99101512D01*
X155375035Y-99101025D01*
X155371815Y-99100556D01*
X155368585Y-99100105D01*
X155365341Y-99099673D01*
X155362087Y-99099260D01*
X155358817Y-99098865D01*
X155355539Y-99098490D01*
X155352245Y-99098132D01*
X155348941Y-99097794D01*
X155345622Y-99097474D01*
X155342293Y-99097174D01*
X155338949Y-99096892D01*
X155335594Y-99096630D01*
X155332225Y-99096387D01*
X155328844Y-99096163D01*
X155325448Y-99095958D01*
X155322042Y-99095772D01*
X155318620Y-99095606D01*
X155315187Y-99095459D01*
X155311738Y-99095332D01*
X155308279Y-99095224D01*
X155304803Y-99095136D01*
X155301316Y-99095068D01*
X155297814Y-99095019D01*
X155294300Y-99094991D01*
X155290770Y-99094982D01*
X155287228Y-99094993D01*
X155283671Y-99095025D01*
X155280101Y-99095076D01*
X155276516Y-99095148D01*
X155272917Y-99095241D01*
X155269304Y-99095353D01*
X155265677Y-99095486D01*
X155262035Y-99095640D01*
X155258379Y-99095815D01*
X155254708Y-99096010D01*
X155251023Y-99096226D01*
X155247322Y-99096463D01*
X155243608Y-99096721D01*
X155239878Y-99097000D01*
X155236134Y-99097301D01*
X155232374Y-99097622D01*
X155228599Y-99097966D01*
X155224809Y-99098330D01*
X155221004Y-99098716D01*
X155217184Y-99099125D01*
X155213348Y-99099554D01*
X155209496Y-99100006D01*
X155205630Y-99100480D01*
X155201747Y-99100976D01*
X155197849Y-99101494D01*
X155193935Y-99102034D01*
X155190005Y-99102597D01*
X155186059Y-99103182D01*
X155182097Y-99103790D01*
X155178119Y-99104421D01*
X155174125Y-99105075D01*
X155170114Y-99105752D01*
X155166087Y-99106451D01*
X155162044Y-99107174D01*
X155157984Y-99107921D01*
X155153907Y-99108690D01*
X155149814Y-99109484D01*
X155145704Y-99110301D01*
X155141577Y-99111141D01*
X155137434Y-99112006D01*
X155133273Y-99112895D01*
X155129095Y-99113807D01*
X155124900Y-99114745D01*
X155120688Y-99115706D01*
X155116458Y-99116692D01*
X155112211Y-99117703D01*
X155107946Y-99118738D01*
X155103664Y-99119798D01*
X155099364Y-99120884D01*
X155095047Y-99121994D01*
X155090711Y-99123130D01*
X155086358Y-99124291D01*
X155081986Y-99125478D01*
X155077597Y-99126690D01*
X155073189Y-99127929D01*
X155068764Y-99129193D01*
X155064319Y-99130483D01*
X155059857Y-99131799D01*
X155055375Y-99133142D01*
X155050876Y-99134512D01*
X155046357Y-99135908D01*
X155041821Y-99137330D01*
X155037265Y-99138780D01*
X155032691Y-99140257D01*
X155028096Y-99141761D01*
X155023484Y-99143292D01*
X155018852Y-99144850D01*
X155014201Y-99146436D01*
X155009530Y-99148051D01*
X155004841Y-99149692D01*
X155000131Y-99151363D01*
X154995403Y-99153061D01*
X154990653Y-99154787D01*
X154985886Y-99156542D01*
X154981097Y-99158326D01*
X154976290Y-99160138D01*
X154971461Y-99161980D01*
X154966614Y-99163850D01*
X154961745Y-99165750D01*
X154956858Y-99167679D01*
X154951949Y-99169638D01*
X154947021Y-99171626D01*
X154942070Y-99173645D01*
X154937101Y-99175693D01*
X154932110Y-99177772D01*
X154927100Y-99179880D01*
X154922066Y-99182020D01*
X154917015Y-99184189D01*
X154911940Y-99186390D01*
X154906846Y-99188622D01*
X154901729Y-99190885D01*
X154896593Y-99193179D01*
X154891433Y-99195505D01*
X154886254Y-99197861D01*
X154881052Y-99200251D01*
X154875830Y-99202671D01*
X154870585Y-99205125D01*
X154865320Y-99207609D01*
X154860031Y-99210128D01*
X154854722Y-99212677D01*
X154849389Y-99215261D01*
X154844037Y-99217876D01*
X154838660Y-99220526D01*
X154833263Y-99223208D01*
X154827841Y-99225924D01*
X154822400Y-99228673D01*
X154816934Y-99231457D01*
X154811448Y-99234273D01*
X154805936Y-99237125D01*
X154800405Y-99240010D01*
X154794848Y-99242931D01*
X154789271Y-99245885D01*
X154783668Y-99248875D01*
X154778045Y-99251899D01*
X154772396Y-99254959D01*
X154766727Y-99258053D01*
X154761032Y-99261185D01*
X154755316Y-99264350D01*
X154749574Y-99267553D01*
X154743811Y-99270790D01*
X154738022Y-99274065D01*
X154732212Y-99277375D01*
X154726376Y-99280723D01*
X154720519Y-99284107D01*
X154714634Y-99287529D01*
X154708729Y-99290986D01*
X154702797Y-99294482D01*
X154696843Y-99298014D01*
X154690862Y-99301586D01*
X154684860Y-99305193D01*
X154678831Y-99308841D01*
X154672780Y-99312524D01*
X154666701Y-99316249D01*
X154660602Y-99320009D01*
X154654473Y-99323811D01*
X154648324Y-99327649D01*
X154642146Y-99331529D01*
X154635947Y-99335446D01*
X154629719Y-99339405D01*
X154623470Y-99343401D01*
X154617192Y-99347439D01*
X154610892Y-99351515D01*
X154604563Y-99355634D01*
X154598212Y-99359790D01*
X154591832Y-99363990D01*
X154585430Y-99368229D01*
X154578999Y-99372510D01*
X154572546Y-99376831D01*
X154566063Y-99381195D01*
X154559558Y-99385599D01*
X154553023Y-99390047D01*
X154546465Y-99394534D01*
X154539878Y-99399066D01*
X154533268Y-99403638D01*
X154526628Y-99408256D01*
X154519966Y-99412913D01*
X154513273Y-99417616D01*
X154506557Y-99422359D01*
X154499811Y-99427149D01*
X154493042Y-99431979D01*
X154486242Y-99436856D01*
X154479419Y-99441774D01*
X154472565Y-99446739D01*
X154465688Y-99451746D01*
X154458780Y-99456800D01*
X154451849Y-99461896D01*
X154444886Y-99467040D01*
X154437900Y-99472226D01*
X154430882Y-99477460D01*
X154423841Y-99482737D01*
X154416768Y-99488063D01*
X154409671Y-99493432D01*
X154402542Y-99498850D01*
X154395390Y-99504311D01*
X154388205Y-99509822D01*
X154380997Y-99515376D01*
X154373756Y-99520981D01*
X154366491Y-99526630D01*
X154359194Y-99532329D01*
X154351872Y-99538073D01*
X154344518Y-99543868D01*
X154337139Y-99549707D01*
X154329727Y-99555598D01*
X154322291Y-99561535D01*
X154322077Y-99561706D01*
X155884654Y-99111650D02*
X155884614Y-99121626D01*
X155884495Y-99131653D01*
X155884296Y-99141729D01*
X155884017Y-99151854D01*
X155883657Y-99162027D01*
X155883216Y-99172246D01*
X155882693Y-99182510D01*
X155882090Y-99192818D01*
X155881404Y-99203169D01*
X155880636Y-99213560D01*
X155879786Y-99223991D01*
X155878854Y-99234460D01*
X155877839Y-99244964D01*
X155876742Y-99255501D01*
X155875561Y-99266069D01*
X155874299Y-99276665D01*
X155872953Y-99287286D01*
X155871526Y-99297930D01*
X155870016Y-99308593D01*
X155868425Y-99319271D01*
X155866752Y-99329960D01*
X155864999Y-99340656D01*
X155863166Y-99351353D01*
X155861254Y-99362047D01*
X155859263Y-99372731D01*
X155857197Y-99383398D01*
X155855055Y-99394042D01*
X155852840Y-99404654D01*
X155850553Y-99415224D01*
X155848199Y-99425743D01*
X155845778Y-99436198D01*
X155843296Y-99446577D01*
X155840757Y-99456863D01*
X155838165Y-99467040D01*
X155835527Y-99477085D01*
X155832851Y-99486976D01*
X155830146Y-99496682D01*
X155827424Y-99506167D01*
X155824699Y-99515389D01*
X155821992Y-99524289D01*
X155819329Y-99532794D01*
X155816867Y-99540434D01*
X156009590Y-101870248D02*
X156003721Y-101872462D01*
X155997799Y-101874611D01*
X155991821Y-101876695D01*
X155985789Y-101878714D01*
X155979700Y-101880668D01*
X155973555Y-101882556D01*
X155967353Y-101884378D01*
X155961094Y-101886133D01*
X155954776Y-101887823D01*
X155948399Y-101889445D01*
X155941963Y-101891000D01*
X155935467Y-101892488D01*
X155928911Y-101893907D01*
X155922293Y-101895258D01*
X155915614Y-101896541D01*
X155908871Y-101897754D01*
X155902066Y-101898898D01*
X155895198Y-101899971D01*
X155888265Y-101900973D01*
X155881267Y-101901905D01*
X155874204Y-101902765D01*
X155867074Y-101903552D01*
X155859878Y-101904266D01*
X155852615Y-101904908D01*
X155845284Y-101905475D01*
X155837884Y-101905967D01*
X155830416Y-101906384D01*
X155822878Y-101906725D01*
X155815270Y-101906989D01*
X155807591Y-101907176D01*
X155799842Y-101907286D01*
X155792020Y-101907316D01*
X155784126Y-101907267D01*
X155776160Y-101907138D01*
X155768120Y-101906928D01*
X155760007Y-101906636D01*
X155751820Y-101906262D01*
X155743558Y-101905805D01*
X155735222Y-101905263D01*
X155726810Y-101904638D01*
X155718322Y-101903926D01*
X155709758Y-101903129D01*
X155701118Y-101902244D01*
X155692402Y-101901271D01*
X155683608Y-101900210D01*
X155674738Y-101899059D01*
X155665790Y-101897818D01*
X155656764Y-101896486D01*
X155647662Y-101895062D01*
X155638481Y-101893545D01*
X155629223Y-101891935D01*
X155619887Y-101890231D01*
X155610474Y-101888432D01*
X155600983Y-101886537D01*
X155591414Y-101884545D01*
X155581769Y-101882456D01*
X155572047Y-101880270D01*
X155562249Y-101877984D01*
X155552375Y-101875600D01*
X155542426Y-101873116D01*
X155532402Y-101870531D01*
X155522304Y-101867845D01*
X155512132Y-101865058D01*
X155501889Y-101862169D01*
X155491575Y-101859177D01*
X155481191Y-101856082D01*
X155470739Y-101852885D01*
X155460219Y-101849584D01*
X155449635Y-101846180D01*
X155438987Y-101842672D01*
X155428278Y-101839061D01*
X155417510Y-101835347D01*
X155406686Y-101831529D01*
X155395808Y-101827609D01*
X155384880Y-101823587D01*
X155373906Y-101819464D01*
X155362888Y-101815241D01*
X155351833Y-101810918D01*
X155340743Y-101806498D01*
X155329625Y-101801982D01*
X155318485Y-101797372D01*
X155307329Y-101792671D01*
X155296165Y-101787881D01*
X155285002Y-101783006D01*
X155273847Y-101778051D01*
X155262713Y-101773018D01*
X155251612Y-101767915D01*
X155240556Y-101762748D01*
X155229564Y-101757525D01*
X155218652Y-101752254D01*
X155207842Y-101746948D01*
X155197162Y-101741619D01*
X155186640Y-101736284D01*
X155176316Y-101730964D01*
X155166235Y-101725686D01*
X155156457Y-101720481D01*
X155147060Y-101715397D01*
X155138153Y-101710495D01*
X155129891Y-101705869D01*
X155122531Y-101701673D01*
X155116559Y-101698200D01*
X155113287Y-101696258D01*
X156097220Y-100109552D02*
X156085523Y-100089992D01*
X156073967Y-100070515D01*
X156062553Y-100051123D01*
X156051286Y-100031824D01*
X156040166Y-100012623D01*
X156029198Y-99993525D01*
X156018384Y-99974538D01*
X156007727Y-99955668D01*
X155997231Y-99936923D01*
X155986899Y-99918311D01*
X155976735Y-99899840D01*
X155966743Y-99881519D01*
X155956928Y-99863359D01*
X155947294Y-99845370D01*
X155937847Y-99827563D01*
X155928592Y-99809953D01*
X155919535Y-99792552D01*
X155910683Y-99775378D01*
X155902044Y-99758446D01*
X155893625Y-99741776D01*
X155885437Y-99725390D01*
X155877489Y-99709314D01*
X155869793Y-99693574D01*
X155862362Y-99678203D01*
X155855214Y-99663241D01*
X155848366Y-99648733D01*
X155841842Y-99634733D01*
X155835669Y-99621312D01*
X155829883Y-99608557D01*
X155824533Y-99596587D01*
X155819684Y-99585567D01*
X155815439Y-99575754D01*
X155811978Y-99567599D01*
X155809406Y-99561388D01*
X156447581Y-100884252D02*
X156446020Y-100879502D01*
X156444083Y-100873694D01*
X156441388Y-100865712D01*
X156437945Y-100855642D01*
X156433763Y-100843571D01*
X156428851Y-100829585D01*
X156423220Y-100813770D01*
X156420138Y-100805203D01*
X156416879Y-100796211D01*
X156413446Y-100786805D01*
X156409838Y-100776996D01*
X156406058Y-100766794D01*
X156402106Y-100756210D01*
X156397984Y-100745255D01*
X156393693Y-100733940D01*
X156389234Y-100722276D01*
X156384609Y-100710272D01*
X156379818Y-100697941D01*
X156374862Y-100685292D01*
X156369744Y-100672337D01*
X156364464Y-100659086D01*
X156359023Y-100645550D01*
X156353423Y-100631740D01*
X156347664Y-100617667D01*
X156341748Y-100603341D01*
X156335677Y-100588774D01*
X156329451Y-100573975D01*
X156323071Y-100558956D01*
X156316540Y-100543728D01*
X156309857Y-100528301D01*
X156303024Y-100512686D01*
X156296043Y-100496893D01*
X156288914Y-100480935D01*
X156281639Y-100464821D01*
X156274220Y-100448561D01*
X156266656Y-100432168D01*
X156258949Y-100415652D01*
X156255043Y-100407351D01*
X156251102Y-100399023D01*
X156247125Y-100390669D01*
X156243114Y-100382292D01*
X156239068Y-100373892D01*
X156234987Y-100365470D01*
X156230872Y-100357029D01*
X156226722Y-100348568D01*
X156222538Y-100340091D01*
X156218321Y-100331597D01*
X156214069Y-100323089D01*
X156209784Y-100314567D01*
X156205465Y-100306033D01*
X156201113Y-100297489D01*
X156196728Y-100288935D01*
X156192309Y-100280374D01*
X156187858Y-100271806D01*
X156183373Y-100263232D01*
X156178857Y-100254655D01*
X156174307Y-100246076D01*
X156169725Y-100237495D01*
X156165111Y-100228914D01*
X156160465Y-100220334D01*
X156155788Y-100211758D01*
X156151078Y-100203186D01*
X156146337Y-100194619D01*
X156141564Y-100186059D01*
X156136760Y-100177507D01*
X156131925Y-100168965D01*
X156127059Y-100160434D01*
X156122162Y-100151915D01*
X156117234Y-100143410D01*
X156112276Y-100134920D01*
X156107288Y-100126446D01*
X156102269Y-100117989D01*
X156097220Y-100109552D01*
X156447740Y-100840437D02*
X156447539Y-100842985D01*
X156446906Y-100850431D01*
X156446414Y-100855897D01*
X156445797Y-100862475D01*
X156445051Y-100870129D01*
X156444169Y-100878820D01*
X156443146Y-100888512D01*
X156441978Y-100899167D01*
X156440657Y-100910747D01*
X156439179Y-100923216D01*
X156437538Y-100936537D01*
X156435729Y-100950671D01*
X156433747Y-100965581D01*
X156432688Y-100973316D01*
X156431585Y-100981231D01*
X156430435Y-100989321D01*
X156429238Y-100997583D01*
X156427994Y-101006010D01*
X156426701Y-101014599D01*
X156425360Y-101023344D01*
X156423969Y-101032242D01*
X156422527Y-101041288D01*
X156421035Y-101050476D01*
X156419491Y-101059802D01*
X156417895Y-101069262D01*
X156416246Y-101078850D01*
X156414543Y-101088563D01*
X156412785Y-101098395D01*
X156410973Y-101108342D01*
X156409104Y-101118399D01*
X156407180Y-101128562D01*
X156405198Y-101138825D01*
X156403158Y-101149185D01*
X156401060Y-101159636D01*
X156398902Y-101170174D01*
X156396685Y-101180794D01*
X156394407Y-101191492D01*
X156392068Y-101202262D01*
X156389667Y-101213101D01*
X156387203Y-101224003D01*
X156384676Y-101234964D01*
X156382085Y-101245980D01*
X156379430Y-101257044D01*
X156376709Y-101268154D01*
X156373922Y-101279304D01*
X156371068Y-101290489D01*
X156368147Y-101301705D01*
X156365157Y-101312947D01*
X156362099Y-101324211D01*
X156358972Y-101335492D01*
X156355774Y-101346785D01*
X156352505Y-101358085D01*
X156349165Y-101369389D01*
X156345753Y-101380690D01*
X156342267Y-101391985D01*
X156338709Y-101403269D01*
X156335075Y-101414537D01*
X156331367Y-101425785D01*
X156329485Y-101431400D01*
X156327584Y-101437007D01*
X156325663Y-101442608D01*
X156323723Y-101448200D01*
X156321765Y-101453784D01*
X156319786Y-101459359D01*
X156317789Y-101464923D01*
X156315772Y-101470478D01*
X156313735Y-101476021D01*
X156311678Y-101481553D01*
X156309602Y-101487073D01*
X156307506Y-101492580D01*
X156305390Y-101498074D01*
X156303254Y-101503554D01*
X156301098Y-101509019D01*
X156298922Y-101514470D01*
X156296725Y-101519905D01*
X156294508Y-101525323D01*
X156292271Y-101530725D01*
X156290013Y-101536110D01*
X156287734Y-101541477D01*
X156285435Y-101546825D01*
X156283115Y-101552154D01*
X156280774Y-101557463D01*
X156278412Y-101562752D01*
X156276029Y-101568020D01*
X156273625Y-101573267D01*
X156271199Y-101578492D01*
X156268753Y-101583694D01*
X156266285Y-101588873D01*
X156263795Y-101594028D01*
X156261284Y-101599158D01*
X156258751Y-101604264D01*
X156256197Y-101609344D01*
X156253620Y-101614399D01*
X156251022Y-101619426D01*
X156248402Y-101624426D01*
X156245760Y-101629399D01*
X156243095Y-101634343D01*
X156240408Y-101639258D01*
X156237699Y-101644143D01*
X156234968Y-101648998D01*
X156232214Y-101653822D01*
X156229437Y-101658615D01*
X156226638Y-101663376D01*
X156223816Y-101668105D01*
X156220971Y-101672800D01*
X156218103Y-101677462D01*
X156215212Y-101682089D01*
X156212298Y-101686682D01*
X156209361Y-101691239D01*
X156206401Y-101695760D01*
X156203417Y-101700245D01*
X156200410Y-101704692D01*
X156197379Y-101709102D01*
X156194324Y-101713473D01*
X156191246Y-101717805D01*
X156188144Y-101722098D01*
X156185018Y-101726351D01*
X156181869Y-101730563D01*
X156178695Y-101734734D01*
X156175497Y-101738862D01*
X156172275Y-101742949D01*
X156169028Y-101746992D01*
X156165757Y-101750992D01*
X156162462Y-101754948D01*
X156159142Y-101758859D01*
X156155797Y-101762724D01*
X156152428Y-101766544D01*
X156149034Y-101770317D01*
X156145615Y-101774043D01*
X156142171Y-101777721D01*
X156138702Y-101781351D01*
X156135207Y-101784932D01*
X156131688Y-101788464D01*
X156128143Y-101791946D01*
X156124573Y-101795377D01*
X156120977Y-101798757D01*
X156117355Y-101802085D01*
X156113708Y-101805361D01*
X156110035Y-101808584D01*
X156106337Y-101811753D01*
X156102612Y-101814868D01*
X156098861Y-101817929D01*
X156095085Y-101820934D01*
X156091282Y-101823884D01*
X156087453Y-101826777D01*
X156083597Y-101829613D01*
X156079715Y-101832391D01*
X156075806Y-101835112D01*
X156071871Y-101837773D01*
X156067909Y-101840375D01*
X156063920Y-101842918D01*
X156059905Y-101845399D01*
X156055862Y-101847820D01*
X156051793Y-101850179D01*
X156047696Y-101852476D01*
X156043572Y-101854709D01*
X156039421Y-101856880D01*
X156035242Y-101858986D01*
X156031036Y-101861028D01*
X156026802Y-101863005D01*
X156022541Y-101864916D01*
X156018252Y-101866760D01*
X156013935Y-101868538D01*
X156009590Y-101870248D01*
%TD*%
M02*
