%TF.GenerationSoftware,KiCad,Pcbnew,9.0.0*%
%TF.CreationDate,2026-05-13T15:55:25-05:00*%
%TF.ProjectId,Delta,44656c74-612e-46b6-9963-61645f706362,rev?*%
%TF.SameCoordinates,Original*%
%TF.FileFunction,Soldermask,Bot*%
%TF.FilePolarity,Negative*%
%FSLAX46Y46*%
G04 Gerber Fmt 4.6, Leading zero omitted, Abs format (unit mm)*
G04 Created by KiCad (PCBNEW 9.0.0) date 2026-05-13 15:55:25*
%MOMM*%
%LPD*%
G01*
G04 APERTURE LIST*
G04 Aperture macros list*
%AMRoundRect*
0 Rectangle with rounded corners*
0 $1 Rounding radius*
0 $2 $3 $4 $5 $6 $7 $8 $9 X,Y pos of 4 corners*
0 Add a 4 corners polygon primitive as box body*
4,1,4,$2,$3,$4,$5,$6,$7,$8,$9,$2,$3,0*
0 Add four circle primitives for the rounded corners*
1,1,$1+$1,$2,$3*
1,1,$1+$1,$4,$5*
1,1,$1+$1,$6,$7*
1,1,$1+$1,$8,$9*
0 Add four rect primitives between the rounded corners*
20,1,$1+$1,$2,$3,$4,$5,0*
20,1,$1+$1,$4,$5,$6,$7,0*
20,1,$1+$1,$6,$7,$8,$9,0*
20,1,$1+$1,$8,$9,$2,$3,0*%
G04 Aperture macros list end*
%ADD10C,1.600000*%
%ADD11C,6.000000*%
%ADD12R,1.730000X2.030000*%
%ADD13O,1.730000X2.030000*%
%ADD14C,5.200000*%
%ADD15RoundRect,0.336539X-1.413461X1.413461X-1.413461X-1.413461X1.413461X-1.413461X1.413461X1.413461X0*%
%ADD16C,3.500000*%
%ADD17C,2.750000*%
%ADD18C,8.000000*%
%ADD19C,3.200000*%
%ADD20RoundRect,0.250001X-1.599999X1.099999X-1.599999X-1.099999X1.599999X-1.099999X1.599999X1.099999X0*%
%ADD21O,3.700000X2.700000*%
%ADD22C,3.900000*%
%ADD23R,1.050000X1.500000*%
%ADD24O,1.050000X1.500000*%
%ADD25C,4.000000*%
%ADD26R,2.200000X2.200000*%
%ADD27O,2.200000X2.200000*%
%ADD28C,2.000000*%
%ADD29R,2.000000X2.000000*%
%ADD30O,6.000000X3.300000*%
%ADD31R,1.600000X1.600000*%
%ADD32O,1.600000X1.600000*%
%ADD33R,2.000000X1.905000*%
%ADD34O,2.000000X1.905000*%
G04 APERTURE END LIST*
D10*
%TO.C,R163*%
X96250000Y-135500000D03*
X101250000Y-136800000D03*
%TD*%
D11*
%TO.C,*%
X83000000Y-123900000D03*
%TD*%
D12*
%TO.C,J1*%
X80598000Y-136150000D03*
D13*
X83138000Y-136150000D03*
X85678000Y-136150000D03*
%TD*%
D14*
%TO.C,PAD5*%
X134620000Y-21766573D03*
%TD*%
D15*
%TO.C,J2*%
X173050000Y-136150000D03*
D16*
X173050000Y-140150000D03*
X173050000Y-144150000D03*
X173050000Y-152150000D03*
X173050000Y-156150000D03*
%TD*%
D14*
%TO.C,PAD4*%
X157734000Y-21844000D03*
%TD*%
D17*
%TO.C,PAD12*%
X177165000Y-21844000D03*
%TD*%
D18*
%TO.C,REF\u002A\u002A*%
X224449267Y-20204177D03*
%TD*%
D19*
%TO.C,J3*%
X218850000Y-79850000D03*
D20*
X214650000Y-33350000D03*
D21*
X214650000Y-37550000D03*
X214650000Y-41750000D03*
X214650000Y-45950000D03*
X214650000Y-50150000D03*
X214650000Y-54350000D03*
X214650000Y-58550000D03*
X214650000Y-62750000D03*
X214650000Y-66950000D03*
X214650000Y-71150000D03*
X214650000Y-75350000D03*
X209150000Y-33350000D03*
X209150000Y-37550000D03*
X209150000Y-41750000D03*
X209150000Y-45950000D03*
X209150000Y-50150000D03*
X209150000Y-54350000D03*
X209150000Y-58550000D03*
X209150000Y-62750000D03*
X209150000Y-66950000D03*
X209150000Y-71150000D03*
X209150000Y-75350000D03*
%TD*%
D10*
%TO.C,L4*%
X151500000Y-150100000D03*
X161500000Y-150100000D03*
%TD*%
D22*
%TO.C,PAD10*%
X142875000Y-21844000D03*
%TD*%
D14*
%TO.C,PAD3*%
X164836763Y-21844000D03*
%TD*%
D23*
%TO.C,Q151*%
X87984290Y-154848979D03*
D24*
X85514290Y-154848979D03*
X83034290Y-154848979D03*
%TD*%
D18*
%TO.C,REF\u002A\u002A*%
X224421407Y-157793133D03*
%TD*%
D25*
%TO.C,PAD13*%
X155700000Y-135890750D03*
%TD*%
D14*
%TO.C,PAD7*%
X127517236Y-21766573D03*
%TD*%
D25*
%TO.C,PAD14*%
X148842000Y-135890750D03*
%TD*%
D18*
%TO.C,REF\u002A\u002A*%
X77537652Y-20200000D03*
%TD*%
D26*
%TO.C,D153*%
X112250000Y-155400000D03*
D27*
X112250000Y-145240000D03*
%TD*%
D28*
%TO.C,RL1*%
X140700000Y-147300000D03*
X144200000Y-154800000D03*
D29*
X120700000Y-154800000D03*
D28*
X120700000Y-147300000D03*
%TD*%
D30*
%TO.C,REF\u002A\u002A*%
X224421407Y-150047753D03*
%TD*%
D17*
%TO.C,PS_ON1*%
X172085000Y-21844000D03*
%TD*%
D31*
%TO.C,ZD151*%
X80010000Y-154940000D03*
D32*
X80010000Y-144780000D03*
%TD*%
D11*
%TO.C,REF\u002A\u002A*%
X217800000Y-123200000D03*
%TD*%
%TO.C,*%
X217790966Y-27284963D03*
%TD*%
D17*
%TO.C,PAD11*%
X149860000Y-21844000D03*
%TD*%
D11*
%TO.C,*%
X82950000Y-27300000D03*
%TD*%
D16*
%TO.C,Q152*%
X136050000Y-137300000D03*
D33*
X119390000Y-134760000D03*
D34*
X119390000Y-137300000D03*
X119390000Y-139840000D03*
%TD*%
M02*
